<?xml version="1.0" standalone="no"?>
<!DOCTYPE svg PUBLIC "-//W3C//DTD SVG 1.1//EN" "http://www.w3.org/Graphics/SVG/1.1/DTD/svg11.dtd" >
<svg xmlns="http://www.w3.org/2000/svg" xmlns:xlink="http://www.w3.org/1999/xlink" version="1.1">
<metadata></metadata>
<defs>
<font id="unscii16" horiz-adv-x="1024" >
<font-face units-per-em="2048" ascent="1632" descent="-416" />
<missing-glyph horiz-adv-x="500" />
<glyph unicode="&#x622;" arabic-form="isolated" d="M0 1376v128h128v128h768v-128h-768v-128h-128zM384 352v1024h128v-1024h-128z" />
<glyph unicode="&#x622;" arabic-form="final" d="M128 1376v128h128v128h512v-128h-512v-128h-128zM384 480v896h128v-768h512v-256h-512v128h-128z" />
<glyph unicode="&#x623;" arabic-form="final" d="M128 1120v128h128v-128h-128zM128 1376v128h128v128h256v-128h-256v-128h-128zM256 1248v128h384v-128h-384zM384 480v640h128v-512h512v-256h-512v128h-128z" />
<glyph unicode="&#x625;" arabic-form="isolated" d="M384 -32v128h128v128h256v-128h-256v-128h-128zM384 -160h128v-128h-128v128zM512 -32h384v-128h-384v128zM512 352v1280h128v-1280h-128z" />
<glyph unicode="&#x625;" arabic-form="final" d="M128 -32v128h128v-128h-128zM128 224v128h128v128h256v-128h-256v-128h-128zM256 96v128h384v-128h-384zM512 608v1024h128v-1024h-128zM640 480v128h384v-128v-128h-256v128h-128z" />
<glyph unicode="&#x627;" arabic-form="final" d="M512 480v1152h128v-1024h384v-256h-384v128h-128z" />
<glyph unicode="&#x628;" arabic-form="isolated" d="M0 480v512h128v-384h768v384h128v-384v-128h-128v-128h-768v128h-128zM384 96v128h256v-128h-256z" />
<glyph unicode="&#x628;" arabic-form="final" d="M0 480v512h128v-384h768v384h128v-384v-128h-128v-128h-768v128h-128zM384 96v128h256v-128h-256z" />
<glyph unicode="&#x628;" arabic-form="initial" d="M0 352v128v128h768v384h128v128h128v-512h-128v-128h-128v-128h-768zM640 96v128h256v-128h-256z" />
<glyph unicode="&#x628;" arabic-form="medial" d="M0 352v128v128h512v384h128v-384h384v-128v-128h-384v128h-128v-128h-512zM384 96v128h256v-128h-256z" />
<glyph unicode="&#x629;" arabic-form="isolated" d="M256 1248v128h256v-128h-256zM384 480v384v128h128v128h384v-128h128v-128v-256v-128h-128v-128h-384v128h-128zM512 608h384v256h-384v-256zM768 1248v128h256v-128h-256z" />
<glyph unicode="&#x629;" arabic-form="final" d="M0 736v256v128h128v128h384v128h128v-384v-128v-128v-128h384v-256h-384v128h-128v256h-128v-128h-256v128h-128zM128 864h384v128h-384v-128zM256 1504v128h256v-128h-256zM640 1504v128h256v-128h-256z" />
<glyph unicode="&#x62a;" arabic-form="isolated" d="M0 480v512h128v-384h768v384h128v-384v-128h-128v-128h-768v128h-128zM256 1120v128h256v-128h-256zM640 1120v128h256v-128h-256z" />
<glyph unicode="&#x62a;" arabic-form="final" d="M0 480v512h128v-384h768v384h128v-384v-128h-128v-128h-768v128h-128zM256 1120v128h256v-128h-256zM640 1120v128h256v-128h-256z" />
<glyph unicode="&#x62a;" arabic-form="initial" d="M0 352v128v128h512v384h128v128h128v-512h-128v-128h-128v-128h-512zM256 1248v128h256v-128h-256zM768 1248v128h256v-128h-256z" />
<glyph unicode="&#x62a;" arabic-form="medial" d="M0 352v128v128h512v384h128v-384h384v-128v-128h-384v128h-128v-128h-512zM256 1120v128h256v-128h-256zM640 1120v128h256v-128h-256z" />
<glyph unicode="&#x62b;" arabic-form="isolated" d="M0 480v512h128v-384h768v384h128v-384v-128h-128v-128h-768v128h-128zM128 1120v128h256v-128h-256zM384 1376v128h256v-128h-256zM640 1120v128h256v-128h-256z" />
<glyph unicode="&#x62b;" arabic-form="final" d="M0 480v512h128v-384h768v384h128v-384v-128h-128v-128h-768v128h-128zM128 1120v128h256v-128h-256zM384 1376v128h256v-128h-256zM640 1120v128h256v-128h-256z" />
<glyph unicode="&#x62b;" arabic-form="initial" d="M0 352v128v128h512v384h128v128h128v-512h-128v-128h-128v-128h-512zM256 1248v128h256v-128h-256zM512 1504v128h256v-128h-256zM768 1248v128h256v-128h-256z" />
<glyph unicode="&#x62b;" arabic-form="medial" d="M0 352v128v128h512v384h128v-384h384v-128v-128h-384v128h-128v-128h-512zM128 1120v128h256v-128h-256zM384 1376v128h256v-128h-256zM640 1120v128h256v-128h-256z" />
<glyph unicode="&#x62c;" arabic-form="final" d="M0 224v256v128h128v128h128v128h384v128h-128v128h-384v128h512v-128h128v-128h128v-128h128v-128h-128v-128h128v-128v-128h-128v128h-128v128h-512v-128h-128v-128h128v-128h640v-128h-128v-128h-512v128h-128v128h-128zM384 352v128h256v-128h-256z" />
<glyph unicode="&#x62c;" arabic-form="initial" d="M0 352v128v128h768v128h-128v128h-256v-128h-256v128h128v128h512v-128h128v-128h128v-256h-128v-128h-896zM384 96v128h256v-128h-256z" />
<glyph unicode="&#x62c;" arabic-form="medial" d="M0 352v128v128h768v128h-128v128h-256v-128h-256v128h128v128h512v-128h128v-128h128v-256h-128v-128h-896zM384 96v128h256v-128h-256z" />
<glyph unicode="&#x62d;" arabic-form="isolated" d="M0 224v256v128h128v128h128v128h384v128h-128v128h-384v128h512v-128h128v-128h128v-128h128v-128h-128v-128h-640v-128h-128v-128h128v-128h640v-128h-128v-128h-512v128h-128v128h-128z" />
<glyph unicode="&#x62d;" arabic-form="final" d="M0 224v256v128h128v128h128v128h384v128h-128v128h-384v128h512v-128h128v-128h128v-128h128v-128h-128v-128h128v-128v-128h-128v128h-128v128h-512v-128h-128v-128h128v-128h640v-128h-128v-128h-512v128h-128v128h-128z" />
<glyph unicode="&#x62d;" arabic-form="initial" d="M0 352v128v128h768v128h-128v128h-256v-128h-256v128h128v128h512v-128h128v-128h128v-256h-128v-128h-896z" />
<glyph unicode="&#x62d;" arabic-form="medial" d="M0 352v128v128h768v128h-128v128h-256v-128h-256v128h128v128h512v-128h128v-128h128v-256h-128v-128h-896z" />
<glyph unicode="&#x62f;" arabic-form="isolated" d="M128 480v128h640v128h128v128h-128v128h-384v256h384v-128h128v-128h128v-384h-128v-128h-128v-128h-512v128h-128z" />
<glyph unicode="&#x62f;" arabic-form="final" d="M0 352v128v128h640v128h-128v128h-256v256h256v-128h128v-128h128v-128h128v-128h128v-128v-128h-256v128h-128v-128h-640z" />
<glyph unicode="&#x630;" arabic-form="isolated" d="M128 480v128h640v128h128v128h-128v128h-384v256h384v-128h128v-128h128v-384h-128v-128h-128v-128h-512v128h-128zM512 1376v128h256v-128h-256z" />
<glyph unicode="&#x630;" arabic-form="final" d="M0 352v128v128h640v128h-128v128h-256v256h256v-128h128v-128h128v-128h128v-128h128v-128v-128h-256v128h-128v-128h-640zM256 1248v128h256v-128h-256z" />
<glyph unicode="&#x631;" arabic-form="isolated" d="M128 96v128h640v128h128v256h-128v128h-128v128h128v128h128v-128h128v-512h-128v-128h-128v-128h-128v-128h-384v128h-128z" />
<glyph unicode="&#x631;" arabic-form="final" d="M0 -32v128v128h256v128v128h128v512h128v-256h128v-128h384v-128v-128h-384v128h-128v-128h-128v-256h-128v-128h-256z" />
<glyph unicode="&#x632;" arabic-form="isolated" d="M128 96v128h640v128h128v256h-128v128h-128v128h128v128h128v-128h128v-512h-128v-128h-128v-128h-128v-128h-384v128h-128zM640 1120v128h256v-128h-256z" />
<glyph unicode="&#x632;" arabic-form="final" d="M0 -32v128v128h256v128v128h128v512h128v-256h128v-128h384v-128v-128h-384v128h-128v-128h-128v-256h-128v-128h-256zM384 1120v128h256v-128h-256z" />
<glyph unicode="&#x633;" arabic-form="isolated" d="M0 480v512h128v-384h512v128h-128v128h-128v128v256h128v-256h128v128h128v-128h128v128v128h128v-128v-128v-128h-128v-128h-128v128h-128v-128h128v-128v-128h-128v-128h-512v128h-128z" />
<glyph unicode="&#x633;" arabic-form="final" d="M0 480v512h128v-384h512v128h-128v128h-128v128v256h128v-256h128v128h128v-128h128v128v128h128v-128v-128v-128h-128v-128h-128v128h-128v-128h128v-128v-128h-128v-128h-512v128h-128z" />
<glyph unicode="&#x633;" arabic-form="initial" d="M0 352v128v128h384v384h128v-384h128v256h128v-256h128v256v128h128v-128v-256v-128h-128v-128h-128v128h-128v-128h-128v128h-128v-128h-384z" />
<glyph unicode="&#x633;" arabic-form="medial" d="M0 352v128v128h384v384h128v-384h128v256h128v-256h128v256v128h128v-128v-256v-128h-128v-128h-128v128h-128v-128h-128v128h-128v-128h-384z" />
<glyph unicode="&#x634;" arabic-form="isolated" d="M0 480v384h128v-256h512v128h-256v128v256h128v-256h128v128h128v-128h128v128v128h128v-128v-128v-128h-256v-128v-128h-128v-128h-512v128h-128zM256 1248v128h256v-128h-256zM512 1504v128h256v-128h-256zM768 1248v128h256v-128h-256z" />
<glyph unicode="&#x634;" arabic-form="final" d="M0 480v384h128v-256h512v128h-256v128v256h128v-256h128v128h128v-128h128v128v128h128v-128v-128v-128h-256v-128v-128h-128v-128h-512v128h-128zM256 1248v128h256v-128h-256zM512 1504v128h256v-128h-256zM768 1248v128h256v-128h-256z" />
<glyph unicode="&#x634;" arabic-form="initial" d="M0 352v128v128h384v384h128v-384h128v256h128v-256h128v256v128h128v-128v-256v-128h-128v-128h-128v128h-128v-128h-128v128h-128v-128h-384zM256 1120v128h256v-128h-256zM512 1376v128h256v-128h-256zM768 1120v128h256v-128h-256z" />
<glyph unicode="&#x635;" arabic-form="isolated" d="M0 480v512h128v-384h512v128h-128v128h-128v128v128h-128v128h128v128h512v-128h128v-128v-128h-128v-128h-256v-128h128v-128v-128h-128v-128h-512v128h-128zM512 1120h384v128h-384v-128z" />
<glyph unicode="&#x635;" arabic-form="final" d="M0 480v512h128v-384h512v128h-128v128h-128v128v128h-128v128h128v128h512v-128h128v-128v-128h-128v-128h-256v-128h128v-128v-128h-128v-128h-512v128h-128zM512 1120h384v128h-384v-128z" />
<glyph unicode="&#x635;" arabic-form="initial" d="M0 352v128v128h256v256h128v-128h128v128h128v-128h-128v-128h384v256h-256v128h128v128h128v-128h128v-128v-256h-128v-128h-128v-128h-384v128h-128v-128h-256z" />
<glyph unicode="&#x635;" arabic-form="medial" d="M0 352v128v128h256v256h128v-128h128v128h128v-128h-128v-128h384v256h-256v128h128v128h128v-128h128v-128v-256h-128v-128h-128v-128h-384v128h-128v-128h-256z" />
<glyph unicode="&#x637;" arabic-form="isolated" d="M0 352v128v128h256v128v896h128v-768h128v128h128v128h256v-128h128v-256v-128v-128h-128v-128h-896zM512 608h384v128v128h-256v-128h-128v-128z" />
<glyph unicode="&#x637;" arabic-form="final" d="M0 352v128v128h256v128v896h128v-768h128v128h128v128h256v-128h128v-256v-128v-128h-128v-128h-896zM512 608h384v128v128h-256v-128h-128v-128z" />
<glyph unicode="&#x637;" arabic-form="initial" d="M0 352v128v128h256v128v896h128v-768h128v128h128v128h256v-128h128v-256v-128v-128h-128v-128h-896zM512 608h384v128v128h-256v-128h-128v-128z" />
<glyph unicode="&#x637;" arabic-form="medial" d="M0 352v128v128h256v128v896h128v-768h128v128h128v128h256v-128h128v-256v-128v-128h-128v-128h-896zM512 608h384v128v128h-256v-128h-128v-128zM640 1376v128h256v-128h-256z" />
<glyph unicode="&#x638;" arabic-form="isolated" d="M0 352v128v128h256v128v896h128v-768h128v128h128v128h256v-128h128v-256v-128v-128h-128v-128h-896zM512 608h384v128v128h-256v-128h-128v-128zM640 1376v128h256v-128h-256z" />
<glyph unicode="&#x638;" arabic-form="final" d="M0 352v128v128h256v128v896h128v-768h128v128h128v128h256v-128h128v-256v-128v-128h-128v-128h-896zM512 608h384v128v128h-256v-128h-128v-128zM640 1376v128h256v-128h-256z" />
<glyph unicode="&#x639;" arabic-form="isolated" d="M128 96v384v128h128v128h-128v256v128h128v128h384v-128h128v-128h-512v-128h512v-128h-128v-128h-256v-128h-128v-128h128v-128h384v128h128v128h128v-256h-128v-128h-128v-128h-512v128h-128z" />
<glyph unicode="&#x639;" arabic-form="final" d="M128 96v384v128h128v128h-128v256v128h128v128h384v-128h128v-128v-128v-128h128v-128h128v-128v-128h-128v-128v-128h-128v-128h-512v128h-128zM256 352h128v-128h384v128h128v128h-128v128h-384v-128h-128v-128zM256 864h384v128h-384v-128z" />
<glyph unicode="&#x639;" arabic-form="initial" d="M0 352v128v128h384v256v128h128v128h384v-128h128v-128h-512v-256h512v-128h-128v-128h-384v128h-128v-128h-384z" />
<glyph unicode="&#x639;" arabic-form="medial" d="M0 352v128v128h384v128h-128v128v256h640v-256v-128h-128v-128h256v-128v-128h-384v128h-128v-128h-512zM384 736h128v-128h128v128h128v128h-384v-128z" />
<glyph unicode="&#x63a;" arabic-form="isolated" d="M128 96v384v128h128v128h-128v256v128h128v128h384v-128h128v-128h-512v-128h512v-128h-128v-128h-256v-128h-128v-128h128v-128h384v128h128v128h128v-256h-128v-128h-128v-128h-512v128h-128zM256 1376v128h256v-128h-256z" />
<glyph unicode="&#x63a;" arabic-form="final" d="M128 96v384v128h128v128h-128v256v128h128v128h384v-128h128v-128v-128v-128h128v-128h128v-128v-128h-128v-128v-128h-128v-128h-512v128h-128zM256 352h128v-128h384v128h128v128h-128v128h-384v-128h-128v-128zM256 864h384v128h-384v-128zM256 1376v128h256v-128 h-256z" />
<glyph unicode="&#x63a;" arabic-form="initial" d="M0 352v128v128h384v256v128h128v128h384v-128h128v-128h-512v-256h512v-128h-128v-128h-384v128h-128v-128h-384zM512 1248v128h256v-128h-256z" />
<glyph unicode="&#x63a;" arabic-form="medial" d="M0 352v128v128h384v128h-128v128v256h640v-256v-128h-128v-128h256v-128v-128h-384v128h-128v-128h-512zM384 736h128v-128h128v128h128v128h-384v-128zM512 1248v128h256v-128h-256z" />
<glyph unicode="&#x641;" arabic-form="isolated" d="M0 352v384h128v-256h768v128h-512v128v128v128h128v128h384v-128h128v-128v-128v-256v-128h-128v-128h-768v128h-128zM512 736h384v128h-384v-128zM512 1248v128h256v-128h-256z" />
<glyph unicode="&#x641;" arabic-form="final" d="M0 352v384h128v-256h384v128h-128v128v128v128h128v128h384v-128h128v-128v-128v-128h-128v-128h128v-128v-128h-128v128h-384v-128h-384v128h-128zM512 736h128v-128h128v128h128v128h-384v-128zM512 1248v128h256v-128h-256z" />
<glyph unicode="&#x641;" arabic-form="initial" d="M0 352v128v128h896v128h-512v256v128h128v128h256v-128h128v-128h128v-128v-384h-128v-128h-896zM512 864h256v128h-256v-128zM512 1376v128h256v-128h-256z" />
<glyph unicode="&#x641;" arabic-form="medial" d="M0 352v128v128h384v128h-128v256v128h128v128h384v-128h128v-128v-256h-128v-128h256v-128v-128h-256v128h-384v-128h-384zM384 864h128v-128h128v128h128v128h-384v-128zM384 1376v128h256v-128h-256z" />
<glyph unicode="&#x642;" arabic-form="isolated" d="M0 352v384h128v-256h768v128h-512v128v128v128h128v128h384v-128h128v-128v-128v-256v-128h-128v-128h-768v128h-128zM384 1248v128h256v-128h-256zM512 736h384v128h-384v-128zM768 1248v128h256v-128h-256z" />
<glyph unicode="&#x642;" arabic-form="final" d="M0 480v384h128v-256h384v128h-128v128v128v128h128v128h384v-128h128v-128v-128v-128h-128v-128h128v-128v-128h-128v128h-384v-128h-384v128h-128zM384 1376v128h256v-128h-256zM512 864h128v-128h128v128h128v128h-384v-128zM768 1376v128h256v-128h-256z" />
<glyph unicode="&#x642;" arabic-form="initial" d="M0 352v128v128h896v128h-512v256v128h128v128h256v-128h128v-128h128v-128v-384h-128v-128h-896zM256 1376v128h256v-128h-256zM512 864h256v128h-256v-128zM640 1376v128h256v-128h-256z" />
<glyph unicode="&#x642;" arabic-form="medial" d="M0 352v128v128h384v128h-128v256v128h128v128h384v-128h128v-128v-256h-128v-128h256v-128v-128h-256v128h-384v-128h-384zM256 1376v128h256v-128h-256zM384 864h128v-128h128v128h128v128h-384v-128zM640 1376v128h256v-128h-256z" />
<glyph unicode="&#x643;" arabic-form="isolated" d="M0 480v384h128v-256h768v256v256v256v128v128h128v-128v-128v-256v-256v-256v-128h-128v-128h-768v128h-128zM256 992v128h128v-128h-128zM256 1248v128h128v128h256v-128h-256v-128h-128zM384 1120v128h256v-128h-256z" />
<glyph unicode="&#x643;" arabic-form="final" d="M0 480v384h128v-256h640v256v256v256v128v128h128v-128v-128v-256v-256v-256h128v-256h-896v128h-128zM256 992v128h128v-128h-128zM256 1248v128h128v128h256v-128h-256v-128h-128zM384 1120v128h256v-128h-256z" />
<glyph unicode="&#x643;" arabic-form="initial" d="M0 352v128v128h768v128h-384v128h-128v128h128v128h128v128h128v128h128v128h128v128h128v-256h-128v-128h-128v-128h-128v-128h-128v-128h384v-128h128v-256h-128v-128h-896z" />
<glyph unicode="&#x643;" arabic-form="medial" d="M0 352v128v128h640v128h-256v128h-128v256h128v128h128v128h128v128h128v128h128v-256h-128v-128h-128v-128h-128v-256h256v-128h128v-128h128v-128v-128h-128v128h-128v-128h-768z" />
<glyph unicode="&#x644;" arabic-form="isolated" d="M0 224v512h128v-384h128v-128h384v128h128v384v896h128v-896v-512h-128v-128h-128v-128h-384v128h-128v128h-128z" />
<glyph unicode="&#x644;" arabic-form="final" d="M0 224v512h128v-384h128v-128h384v128h128v384v896h128v-896v-256h128v-256h-128v-128h-256v-128h-384v128h-128v128h-128z" />
<glyph unicode="&#x644;" arabic-form="initial" d="M0 352v128v128h768v1024h128v-1152h-128v-128h-768z" />
<glyph unicode="&#x644;" arabic-form="medial" d="M0 352v128v128h384v1024h128v-1024h512v-128v-128h-512v128h-128v-128h-384z" />
<glyph unicode="&#x645;" arabic-form="isolated" d="M128 -32v384v128h256v128h256v128h-384v-128h-128v128v128h128v128h384v-128h128v-128h128v-384h-640v-384h-128z" />
<glyph unicode="&#x645;" arabic-form="final" d="M128 608v128v128h128v128h384v-128h128v-128v-128h256v-128v-128h-256v128h-128v-128h-256v-384h-128v384v128h128v128h128v128h-256v-128h-128z" />
<glyph unicode="&#x645;" arabic-form="initial" d="M0 352v128v128h256v128v128h128v128h256v-128h128v-128h128v-128h128v-128v-128h-384v128h-128v-128h-512zM384 608h256v128h-256v-128z" />
<glyph unicode="&#x646;" arabic-form="isolated" d="M0 480v512h128v-384h768v384h128v-384v-128h-128v-128h-768v128h-128zM384 1120v128h256v-128h-256z" />
<glyph unicode="&#x646;" arabic-form="final" d="M0 480v512h128v-384h768v384h128v-384v-128h-128v-128h-768v128h-128zM384 1120v128h256v-128h-256z" />
<glyph unicode="&#x646;" arabic-form="initial" d="M0 352v128v128h640v384h128v128h128v-512h-128v-128h-128v-128h-640zM640 1248v128h256v-128h-256z" />
<glyph unicode="&#x646;" arabic-form="medial" d="M0 352v128v128h512v384h128v-384h384v-128v-128h-384v128h-128v-128h-512zM512 1120v128h256v-128h-256z" />
<glyph unicode="&#x647;" arabic-form="isolated" d="M384 352v384h128v-256h384v256h-384v128h128v128h256v-128h128v-128v-256v-128h-128v-128h-384v128h-128z" />
<glyph unicode="&#x647;" arabic-form="final" d="M128 736v256v128h128v128h384v128h128v-384v-128v-128v-128h256v-256h-256v128h-128v256h-128v-128h-256v128h-128zM256 864h384v128h-384v-128z" />
<glyph unicode="&#x647;" arabic-form="initial" d="M0 352v128v128h256v256v128h128v128h-128v128h256v-128h384v-128h128v-128v-256v-128h-128v-128h-384v128h-128v-128h-384zM384 608h256v256h-256v-256zM768 608h128v256h-128v-256z" />
<glyph unicode="&#x647;" arabic-form="medial" d="M0 224v128v128h128v128h128v256v128h128v128h256v-128h128v-128v-128h-128v-128h384v-128v-128h-256v-128v-128h-128v-128h-256v128h-128v256h-128v-128h-128zM384 224h256v128h-128v128h-128v-128v-128zM384 608h128v128h128v128h-256v-256z" />
<glyph unicode="&#x648;" arabic-form="isolated" d="M128 96v128h640v128h-256v128h-128v256v128h128v128h256v-128h128v-128h128v-128v-256h-128v-128h-128v-128h-128v-128h-384v128h-128zM512 608h384v128h-384v-128z" />
<glyph unicode="&#x648;" arabic-form="final" d="M128 608v256v128h128v128h384v-128h128v-128v-128h128v-128h128v-256h-384v-128h-128v-128h-256v128v128h256v128h-256v128h-128zM256 736h384v128h-384v-128z" />
<glyph unicode="&#x649;" arabic-form="isolated" d="M0 352v384h128v-256h768v128h-384v128h-128v256v128h128v128h512v-256h-512v-128h384v-128h128v-256v-128h-128v-128h-768v128h-128z" />
<glyph unicode="&#x649;" arabic-form="final" d="M0 224v384h128v-256h384v128h-128v128v128v128h128v128h256v-128h128v-128h128v-128v-256h-128v256h-128v128h-256v-128h128v-128h128v-128v-128h-128v-128h-512v128h-128z" />
<glyph unicode="&#x64a;" arabic-form="isolated" d="M0 352v384h128v-256h768v128h-384v128h-128v256v128h128v128h512v-256h-512v-128h384v-128h128v-256v-128h-128v-128h-768v128h-128zM256 -32v128h256v-128h-256zM640 -32v128h256v-128h-256z" />
<glyph unicode="&#x64a;" arabic-form="final" d="M0 352v384h128v-256h384v128h-128v128v128v128h128v128h256v-128h128v-128h128v-128v-256h-128v256h-128v128h-256v-128h128v-128h128v-128v-128h-128v-128h-512v128h-128zM128 -32v128h256v-128h-256zM512 -32v128h256v-128h-256z" />
<glyph unicode="&#x64a;" arabic-form="initial" d="M0 352v128v128h896v384h128v-512h-128v-128h-896zM256 96v128h256v-128h-256zM640 96v128h256v-128h-256z" />
<glyph unicode="&#x64a;" arabic-form="medial" d="M0 352v128v128h512v256h128v-256h384v-128v-128h-384v128h-128v-128h-512zM256 96v128h256v-128h-256zM640 96v128h256v-128h-256z" />
<glyph unicode="&#xd;" />
<glyph unicode=" " d="M0 1632z" />
<glyph unicode="!" d="M384 -32v256h256v-256h-256zM384 480v1024h256v-1024h-256z" />
<glyph unicode="&#x22;" d="M128 1120v384h256v-384h-256zM640 1120v384h256v-384h-256z" />
<glyph unicode="#" d="M0 352v128h128v384h-128v128h128v384h256v-384h128v384h256v-384h128v-128h-128v-384h128v-128h-128v-384h-256v384h-128v-384h-256v384h-128zM384 480h128v384h-128v-384z" />
<glyph unicode="$" d="M128 224v128h256v-128h256v128v128h-128v128h-128v128h-128v128h-128v256h128v128h128v256h256v-256h128v-128h128v-128h-256v128h-256v-256h128v-128h128v-128h128v-128h128v-128v-128h-128v-128h-128v-256h-256v256h-128v128h-128z" />
<glyph unicode="%" d="M0 96h128v256h128v256h128v256h128v256h128v128v128h256v-128v-128h-128v-256h-128v-256h-128v-256h-128v-256h-128v-256h-256v256zM0 864v384h256v-384h-256zM640 -32v128v256h256v-256v-128h-256z" />
<glyph unicode="&#x26;" d="M0 96v512h128v128h128v128v128h-128v256h128v128h384v-128h128v-256h-128v-128h-128v-128h128v-128h128v128h128v-128v-128h-128v-384h128v-128h-256v128h-128v384h-128v128h-128v-512h256v-128h-384v128h-128zM384 992h128v256h-128v-256z" />
<glyph unicode="'" d="M256 992v128h128v384h256v-384h-128v-128h-256z" />
<glyph unicode="(" d="M256 224v896h128v256h128v128h256v-128h-128v-256h-128v-896h128v-256h128v-128h-256v128h-128v256h-128z" />
<glyph unicode=")" d="M256 -32h128v256h128v896h-128v256h-128v128h256v-128h128v-256h128v-896h-128v-256h-128v-128h-256v128z" />
<glyph unicode="*" d="M0 608v128h256v128h-128v256h256v-256h256v256h256v-256h-128v-128h256v-128h-256v-128h128v-256h-256v256h-256v-256h-256v256h128v128h-256z" />
<glyph unicode="+" d="M128 608v128h256v384h256v-384h256v-128h-256v-384h-256v384h-256z" />
<glyph unicode="," d="M128 -160h128v128h128v256h-128v128h384v-384h-128v-128h-128v-128h-256v128z" />
<glyph unicode="-" d="M128 608v128h768v-128h-768z" />
<glyph unicode="." d="M384 -32v384h256v-384h-256z" />
<glyph unicode="/" d="M0 96h128v256h128v256h128v256h128v256h128v256h128v256h256v-256h-128v-256h-128v-256h-128v-256h-128v-256h-128v-256h-128v-256h-256v256z" />
<glyph unicode="0" d="M0 224v256v640h128v128h128v128h384v-128h128v-128h128v-384v-256v-256h-128v-128h-128v-128h-384v128h-128v128h-128zM256 224h128v-128h128v128h128v256v256h-128v-128h-128v128h128v128h128v256h-128v128h-128v-128h-128v-512h128v-128h-128v-256z" />
<glyph unicode="1" d="M128 -32v128h256v896h-256v128h128v128h128v128h256v-1280h256v-128h-768z" />
<glyph unicode="2" d="M128 -32v384h128v128h128v128h128v128h128v512h-256v-256h-256v256h128v128h512v-128h128v-512h-128v-128h-128v-128h-128v-128h-128v-256h512v-128h-768z" />
<glyph unicode="3" d="M128 96v256h256v-256h256v256v256h-256v128h256v512h-256v-256h-256v256h128v128h512v-128h128v-512h-128v-128h128v-256v-256h-128v-128h-512v128h-128z" />
<glyph unicode="4" d="M0 480v384h128v128h128v128h128v128h128v128h256v-384v-128v-256h128v-128h-128v-512h-256v512h-512zM256 608h256v256v128h-128v-128h-128v-256z" />
<glyph unicode="5" d="M128 96v256h256v-256h256v256v384h-512v512v128h768v-128h-512v-384h384v-128h128v-384v-256h-128v-128h-512v128h-128z" />
<glyph unicode="6" d="M128 96v640v384h128v128h128v128h384v-128h-256v-128h-128v-256h384v-128h128v-640h-128v-128h-512v128h-128zM384 96h256v640h-256v-640z" />
<glyph unicode="7" d="M128 1248v128h768v-512h-128v-256h-128v-640h-256v640h128v256h128v384h-512z" />
<glyph unicode="8" d="M128 96v512h128v128h-128v512h128v128h512v-128h128v-512h-128v-128h128v-512h-128v-128h-512v128h-128zM384 96h256v384h-128v128h-128v-512zM384 864h128v-128h128v512h-256v-384z" />
<glyph unicode="9" d="M128 736v512h128v128h512v-128h128v-512v-512h-128v-128h-128v-128h-384v128h256v128h128v384h-384v128h-128zM384 736h256v512h-256v-512z" />
<glyph unicode=":" d="M384 -32v384h256v-384h-256zM384 864v384h256v-384h-256z" />
<glyph unicode=";" d="M128 -160h128v128h128v256h-128v128h384v-384h-128v-128h-128v-128h-256v128zM384 864v384h256v-384h-256z" />
<glyph unicode="&#x3c;" d="M128 608v128h128v128h128v128h128v128h128v128h256v-128h-128v-128h-128v-128h-128v-128h-128v-128h128v-128h128v-128h128v-128h128v-128h-256v128h-128v128h-128v128h-128v128h-128z" />
<glyph unicode="=" d="M128 352v128h768v-128h-768zM128 864v128h768v-128h-768z" />
<glyph unicode="&#x3e;" d="M128 96v128h128v128h128v128h128v128h128v128h-128v128h-128v128h-128v128h-128v128h256v-128h128v-128h128v-128h128v-128h128v-128h-128v-128h-128v-128h-128v-128h-128v-128h-256z" />
<glyph unicode="?" d="M128 1120v256h128v128h512v-128h128v-384h-128v-128h-128v-384h-256v384h128v128h128v384h-256v-256h-256zM384 -32v256h256v-256h-256z" />
<glyph unicode="@" d="M0 96v1152h128v128h640v-128h128v-768h-128v-128h-384v128v384h256v384h-384v-1152h512v-128h-640v128h-128z" />
<glyph unicode="A" d="M128 -32v640v512h128v128h128v128h256v-128h128v-128h128v-384v-128v-640h-256v640h-256v-640h-256zM384 736h256v384h-256v-384z" />
<glyph unicode="B" d="M128 -32v640v640v128h640v-128h128v-384h-128v-128h-128v-128h128v-128h128v-384h-128v-128h-640zM384 96h256v384h-128v128h-128v-512zM384 736h128v128h128v384h-256v-512z" />
<glyph unicode="C" d="M128 96v1152h128v128h512v-128h128v-256h-256v256h-256v-1152h256v256h256v-256h-128v-128h-512v128h-128z" />
<glyph unicode="D" d="M128 -32v1280v128h512v-128h128v-128h128v-896h-128v-128h-128v-128h-512zM384 96h128v128h128v896h-128v128h-128v-1152z" />
<glyph unicode="E" d="M128 -32v640v640v128h768v-128h-512v-512h384v-128h-384v-512h512v-128h-768z" />
<glyph unicode="F" d="M128 -32v768v512v128h768v-128h-512v-384h384v-128h-384v-768h-256z" />
<glyph unicode="G" d="M128 96v1152h128v128h512v-128h128v-256h-256v256h-256v-1152h256v512h-128v128h384v-640v-128h-640v128h-128z" />
<glyph unicode="H" d="M128 -32v640v768h256v-640h256v640h256v-640v-128v-640h-256v640h-256v-640h-256z" />
<glyph unicode="I" d="M128 -32v128h256v1152h-256v128h768v-128h-256v-1152h256v-128h-768z" />
<glyph unicode="J" d="M128 96v256h256v-256h256v256v1024h256v-1024v-256h-128v-128h-512v128h-128z" />
<glyph unicode="K" d="M0 -32v640v768h256v-640h128v128h128v256h128v256h256v-256h-128v-256h-128v-128h-128v-128h128v-128h128v-256h128v-256h-256v256h-128v256h-128v128h-128v-640h-256z" />
<glyph unicode="L" d="M128 -32v1408h256v-1280h512v-128h-768z" />
<glyph unicode="M" d="M0 -32v896v512h256v-128h128v-256h128v256h128v128h256v-384v-128v-896h-256v896h-128v-256h-128v256h-128v-896h-256z" />
<glyph unicode="N" d="M0 -32v640v768h256v-256h128v-256h128v-128h128v640h256v-640v-128v-640h-256v256h-128v256h-128v128h-128v-640h-256z" />
<glyph unicode="O" d="M128 96v1152h128v128h512v-128h128v-1152h-128v-128h-512v128h-128zM384 96h256v1152h-256v-1152z" />
<glyph unicode="P" d="M128 -32v640v640v128h640v-128h128v-512h-128v-128h-384v-640h-256zM384 736h256v512h-256v-512z" />
<glyph unicode="Q" d="M128 96v1152h128v128h512v-128h128v-1152h-128v-256h128v-128h-256v128h-128v128h-256v128h-128zM384 96h256v1152h-256v-1152z" />
<glyph unicode="R" d="M128 -32v640v640v128h640v-128h128v-512h-128v-128v-128h128v-512h-256v512h-128v128h-128v-640h-256zM384 736h256v512h-256v-512z" />
<glyph unicode="S" d="M128 96v256h256v-256h256v256v128h-128v128h-128v128h-128v128h-128v384h128v128h512v-128h128v-256h-256v256h-256v-384h128v-128h128v-128h128v-128h128v-128v-256h-128v-128h-512v128h-128z" />
<glyph unicode="T" d="M128 1248v128h768v-128h-256v-1280h-256v1280h-256z" />
<glyph unicode="U" d="M128 96v1280h256v-1280h256v1280h256v-1280h-128v-128h-512v128h-128z" />
<glyph unicode="V" d="M128 480v896h256v-896h256v896h256v-896h-128v-256h-128v-256h-256v256h-128v256h-128z" />
<glyph unicode="W" d="M0 -32v128v256v1024h256v-896h128v256h128v-256h128v256v640h256v-640v-256v-128v-256v-128h-256v128h-128v256h-128v-256h-128v-128h-256z" />
<glyph unicode="X" d="M0 -32v256h128v128h128v128h128v384h-128v128h-128v128h-128v256h256v-256h128v-128h256v128h128v256h256v-256h-128v-128h-128v-128h-128v-384h128v-128h128v-128h128v-256h-256v256h-128v128h-256v-128h-128v-256h-256z" />
<glyph unicode="Y" d="M0 1120v256h256v-256h128v-256h256v256h128v256h256v-256h-128v-256h-128v-128h-128v-768h-256v768h-128v128h-128v256h-128z" />
<glyph unicode="Z" d="M128 -32v384h128v256h128v128h128v256h128v256h-512v128h768v-384h-128v-256h-128v-128h-128v-256h-128v-256h512v-128h-768z" />
<glyph unicode="[" d="M256 -160v1536v128h512v-128h-256v-1408h256v-128h-512z" />
<glyph unicode="\" d="M0 1376v256h256v-256h128v-256h128v-256h128v-256h128v-256h128v-256h128v-256h-256v256h-128v256h-128v256h-128v256h-128v256h-128v256h-128z" />
<glyph unicode="]" d="M256 -32h256v1408h-256v128h512v-1664h-512v128z" />
<glyph unicode="^" d="M0 736v256h128v256h128v128h128v128h128v-128h128v-128h128v-256h128v-256h-256v256h-128v256h-128v-256h-128v-256h-256z" />
<glyph unicode="_" d="M0 -288h1024v-128h-1024v128z" />
<glyph unicode="`" d="M384 1248v256h256v-256h128v-128h128v-128h-256v128h-128v128h-128z" />
<glyph unicode="a" d="M128 96v384h128v128h384v128h-384v128h512v-128h128v-256v-384v-128h-640v128h-128zM384 96h256v384h-256v-384z" />
<glyph unicode="b" d="M128 -32v768v640h256v-512h384v-128h128v-640h-128v-128h-640zM384 96h256v640h-256v-640z" />
<glyph unicode="c" d="M128 96v640h128v128h512v-128h128v-128h-256v128h-256v-640h256v128h256v-128h-128v-128h-512v128h-128z" />
<glyph unicode="d" d="M128 96v640h128v128h384v512h256v-640v-640v-128h-640v128h-128zM384 96h256v640h-256v-640z" />
<glyph unicode="e" d="M128 96v256v384h128v128h512v-128h128v-256v-128h-512v-256h384v-128h-512v128h-128zM384 480h256v256h-256v-256z" />
<glyph unicode="f" d="M128 736v128h128v384h128v128h512v-128h-384v-384h384v-128h-384v-768h-256v768h-128z" />
<glyph unicode="g" d="M128 96v640h128v128h640v-128v-640v-384h-128v-128h-640v128h512v256h-384v128h-128zM384 96h256v640h-256v-640z" />
<glyph unicode="h" d="M128 -32v768v640h256v-512h384v-128h128v-768h-256v768h-256v-768h-256z" />
<glyph unicode="i" d="M128 736v128h512v-768h256v-128h-512v768h-256zM384 1120v256h256v-256h-256z" />
<glyph unicode="j" d="M128 -288h384v1152h256v-1152h-128v-128h-512v128zM512 1120v256h256v-256h-256z" />
<glyph unicode="k" d="M128 -32v384v1024h256v-896h128v128h128v256h256v-256h-128v-128h-128v-128h128v-128h128v-256h-256v256h-128v128h-128v-384h-256z" />
<glyph unicode="l" d="M128 1248v128h512v-1280h256v-128h-512v1280h-256z" />
<glyph unicode="m" d="M0 -32v640v256h256v-128h256v128h256v-128h128v-128v-640h-256v640h-128v-512h-128v512h-128v-640h-256z" />
<glyph unicode="n" d="M128 -32v768v128h640v-128h128v-768h-256v768h-256v-768h-256z" />
<glyph unicode="o" d="M128 96v640h128v128h512v-128h128v-640h-128v-128h-512v128h-128zM384 96h256v640h-256v-640z" />
<glyph unicode="p" d="M128 -32v768v128h640v-128h128v-640h-128v-128h-384v-384h-256v384zM384 96h256v640h-256v-640z" />
<glyph unicode="q" d="M128 96v640h128v128h640v-128v-640v-512h-256v384h-384v128h-128zM384 96h256v640h-256v-640z" />
<glyph unicode="r" d="M128 -32v768v128h640v-128h128v-256h-256v256h-256v-768h-256z" />
<glyph unicode="s" d="M128 -32v128h512v256h-384v128h-128v256h128v128h640v-128h-512v-256h384v-128h128v-256h-128v-128h-640z" />
<glyph unicode="t" d="M128 736v128h128v384h256v-384h384v-128h-384v-640h384v-128h-512v128h-128v640h-128z" />
<glyph unicode="u" d="M128 96v768h256v-768h256v768h256v-768v-128h-640v128h-128z" />
<glyph unicode="v" d="M128 224v640h256v-640h256v640h256v-640h-128v-128h-128v-128h-256v128h-128v128h-128z" />
<glyph unicode="w" d="M0 224v640h256v-640h128v384h128v-384h128v384v256h256v-256v-384h-128v-128v-128h-256v128h-128v-128h-256v128v128h-128z" />
<glyph unicode="x" d="M0 -32v256h128v128h128v128h-128v128h-128v256h256v-256h128v-128h128v128h128v256h256v-256h-128v-128h-128v-128h128v-128h128v-256h-256v256h-128v128h-128v-128h-128v-256h-256z" />
<glyph unicode="y" d="M128 96v768h256v-768h256v768h256v-768v-384h-128v-128h-512v128h384v256h-384v128h-128z" />
<glyph unicode="z" d="M128 -32v256h128v128h128v128h128v128h128v128h-512v128h768v-256h-128v-128h-128v-128h-128v-128h-128v-128h512v-128h-768z" />
<glyph unicode="{" d="M0 608v128h384v640h128v128h384v-128h-256v-640h-128v-128h128v-640h256v-128h-384v128h-128v640h-384z" />
<glyph unicode="|" d="M384 -160v1792h256v-1792h-256z" />
<glyph unicode="}" d="M0 -32h256v640h128v128h-128v640h-256v128h384v-128h128v-640h384v-128h-384v-640h-128v-128h-384v128z" />
<glyph unicode="~" d="M0 1120v128v128h128v128h384v-128v-128h128v128h128v128h128v-128v-128h-128v-128h-384v128v128h-128v-128h-128v-128h-128z" />
<glyph d="M0 352v1024v256h256v-256h128v-768h-128v768h-128v-768h128v-256h-256zM512 864v256h384v-256h-128v-1024h-128v1024h-128z" />
<glyph d="M0 352v512v512v256h384v-256v-256v-256v-256v-256h-384zM128 608h128v256h-128v-256zM128 1120h128v256h-128v-256zM512 -160v1024v256h384v-256v-768v-256h-384zM640 96h128v768h-128v-768z" />
<glyph d="M0 352v512v512v256h384v-256v-256v-256v-256v-256h-384zM128 608h128v256h-128v-256zM128 1120h128v256h-128v-256zM512 96h128v512h-128v256h128v256h128v-256v-768h128v-256h-384v256z" />
<glyph d="M0 352v512v512v256h384v-256v-256v-256v-256v-256h-384zM128 608h128v256h-128v-256zM128 1120h128v256h-128v-256zM512 -160v512v256h256v256h-256v256h384v-256v-512h-256v-256h256v-256h-384z" />
<glyph d="M0 352v512v512v256h384v-256v-256v-256v-256v-256h-384zM128 608h128v256h-128v-256zM128 1120h128v256h-128v-256zM512 96h256v256h-256v256h256v256h-256v256h384v-256v-1024h-384v256z" />
<glyph d="M0 352v256h128v768h-128v256h384v-256h-128v-768h128v-256h-384zM512 -160v1024v256h384v-256v-1024h-128v1024h-128v-1024h-128z" />
<glyph unicode="&#x85;" d="M0 352v1024v256h384v-256v-1024h-128v1024h-128v-1024h-128zM512 -160v1280h128v-1024h256v-256h-384z" />
<glyph d="M0 352v256h256v256h-256v512v256h384v-256h-256v-256h256v-768h-384zM512 96h256v256h-256v512v256h384v-256h-256v-256h256v-768h-384v256z" />
<glyph d="M0 352v512v512v256h384v-256h-256v-256h128v-256h-128v-256h256v-256h-384zM512 96h256v256h-256v512v256h384v-256h-256v-256h256v-768h-384v256z" />
<glyph d="M0 352v512v768h128v-512h128v512h128v-512v-256v-512h-128v512h-128v-512h-128zM512 96h256v256h-256v512v256h384v-256h-256v-256h256v-768h-384v256z" />
<glyph d="M0 352v512v768h128v-512h128v512h128v-512v-256v-512h-128v512h-128v-512h-128zM512 -160v512h128v-256h128v256v512v256h128v-256v-512v-256v-256h-384z" />
<glyph d="M0 608v1024h128v-1024h-128zM128 352v256h128v-256h-128zM256 608v1024h128v-1024h-128zM512 96h256v256h-256v512v256h384v-256h-256v-256h256v-768h-384v256z" />
<glyph d="M0 352v512v512v256h384v-256v-256v-256h-256v-512h-128zM128 1120h128v256h-128v-256zM512 -160v1024v256h256v-256h128v-768h-128v768h-128v-768h128v-256h-256z" />
<glyph d="M0 352v512v512v256h384v-256v-256v-256h-256v-512h-128zM128 1120h128v256h-128v-256zM512 -160v1024v256h128v-256v-768h128v768v256h128v-256v-768v-256h-384z" />
<glyph d="M0 352v512v512v256h256v-256h128v-256h-128v256h-128v-256h128v-256h128v-512h-128v512h-128v-512h-128zM512 96h128v768h-128v256h384v-256h-128v-768h128v-256h-384v256z" />
<glyph d="M0 352v256h256v256h-256v512v256h384v-256h-256v-256h256v-768h-384zM512 -160v512v256h256v256h-256v256h384v-768h-256v-256h256v-256h-384z" />
<glyph d="M0 352v256h256v256h-256v512v256h384v-256h-256v-256h256v-768h-384zM512 96h256v256h-128v256h128v256h-256v256h384v-1280h-384v256z" />
<glyph d="M0 352v1024v256h256v-256h128v-768h-128v768h-128v-768h128v-256h-256zM512 -160v1024v256h384v-256h-256v-768h256v-256h-384z" />
<glyph d="M0 352v512v512v256h384v-256v-256v-256h-256v-512h-128zM128 1120h128v256h-128v-256zM512 96h128v512h-128v256h128v256h128v-256v-768h128v-256h-384v256z" />
<glyph d="M0 352v512v512v256h384v-256v-256v-256h-256v-512h-128zM128 1120h128v256h-128v-256zM512 -160v512v256h256v256h-256v256h384v-256v-512h-256v-256h256v-256h-384z" />
<glyph d="M0 352v256h256v256h-256v512v256h384v-256h-256v-256h256v-768h-384zM512 -160v512v512v256h384v-256h-256v-256h128v-256h-128v-256h256v-256h-384z" />
<glyph d="M0 352v1024v256h384v-256h-256v-768h256v-256h-384zM512 -160v1024v256h384v-256h-256v-768h256v-256h-384z" />
<glyph d="M0 352v512v768h128v-256h128v256h128v-256v-512v-512h-128v512h-128v-512h-128zM512 96v768v256h128v-256v-256h128v256v256h128v-256v-256v-512v-256h-128v256h-128v-256h-128v256z" />
<glyph d="M0 352v256h256v256h-256v512v256h384v-256h-256v-256h256v-768h-384zM512 -160v512v512v256h384v-256v-256v-256h-256v-512h-128zM640 608h128v256h-128v-256z" />
<glyph d="M0 352v512v512v256h384v-256h-256v-256h128v-256h-128v-256h256v-256h-384zM512 -160v512v512v256h384v-256v-256v-256h-256v-512h-128zM640 608h128v256h-128v-256z" />
<glyph d="M0 352v256h256v256h-256v512v256h384v-256v-256v-768h-384zM128 1120h128v256h-128v-256zM512 -160v512v512v256h384v-256v-256v-256v-256v-256h-384zM640 96h128v256h-128v-256zM640 608h128v256h-128v-256z" />
<glyph d="M0 352v256h256v256h-256v512v256h384v-256v-256v-768h-384zM128 1120h128v256h-128v-256zM512 96h256v256h-256v512v256h384v-256v-256v-768h-384v256zM640 608h128v256h-128v-256z" />
<glyph d="M0 352v256h256v256h-256v512v256h384v-256v-256v-768h-384zM128 1120h128v256h-128v-256zM512 -160v512v512v256h384v-256v-256v-256v-512h-128v512h-128v-512h-128zM640 608h128v256h-128v-256z" />
<glyph d="M0 352v1024v256h384v-256h-256v-768h256v-256h-384zM512 96h256v256h-256v512v256h384v-256h-256v-256h256v-768h-384v256z" />
<glyph d="M0 352v256h256v256h-256v512v256h384v-256h-256v-256h256v-768h-384zM512 864v256h384v-256h-128v-1024h-128v1024h-128z" />
<glyph d="M0 352v1024v256h384v-256v-768v-256h-384zM128 608h128v768h-128v-768zM512 96h256v256h-256v512v256h384v-256h-256v-256h256v-768h-384v256z" />
<glyph d="M0 352v512v512v256h384v-256v-256v-256h-256v-512h-128zM128 1120h128v256h-128v-256zM512 -160v512v512v256h128v-256h128v256h128v-256v-512v-512h-128v512h-128v-512h-128z" />
<glyph d="M0 352v512v512v256h384v-256v-256v-256v-512h-128v512h-128v-512h-128zM128 1120h128v256h-128v-256zM512 -160v512v512v256h384v-256v-256v-256h-256v-512h-128zM640 608h128v256h-128v-256z" />
<glyph unicode="&#xa0;" d="M0 1632z" />
<glyph unicode="&#xa1;" d="M384 -32v1024h256v-1024h-256zM384 1248v256h256v-256h-256z" />
<glyph unicode="&#xa2;" d="M0 352v512h128v256h256v256h256v-256h256v-256h-256v-512h256v-256h-256v-256h-256v256h-256v256h-128zM256 352h128v512h-128v-512z" />
<glyph unicode="&#xa3;" d="M0 -32v128h128v512h-128v128h128v512h128v128h384v-128h128v-256h-256v256h-128v-512h128v-128h-128v-512h256v256h256v-256h-128v-128h-768z" />
<glyph unicode="&#xa4;" d="M128 480v128h128v128h-128v384h128v128h-128v128h256v-128h256v128h256v-128h-128v-128h128v-384h-128v-128h128v-128h-256v128h-256v-128h-256zM384 736h256v384h-256v-384z" />
<glyph unicode="&#xa5;" d="M0 1120v256h256v-256h128v-256h256v256h128v256h256v-256h-128v-256h-128v-128h-128v-128h256v-128h-256v-128h256v-128h-256v-256h-256v256h-256v128h256v128h-256v128h256v128h-128v128h-128v256h-128z" />
<glyph unicode="&#xa6;" d="M384 -160v768h256v-768h-256zM384 864v768h256v-768h-256z" />
<glyph unicode="&#xa7;" d="M128 -32v128h256v-128h256v128v128h-128v128h-128v128h-128v128h-128v256h128v256h-128v256h128v128h512v-128h128v-128h-256v128h-256v-256h128v-128h128v-128h128v-128h128v-256h-128v-256h128v-128v-128h-128v-128h-512v128h-128zM384 608h128v-128h128v256h-128v128 h-128v-256z" />
<glyph unicode="&#xa8;" d="M128 1376v256h256v-256h-256zM640 1376v256h256v-256h-256z" />
<glyph unicode="&#xa9;" d="M0 224v896h128v128h128v128h512v-128h128v-128h128v-128v-128v-640h-128v-128h-128v128h128v640v128v128h-128v128h-512v-128h-128v-896h-128zM128 96v128h128v-128h512v-128h-512v128h-128zM256 480v384h128v128h384v-128h-256v-384h256v-128h-384v128h-128z" />
<glyph unicode="&#xaa;" d="M128 352v128h768v-128h-768zM128 736v256h128v128h384v256h-384v128h512v-128h128v-384v-256v-128h-640v128h-128zM384 736h256v256h-256v-256z" />
<glyph unicode="&#xab;" d="M0 608v128h128v128h128v128h256v-128h-128v-128h-128v-128h128v-128h128v-128h-256v128h-128v128h-128zM512 608v128h128v128h128v128h256v-128h-128v-128h-128v-128h128v-128h128v-128h-256v128h-128v128h-128z" />
<glyph unicode="&#xac;" d="M0 736v128h896v-640h-256v512h-640z" />
<glyph unicode="&#xad;" d="M256 608v128h512v-128h-512z" />
<glyph unicode="&#xae;" d="M0 224v896h128v128h128v128h512v-128h128v-128h128v-128v-128v-256v-384h-128v-128h-128v128h128v384v256v128v128h-128v128h-512v-128h-128v-896h-128zM128 96v128h128v-128h512v-128h-512v128h-128zM256 352v256v256v128h384v-128h128v-128h-128v128h-256v-128h256 v-128h128v-256h-128v256h-256v-256h-128z" />
<glyph unicode="&#xaf;" d="M128 1504v128h768v-128h-768z" />
<glyph unicode="&#xb0;" d="M128 1120v256h128v128h512v-128h128v-256h-128v-128h-512v128h-128zM384 1120h256v256h-256v-256z" />
<glyph unicode="&#xb1;" d="M128 -32v128h768v-128h-768zM128 608v128h256v384h256v-384h256v-128h-256v-384h-256v384h-256z" />
<glyph unicode="&#xb2;" d="M128 608v256h128v128h128v128h128v256h-128v-128h-256v128h128v128h384v-128h128v-256h-128v-128h-128v-128h-128v-128h384v-128h-640z" />
<glyph unicode="&#xb3;" d="M128 736v128h256v-128h128v128v128h-256v128h256v256h-128v-128h-256v128h128v128h384v-128h128v-256h-128v-128h128v-128v-128h-128v-128h-384v128h-128z" />
<glyph unicode="&#xb4;" d="M256 864v256h128v256h128v256h256v-256h-128v-256h-128v-256h-256z" />
<glyph unicode="&#xb5;" d="M0 -288h128v256v896h256v-768h256v768h256v-768h-128v-128h-384v-256h-128v-128h-256v128z" />
<glyph unicode="&#xb6;" d="M128 736v512h128v128h640v-128v-1280h-128v1280h-128v-1280h-256v640h-128v128h-128z" />
<glyph unicode="&#xb7;" d="M384 608v128h256v-128h-256z" />
<glyph unicode="&#xb8;" d="M384 -288h256v128h-128v128h256v-128h128v-128h-128v-128h-384v128z" />
<glyph unicode="&#xb9;" d="M128 1248v128h128v128h256v-896h-256v640h-128z" />
<glyph unicode="&#xba;" d="M128 352v128h768v-128h-768zM128 736v384h128v128h512v-128h128v-384h-128v-128h-512v128h-128zM384 736h256v384h-256v-384z" />
<glyph unicode="&#xbb;" d="M0 352v128h128v128h128v128h-128v128h-128v128h256v-128h128v-128h128v-128h-128v-128h-128v-128h-256zM512 352v128h128v128h128v128h-128v128h-128v128h256v-128h128v-128h128v-128h-128v-128h-128v-128h-256z" />
<glyph unicode="&#xbc;" d="M0 96h128v256h128v256h128v256h-256v256h-128v128h128v128h256v-512h128v256h128v256h256v-256h-128v-256h-128v-256h-128v-256h-128v-256h-128v-256h-256v256zM512 -32v128v128h128v-128h128v128h-128v128h128v128h128v-128v-128v-128h128v-128h-128v-128h-128v128h-256 z" />
<glyph unicode="&#xbd;" d="M0 96h128v256h128v256h128v256h-256v256h-128v128h128v128h256v-512h128v256h128v256h256v-256h-128v-256h-128v-256h-128v-256h256v-128h128v-128h-128v-128h128v-128h-384v256h128v128h-128v128h-128v-256h-128v-256h-256v256z" />
<glyph unicode="&#xbe;" d="M0 96h128v256h128v256h128v256h128v256h128v256h256v-256h-128v-256h-128v-256h-128v-256h-128v-256h-128v-256h-256v256zM0 736v128h256v-128h-256zM0 1248v128h256v-128h-256zM128 992v128h128v128h128v-384h-128v128h-128zM512 -32v128v128h128v-128h128v128h-128v128 h128v128h128v-128v-128v-128h128v-128h-128v-128h-128v128h-256z" />
<glyph unicode="&#xbf;" d="M128 96v512h128v256h128v128h256v-128h-128v-256h-128v-512h256v256h256v-256h-128v-128h-512v128h-128zM384 1248v256h256v-256h-256z" />
<glyph unicode="&#xc0;" d="M128 -32v512v512h128v128h128v128h256v-128h128v-128h128v-384v-128v-512h-256v512h-256v-512h-256zM256 1504v128h256v-128h128v-128h-256v128h-128zM384 608h256v384h-256v-384z" />
<glyph unicode="&#xc1;" d="M128 -32v512v512h128v128h128v128h256v-128h128v-128h128v-384v-128v-512h-256v512h-256v-512h-256zM384 608h256v384h-256v-384zM384 1376v128h128v128h256v-128h-128v-128h-256z" />
<glyph unicode="&#xc2;" d="M128 -32v512v512h128v128h128v128h256v-128h128v-128h128v-384v-128v-512h-256v512h-256v-512h-256zM128 1376v128h256v128h256v-128h256v-128h-256v128h-256v-128h-256zM384 608h256v384h-256v-384z" />
<glyph unicode="&#xc3;" d="M0 1376v128h128v128h384v-128h128v128h256v-128h-128v-128h-384v128h-128v-128h-256zM128 -32v512v512h128v128h128v128h256v-128h128v-128h128v-384v-128v-512h-256v512h-256v-512h-256zM384 608h256v384h-256v-384z" />
<glyph unicode="&#xc4;" d="M128 -32v512v512h128v128h128v128h256v-128h128v-128h128v-384v-128v-512h-256v512h-256v-512h-256zM128 1376v256h256v-256h-256zM384 608h256v384h-256v-384zM640 1376v256h256v-256h-256z" />
<glyph unicode="&#xc5;" d="M128 -32v512v384h128v128h128v128h256v-128h128v-128h128v-256v-128v-512h-256v512h-256v-512h-256zM128 1376v128h128v128h512v-128h128v-128h-128v-128h-512v128h-128zM384 608h256v256h-256v-256zM384 1376h256v128h-256v-128z" />
<glyph unicode="&#xc6;" d="M0 -32v640v384v128h128v128h128v128h768v-128h-256v-256v-256h128v-128h-128v-512h256v-128h-512v640h-256v-640h-256zM256 736h256v256h-256v-256z" />
<glyph unicode="&#xc7;" d="M128 96v1152h128v128h512v-128h128v-256h-256v256h-256v-1152h256v256h256v-256h-128v-256h128v-128h-128v-128h-384v128h256v128h-128v128h-256v128h-128z" />
<glyph unicode="&#xc8;" d="M128 -32v640v512v128h768v-128h-512v-384h384v-128h-384v-512h512v-128h-768zM256 1504v128h256v-128h128v-128h-256v128h-128z" />
<glyph unicode="&#xc9;" d="M128 -32v640v512v128h768v-128h-512v-384h384v-128h-384v-512h512v-128h-768zM384 1376v128h128v128h256v-128h-128v-128h-256z" />
<glyph unicode="&#xca;" d="M128 -32v640v512v128h768v-128h-512v-384h384v-128h-384v-512h512v-128h-768zM128 1376v128h256v128h256v-128h256v-128h-256v128h-256v-128h-256z" />
<glyph unicode="&#xcb;" d="M128 -32v640v512v128h768v-128h-512v-384h384v-128h-384v-512h512v-128h-768zM128 1376v256h256v-256h-256zM640 1376v256h256v-256h-256z" />
<glyph unicode="&#xcc;" d="M128 -32v128h256v1024h-256v128h768v-128h-256v-1024h256v-128h-768zM256 1504v128h256v-128h128v-128h-256v128h-128z" />
<glyph unicode="&#xcd;" d="M128 -32v128h256v1024h-256v128h768v-128h-256v-1024h256v-128h-768zM384 1376v128h128v128h256v-128h-128v-128h-256z" />
<glyph unicode="&#xce;" d="M128 -32v128h256v1024h-256v128h768v-128h-256v-1024h256v-128h-768zM128 1376v128h256v128h256v-128h256v-128h-256v128h-256v-128h-256z" />
<glyph unicode="&#xcf;" d="M128 -32v128h256v1024h-256v128h768v-128h-256v-1024h256v-128h-768zM128 1376v256h256v-256h-256zM640 1376v256h256v-256h-256z" />
<glyph unicode="&#xd0;" d="M0 608v128h128v512v128h512v-128h128v-128h128v-512v-384h-128v-128h-128v-128h-512v640h-128zM384 96h128v128h128v384v512h-128v128h-128v-512h128v-128h-128v-512z" />
<glyph unicode="&#xd1;" d="M0 -32v768v512h256v-256h128v-128h128v-128h128v512h256v-512v-768h-256v512h-128v128h-128v128h-128v-768h-256zM0 1376v128h128v128h384v-128h128v128h256v-128h-128v-128h-384v128h-128v-128h-256z" />
<glyph unicode="&#xd2;" d="M128 96v1024h128v128h512v-128h128v-1024h-128v-128h-512v128h-128zM256 1504v128h256v-128h128v-128h-256v128h-128zM384 96h256v1024h-256v-1024z" />
<glyph unicode="&#xd3;" d="M128 96v1024h128v128h512v-128h128v-1024h-128v-128h-512v128h-128zM384 96h256v1024h-256v-1024zM384 1376v128h128v128h256v-128h-128v-128h-256z" />
<glyph unicode="&#xd4;" d="M128 96v1024h128v128h512v-128h128v-1024h-128v-128h-512v128h-128zM128 1376v128h256v128h256v-128h256v-128h-256v128h-256v-128h-256zM384 96h256v1024h-256v-1024z" />
<glyph unicode="&#xd5;" d="M0 1376v128h128v128h384v-128h128v128h256v-128h-128v-128h-384v128h-128v-128h-256zM128 96v1024h128v128h512v-128h128v-1024h-128v-128h-512v128h-128zM384 96h256v1024h-256v-1024z" />
<glyph unicode="&#xd6;" d="M128 96v1024h128v128h512v-128h128v-1024h-128v-128h-512v128h-128zM128 1376v256h256v-256h-256zM384 96h256v1024h-256v-1024zM640 1376v256h256v-256h-256z" />
<glyph unicode="&#xd7;" d="M0 224v128v128h128v128h128v128h-128v128h-128v256h128v-128h128v-128h128v-128h128v128h128v128h128v128h128v-256h-128v-128h-128v-128h128v-128h128v-128v-128h-128v128h-128v128h-128v128h-128v-128h-128v-128h-128v-128h-128z" />
<glyph unicode="&#xd8;" d="M128 -32v256v384v640h128v128h640v-128v-512v-128v-384v-128h-128v-128h-640zM384 96h256v128v384h-128v-384h-128v-128zM384 736h128v384h128v128h-256v-512z" />
<glyph unicode="&#xd9;" d="M128 96v1152h256v-1152h256v1152h256v-1152h-128v-128h-512v128h-128zM256 1504v128h256v-128h128v-128h-256v128h-128z" />
<glyph unicode="&#xda;" d="M128 96v1152h256v-1152h256v1152h256v-1152h-128v-128h-512v128h-128zM384 1376v128h128v128h256v-128h-128v-128h-256z" />
<glyph unicode="&#xdb;" d="M128 96v1152h256v-1152h256v1152h256v-1152h-128v-128h-512v128h-128zM128 1376v128h256v128h256v-128h256v-128h-256v128h-256v-128h-256z" />
<glyph unicode="&#xdc;" d="M128 96v1152h256v-1152h256v1152h256v-1152h-128v-128h-512v128h-128zM128 1376v256h256v-256h-256zM640 1376v256h256v-256h-256z" />
<glyph unicode="&#xdd;" d="M128 736v512h256v-512h256v512h256v-512h-128v-128h-128v-640h-256v640h-128v128h-128zM384 1376v128h128v128h256v-128h-128v-128h-256z" />
<glyph unicode="&#xde;" d="M0 -32v256v768v384h256v-256h512v-128h128v-640h-128v-128h-512v-256h-256zM256 352h384v640h-384v-640z" />
<glyph unicode="&#xdf;" d="M0 -32v1280h128v128h512v-128h128v-384h-128v-128h128v-128h128v-512h-128v-128h-256v128h128v512h-128v128h-128v128h128v384h-256v-1280h-256z" />
<glyph unicode="&#xe0;" d="M128 96v384h128v128h384v128h-384v128h512v-128h128v-256v-384v-128h-640v128h-128zM256 1248v128h256v-128h128v-128h-256v128h-128zM384 96h256v384h-256v-384z" />
<glyph unicode="&#xe1;" d="M128 96v384h128v128h384v128h-384v128h512v-128h128v-256v-384v-128h-640v128h-128zM384 96h256v384h-256v-384zM384 1120v128h128v128h256v-128h-128v-128h-256z" />
<glyph unicode="&#xe2;" d="M128 96v384h128v128h384v128h-384v128h512v-128h128v-256v-384v-128h-640v128h-128zM128 1120v128h128v128h128v128h256v-128h128v-128h128v-128h-256v128h-256v-128h-256zM384 96h256v384h-256v-384z" />
<glyph unicode="&#xe3;" d="M0 1120v128h128v128h384v-128h128v128h256v-128h-128v-128h-384v128h-128v-128h-256zM128 96v384h128v128h384v128h-384v128h512v-128h128v-256v-384v-128h-640v128h-128zM384 96h256v384h-256v-384z" />
<glyph unicode="&#xe4;" d="M128 96v384h128v128h384v128h-384v128h512v-128h128v-256v-384v-128h-640v128h-128zM128 1120v256h256v-256h-256zM384 96h256v384h-256v-384zM640 1120v256h256v-256h-256z" />
<glyph unicode="&#xe5;" d="M128 96v384h128v128h384v128h-384v128h512v-128h128v-256v-384v-128h-640v128h-128zM128 1120v128h128v128h512v-128h128v-128h-128v-128h-512v128h-128zM384 96h256v384h-256v-384zM384 1120h256v128h-256v-128z" />
<glyph unicode="&#xe6;" d="M0 96v256h128v128h256v256h-256v128h768v-128h128v-256v-128h-384v-256h-128v-128h-384v128h-128zM256 96h128v256h-128v-256zM640 -32v128h384v-128h-384zM640 480h128v256h-128v-256z" />
<glyph unicode="&#xe7;" d="M128 96v640h128v128h512v-128h128v-128h-256v128h-256v-640h256v128h256v-128h-128v-256h128v-128h-128v-128h-384v128h256v128h-128v128h-256v128h-128z" />
<glyph unicode="&#xe8;" d="M128 96v256v384h128v128h512v-128h128v-256v-128h-512v-256h384v-128h-512v128h-128zM256 1248v128h256v-128h128v-128h-256v128h-128zM384 480h256v256h-256v-256z" />
<glyph unicode="&#xe9;" d="M128 96v256v384h128v128h512v-128h128v-256v-128h-512v-256h384v-128h-512v128h-128zM384 480h256v256h-256v-256zM384 1120v128h128v128h256v-128h-128v-128h-256z" />
<glyph unicode="&#xea;" d="M128 96v256v384h128v128h512v-128h128v-256v-128h-512v-256h384v-128h-512v128h-128zM128 1120v128h128v128h128v128h256v-128h128v-128h128v-128h-256v128h-256v-128h-256zM384 480h256v256h-256v-256z" />
<glyph unicode="&#xeb;" d="M128 96v256v384h128v128h512v-128h128v-256v-128h-512v-256h384v-128h-512v128h-128zM128 1120v256h256v-256h-256zM384 480h256v256h-256v-256zM640 1120v256h256v-256h-256z" />
<glyph unicode="&#xec;" d="M256 -32v128h128v640h-128v128h384v-768h128v-128h-512zM256 1248v128h256v-128h128v-128h-256v128h-128z" />
<glyph unicode="&#xed;" d="M256 -32v128h128v640h-128v128h384v-768h128v-128h-512zM384 1120v128h128v128h256v-128h-128v-128h-256z" />
<glyph unicode="&#xee;" d="M128 1120v128h128v128h128v128h256v-128h128v-128h128v-128h-256v128h-256v-128h-256zM256 -32v128h128v640h-128v128h384v-768h128v-128h-512z" />
<glyph unicode="&#xef;" d="M128 1120v256h256v-256h-256zM256 -32v128h128v640h-128v128h384v-768h128v-128h-512zM640 1120v256h256v-256h-256z" />
<glyph unicode="&#xf0;" d="M128 96v640h128v128h384v256h-128v-128h-256v128h128v256h-128v128h256v-128h128v128h256v-128h-128v-256h128v-384v-640h-128v-128h-512v128h-128zM384 96h256v640h-256v-640z" />
<glyph unicode="&#xf1;" d="M0 1120v128h128v128h384v-128h128v128h256v-128h-128v-128h-384v128h-128v-128h-256zM128 -32v768v128h640v-128h128v-768h-256v768h-256v-768h-256z" />
<glyph unicode="&#xf2;" d="M128 96v640h128v128h512v-128h128v-640h-128v-128h-512v128h-128zM256 1248v128h256v-128h128v-128h-256v128h-128zM384 96h256v640h-256v-640z" />
<glyph unicode="&#xf3;" d="M128 96v640h128v128h512v-128h128v-640h-128v-128h-512v128h-128zM384 96h256v640h-256v-640zM384 1120v128h128v128h256v-128h-128v-128h-256z" />
<glyph unicode="&#xf4;" d="M128 96v640h128v128h512v-128h128v-640h-128v-128h-512v128h-128zM128 1120v128h128v128h128v128h256v-128h128v-128h128v-128h-256v128h-256v-128h-256zM384 96h256v640h-256v-640z" />
<glyph unicode="&#xf5;" d="M0 1120v128h128v128h384v-128h128v128h256v-128h-128v-128h-384v128h-128v-128h-256zM128 96v640h128v128h512v-128h128v-640h-128v-128h-512v128h-128zM384 96h256v640h-256v-640z" />
<glyph unicode="&#xf6;" d="M128 96v640h128v128h512v-128h128v-640h-128v-128h-512v128h-128zM128 1120v256h256v-256h-256zM384 96h256v640h-256v-640zM640 1120v256h256v-256h-256z" />
<glyph unicode="&#xf7;" d="M128 608v128h768v-128h-768zM384 224v256h256v-256h-256zM384 864v256h256v-256h-256z" />
<glyph unicode="&#xf8;" d="M0 -32v128h128v128v128v384h128v128h512v-128h128v128h128v-128h-128v-256v-128v-128v-128h-128v-128h-512v128h-128v-128h-128zM384 96h256v128v128h-128v-128h-128v-128zM384 480h128v128h128v128h-256v-256z" />
<glyph unicode="&#xf9;" d="M128 96v768h256v-768h256v768h256v-768v-128h-640v128h-128zM256 1248v128h256v-128h128v-128h-256v128h-128z" />
<glyph unicode="&#xfa;" d="M128 96v768h256v-768h256v768h256v-768v-128h-640v128h-128zM384 1120v128h128v128h256v-128h-128v-128h-256z" />
<glyph unicode="&#xfb;" d="M128 96v768h256v-768h256v768h256v-768v-128h-640v128h-128zM128 1120v128h128v128h128v128h256v-128h128v-128h128v-128h-256v128h-256v-128h-256z" />
<glyph unicode="&#xfc;" d="M128 96v768h256v-768h256v768h256v-768v-128h-640v128h-128zM128 1120v256h256v-256h-256zM640 1120v256h256v-256h-256z" />
<glyph unicode="&#xfd;" d="M128 96v768h256v-768h256v768h256v-768v-384h-128v-128h-512v128h384v256h-384v128h-128zM384 1120v128h128v128h256v-128h-128v-128h-256z" />
<glyph unicode="&#xfe;" d="M128 -32v768v512h256v-384h384v-128h128v-640h-128v-128h-384v-384h-256v384zM384 96h256v640h-256v-640z" />
<glyph unicode="&#xff;" d="M128 96v768h256v-768h256v768h256v-768v-384h-128v-128h-512v128h384v256h-384v128h-128zM128 1120v256h256v-256h-256zM640 1120v256h256v-256h-256z" />
<glyph unicode="&#x100;" d="M128 -32v640v512h128v128h128v128h256v-128h128v-128h128v-384v-128v-640h-256v640h-256v-640h-256zM128 1504v128h768v-128h-768zM384 736h256v384h-256v-384z" />
<glyph unicode="&#x101;" d="M128 96v384h128v128h384v128h-384v128h512v-128h128v-256v-384v-128h-640v128h-128zM128 1120v128h768v-128h-768zM384 96h256v384h-256v-384z" />
<glyph unicode="&#x102;" d="M128 -32v512v512h128v128h128v128h256v-128h128v-128h128v-384v-128v-512h-256v512h-256v-512h-256zM128 1504v128h256v-128h256v128h256v-128h-128v-128h-512v128h-128zM384 608h256v384h-256v-384z" />
<glyph unicode="&#x103;" d="M128 96v384h128v128h384v128h-384v128h512v-128h128v-256v-384v-128h-640v128h-128zM128 1248v128h256v-128h256v128h256v-128h-128v-128h-512v128h-128zM384 96h256v384h-256v-384z" />
<glyph unicode="&#x104;" d="M128 -32v640v512h128v128h128v128h256v-128h128v-128h128v-384v-128v-640h-128v-128h-128v-128h256v-128h-384v128h-128v128h128v128h128v640h-256v-640h-256zM384 736h256v384h-256v-384z" />
<glyph unicode="&#x105;" d="M128 96v384h128v128h384v128h-384v128h512v-128h128v-256v-384v-128h-128v-128h-128v-128h256v-128h-384v128h-128v128h128v128h-256v128h-128zM384 96h256v384h-256v-384z" />
<glyph unicode="&#x106;" d="M128 96v1024h128v128h512v-128h128v-256h-256v256h-256v-1024h256v256h256v-256h-128v-128h-512v128h-128zM384 1376v128h128v128h256v-128h-128v-128h-256z" />
<glyph unicode="&#x107;" d="M128 96v640h128v128h512v-128h128v-128h-256v128h-256v-640h256v128h256v-128h-128v-128h-512v128h-128zM384 1120v128h128v128h256v-128h-128v-128h-256z" />
<glyph unicode="&#x108;" d="M128 96v1024h128v128h512v-128h128v-256h-256v256h-256v-1024h256v256h256v-256h-128v-128h-512v128h-128zM128 1376v128h256v128h256v-128h256v-128h-256v128h-256v-128h-256z" />
<glyph unicode="&#x109;" d="M128 96v640h128v128h512v-128h128v-128h-256v128h-256v-640h256v128h256v-128h-128v-128h-512v128h-128zM128 1120v128h128v128h128v128h256v-128h128v-128h128v-128h-256v128h-256v-128h-256z" />
<glyph unicode="&#x10a;" d="M128 96v1024h128v128h512v-128h128v-256h-256v256h-256v-1024h256v256h256v-256h-128v-128h-512v128h-128zM384 1376v256h256v-256h-256z" />
<glyph unicode="&#x10b;" d="M128 96v640h128v128h512v-128h128v-128h-256v128h-256v-640h256v128h256v-128h-128v-128h-512v128h-128zM384 1120v256h256v-256h-256z" />
<glyph unicode="&#x10c;" d="M128 96v1024h128v128h512v-128h128v-256h-256v256h-256v-1024h256v256h256v-256h-128v-128h-512v128h-128zM128 1504v128h256v-128h-256zM384 1376v128h256v-128h-256zM640 1504v128h256v-128h-256z" />
<glyph unicode="&#x10d;" d="M128 96v640h128v128h512v-128h128v-128h-256v128h-256v-640h256v128h256v-128h-128v-128h-512v128h-128zM128 1376v128h256v-128h256v128h256v-128h-128v-128h-128v-128h-256v128h-128v128h-128z" />
<glyph unicode="&#x10e;" d="M128 -32v1152v128h512v-128h128v-128h128v-768h-128v-128h-128v-128h-512zM128 1504v128h256v-128h-256zM384 96h128v128h128v768h-128v128h-128v-1024zM384 1376v128h256v-128h-256zM640 1504v128h256v-128h-256z" />
<glyph unicode="&#x10f;" d="M0 96v640h128v128h256v512h256v-640v-640v-128h-512v128h-128zM256 96h128v640h-128v-640zM768 992v384h128v-384h-128z" />
<glyph unicode="&#x110;" d="M0 608v128h128v512v128h512v-128h128v-128h128v-512v-384h-128v-128h-128v-128h-512v640h-128zM384 96h128v128h128v384v512h-128v128h-128v-512h128v-128h-128v-512z" />
<glyph unicode="&#x111;" d="M128 96v640h128v128h384v256h-256v128h256v128h256v-128h128v-128h-128v-384v-640v-128h-640v128h-128zM384 96h256v640h-256v-640z" />
<glyph unicode="&#x112;" d="M128 -32v640v640v128h768v-128h-512v-512h384v-128h-384v-512h512v-128h-768zM128 1504v128h768v-128h-768z" />
<glyph unicode="&#x113;" d="M128 96v256v384h128v128h512v-128h128v-256v-128h-512v-256h384v-128h-512v128h-128zM128 1120v128h768v-128h-768zM384 480h256v256h-256v-256z" />
<glyph unicode="&#x114;" d="M128 -32v640v512v128h768v-128h-512v-384h384v-128h-384v-512h512v-128h-768zM128 1504v128h256v-128h256v128h256v-128h-128v-128h-512v128h-128z" />
<glyph unicode="&#x115;" d="M128 96v256v384h128v128h512v-128h128v-256v-128h-512v-256h384v-128h-512v128h-128zM128 1248v128h256v-128h256v128h256v-128h-128v-128h-512v128h-128zM384 480h256v256h-256v-256z" />
<glyph unicode="&#x116;" d="M128 -32v640v512v128h768v-128h-512v-384h384v-128h-384v-512h512v-128h-768zM384 1376v256h256v-256h-256z" />
<glyph unicode="&#x117;" d="M128 96v256v384h128v128h512v-128h128v-256v-128h-512v-256h384v-128h-512v128h-128zM384 480h256v256h-256v-256zM384 1120v256h256v-256h-256z" />
<glyph unicode="&#x118;" d="M128 -32v640v640v128h768v-128h-512v-512h384v-128h-384v-512h512v-128h-128v-128h-128v-128h256v-128h-384v128h-128v128h128v128h-384z" />
<glyph unicode="&#x119;" d="M128 96v256v384h128v128h512v-128h128v-256v-128h-512v-256h384v-256h-128v-128h256v-128h-384v128h-128v128h128v128h-256v128h-128zM384 480h256v256h-256v-256z" />
<glyph unicode="&#x11a;" d="M128 -32v640v512v128h768v-128h-512v-384h384v-128h-384v-512h512v-128h-768zM128 1504v128h256v-128h-256zM384 1376v128h256v-128h-256zM640 1504v128h256v-128h-256z" />
<glyph unicode="&#x11b;" d="M128 96v256v384h128v128h512v-128h128v-256v-128h-512v-256h384v-128h-512v128h-128zM128 1376v128h256v-128h256v128h256v-128h-128v-128h-128v-128h-256v128h-128v128h-128zM384 480h256v256h-256v-256z" />
<glyph unicode="&#x11c;" d="M128 96v1024h128v128h512v-128h128v-256h-256v256h-256v-1024h256v384h-128v128h384v-512v-128h-640v128h-128zM128 1376v128h256v128h256v-128h256v-128h-256v128h-256v-128h-256z" />
<glyph unicode="&#x11d;" d="M128 96v640h128v128h640v-128v-640v-384h-128v-128h-640v128h512v256h-384v128h-128zM128 1120v128h128v128h128v128h256v-128h128v-128h128v-128h-256v128h-256v-128h-256zM384 96h256v640h-256v-640z" />
<glyph unicode="&#x11e;" d="M128 96v1024h128v128h512v-128h128v-256h-256v256h-256v-1024h256v384h-128v128h384v-512v-128h-640v128h-128zM128 1504v128h256v-128h256v128h256v-128h-128v-128h-512v128h-128z" />
<glyph unicode="&#x11f;" d="M128 96v640h128v128h640v-128v-640v-384h-128v-128h-640v128h512v256h-384v128h-128zM128 1248v128h256v-128h256v128h256v-128h-128v-128h-512v128h-128zM384 96h256v640h-256v-640z" />
<glyph unicode="&#x120;" d="M128 96v1024h128v128h512v-128h128v-256h-256v256h-256v-1024h256v384h-128v128h384v-512v-128h-640v128h-128zM384 1376v256h256v-256h-256z" />
<glyph unicode="&#x121;" d="M128 96v640h128v128h640v-128v-640v-384h-128v-128h-640v128h512v256h-384v128h-128zM384 96h256v640h-256v-640zM384 1120v256h256v-256h-256z" />
<glyph unicode="&#x122;" d="M128 96v1152h128v128h512v-128h128v-384h-256v384h-256v-1152h256v384h-128v128h384v-512v-128h-640v128h-128zM256 -288h128v128h256v-128h-128v-128h-256v128z" />
<glyph unicode="&#x123;" d="M128 96v768h128v128h640v-128v-768v-384h-128v-128h-512v128h384v256h-384v128h-128zM384 96h256v768h-256v-768zM384 1120v256h128v128h256v-128h-128v-256h-256z" />
<glyph unicode="&#x124;" d="M128 -32v640v640h256v-512h256v512h256v-512v-128v-640h-256v640h-256v-640h-256zM128 1376v128h256v128h256v-128h256v-128h-256v128h-256v-128h-256z" />
<glyph unicode="&#x125;" d="M128 -32v512v640h256v-512h384v-128h128v-512h-256v512h-256v-512h-256zM128 1248v128h128v128h128v128h256v-128h128v-128h128v-128h-256v128h-256v-128h-256z" />
<glyph unicode="&#x126;" d="M0 864v128h128v384h256v-384h256v384h256v-384h128v-128h-128v-128v-128v-640h-256v640h-256v-640h-256v640v256h-128zM384 736h256v128h-256v-128z" />
<glyph unicode="&#x127;" d="M128 -32v1024v256v256h256v-128h256v-128h-256v-128h384v-128h128v-1024h-256v1024h-256v-1024h-256z" />
<glyph unicode="&#x128;" d="M0 1376v128h128v128h384v-128h128v128h256v-128h-128v-128h-384v128h-128v-128h-256zM128 -32v128h256v1024h-256v128h768v-128h-256v-1024h256v-128h-768z" />
<glyph unicode="&#x129;" d="M0 1120v128h128v128h384v-128h128v128h256v-128h-128v-128h-384v128h-128v-128h-256zM256 -32v128h128v640h-128v128h384v-768h128v-128h-512z" />
<glyph unicode="&#x12a;" d="M128 -32v128h256v1152h-256v128h768v-128h-256v-1152h256v-128h-768zM128 1504v128h768v-128h-768z" />
<glyph unicode="&#x12b;" d="M128 1120v128h768v-128h-768zM256 -32v128h128v640h-128v128h384v-768h128v-128h-512z" />
<glyph unicode="&#x12c;" d="M128 -32v128h256v1024h-256v128h768v-128h-256v-1024h256v-128h-768zM128 1504v128h256v-128h256v128h256v-128h-128v-128h-512v128h-128z" />
<glyph unicode="&#x12d;" d="M128 1248v128h256v-128h256v128h256v-128h-128v-128h-512v128h-128zM256 -32v128h128v640h-128v128h384v-768h128v-128h-512z" />
<glyph unicode="&#x12e;" d="M128 -32v128h256v1152h-256v128h768v-128h-256v-1152h256v-128h-128v-128h-128v-128h256v-128h-384v128h-128v128h128v128h-384z" />
<glyph unicode="&#x12f;" d="M128 736v128h512v-768h256v-128h-128v-128h-128v-128h256v-128h-384v128h-128v128h128v128h-128v768h-256zM384 1120v256h256v-256h-256z" />
<glyph unicode="&#x130;" d="M128 -32v128h256v1024h-256v128h768v-128h-256v-1024h256v-128h-768zM384 1376v256h256v-256h-256z" />
<glyph unicode="&#x131;" d="M256 -32v128h128v640h-128v128h384v-768h128v-128h-512z" />
<glyph unicode="&#x132;" d="M0 -32v1408h256v-1408h-256zM384 96v128h128v-128h-128zM512 -32v128h128v128v1152h256v-1152v-128h-128v-128h-256z" />
<glyph unicode="&#x133;" d="M128 -32v896h256v-896h-256zM128 1120v256h256v-256h-256zM256 -160h384v1024h256v-1024h-128v-128h-512v128zM640 1120v256h256v-256h-256z" />
<glyph unicode="&#x134;" d="M128 96v256h256v-256h256v256v896h256v-896v-256h-128v-128h-512v128h-128zM128 1376v128h256v128h256v-128h256v-128h-256v128h-256v-128h-256z" />
<glyph unicode="&#x135;" d="M128 -288h384v1152h256v-1152h-128v-128h-512v128zM128 1120v128h128v128h128v128h256v-128h128v-128h128v-128h-256v128h-256v-128h-256z" />
<glyph unicode="&#x136;" d="M0 -32v640v768h256v-640h128v128h128v256h128v256h256v-256h-128v-256h-128v-128h-128v-128h128v-128h128v-256h128v-256h-128v-128h128v-128h-128v-128h-384v128h256v128h-128v128h128v256h-128v256h-128v128h-128v-640h-256z" />
<glyph unicode="&#x137;" d="M128 -32v384v1024h256v-896h128v128h128v256h256v-256h-128v-128h-128v-128h128v-128h128v-256h-128v-128h128v-128h-128v-128h-384v128h256v128h-128v128h128v256h-128v128h-128v-384h-256z" />
<glyph unicode="&#x138;" d="M128 -32v384v512h256v-384h128v128h128v256h256v-256h-128v-128h-128v-128h128v-128h128v-256h-256v256h-128v128h-128v-384h-256z" />
<glyph unicode="&#x139;" d="M128 -32v1280h256v-1152h512v-128h-768zM384 1376v128h128v128h256v-128h-128v-128h-256z" />
<glyph unicode="&#x13a;" d="M128 1120v128h512v-1152h256v-128h-512v1152h-256zM384 1376v128h128v128h256v-128h-128v-128h-256z" />
<glyph unicode="&#x13b;" d="M128 -32v1408h256v-1280h512v-128h-128v-128h128v-128h-128v-128h-384v128h256v128h-128v128h-384z" />
<glyph unicode="&#x13c;" d="M128 -32v128h256v1152h-256v128h512v-1280h256v-128h-768zM256 -288h128v128h256v-128h-128v-128h-256v128z" />
<glyph unicode="&#x13d;" d="M128 -32v1408h256v-1280h512v-128h-768zM640 864v128h128v128h-128v256h256v-384h-128v-128h-128z" />
<glyph unicode="&#x13e;" d="M0 -32v128h256v1152h-256v128h512v-1280h256v-128h-768zM640 864v128h128v128h-128v256h256v-384h-128v-128h-128z" />
<glyph unicode="&#x13f;" d="M128 -32v1408h256v-1280h512v-128h-768zM640 736v256h256v-256h-256z" />
<glyph unicode="&#x140;" d="M128 1120v128h512v-1152h256v-128h-512v1152h-256zM384 1376v128h128v128h256v-128h-128v-128h-256z" />
<glyph unicode="&#x141;" d="M0 352v128v128h128v128h128v640h256v-512h128v128h128v-128v-128h-128v-128h-128v-128v-384h384v-128h-640v512h-128v-128h-128z" />
<glyph unicode="&#x142;" d="M128 352v128v128h128v128h128v512h-256v128h512v-512h128v128h128v-128v-128h-128v-128h-128v-128v-384h256v-128h-512v512h-128v-128h-128z" />
<glyph unicode="&#x143;" d="M0 -32v768v512h256v-256h128v-128h128v-128h128v512h256v-512v-768h-256v512h-128v128h-128v128h-128v-768h-256zM384 1376v128h128v128h256v-128h-128v-128h-256z" />
<glyph unicode="&#x144;" d="M128 -32v768v128h640v-128h128v-768h-256v768h-256v-768h-256zM384 1120v128h128v128h256v-128h-128v-128h-256z" />
<glyph unicode="&#x145;" d="M0 -32v640v768h256v-256h128v-256h128v-128h128v640h256v-640v-128v-640h-128v-128h128v-128h-128v-128h-384v128h256v128h-128v128h128v256h-128v256h-128v128h-128v-640h-256z" />
<glyph unicode="&#x146;" d="M128 -32v768v128h640v-128h128v-768h-128v-128h128v-128h-128v-128h-384v128h256v128h-128v128h128v768h-256v-768h-256z" />
<glyph unicode="&#x147;" d="M0 -32v768v512h256v-256h128v-128h128v-128h128v512h256v-512v-768h-256v512h-128v128h-128v128h-128v-768h-256zM128 1504v128h256v-128h-256zM384 1376v128h256v-128h-256zM640 1504v128h256v-128h-256z" />
<glyph unicode="&#x148;" d="M128 -32v768v128h640v-128h128v-768h-256v768h-256v-768h-256zM128 1376v128h256v-128h256v128h256v-128h-128v-128h-128v-128h-256v128h-128v128h-128z" />
<glyph unicode="&#x149;" d="M0 736v128h128v128h-128v384h256v-384h512v-128h128v-896h-256v896h-128v-896h-256v896h-128v-128h-128z" />
<glyph unicode="&#x14a;" d="M0 -32v1152v128h768v-128h128v-1408h-128v-128h-512v128h384v1408h-384v-1152h-256z" />
<glyph unicode="&#x14b;" d="M128 -32v768v128h640v-128h128v-1024h-128v-128h-512v128h384v1024h-256v-768h-256z" />
<glyph unicode="&#x14c;" d="M128 96v1152h128v128h512v-128h128v-1152h-128v-128h-512v128h-128zM128 1504v128h768v-128h-768zM384 96h256v1152h-256v-1152z" />
<glyph unicode="&#x14d;" d="M128 96v640h128v128h512v-128h128v-640h-128v-128h-512v128h-128zM128 1120v128h768v-128h-768zM384 96h256v640h-256v-640z" />
<glyph unicode="&#x14e;" d="M128 96v1024h128v128h512v-128h128v-1024h-128v-128h-512v128h-128zM128 1504v128h256v-128h256v128h256v-128h-128v-128h-512v128h-128zM384 96h256v1024h-256v-1024z" />
<glyph unicode="&#x14f;" d="M128 96v640h128v128h512v-128h128v-640h-128v-128h-512v128h-128zM128 1248v128h256v-128h256v128h256v-128h-128v-128h-512v128h-128zM384 96h256v640h-256v-640z" />
<glyph unicode="&#x150;" d="M0 1376v128h128v128h256v-128h-128v-128h-256zM128 96v1024h128v128h512v-128h128v-1024h-128v-128h-512v128h-128zM384 96h256v1024h-256v-1024zM512 1376v128h128v128h256v-128h-128v-128h-256z" />
<glyph unicode="&#x151;" d="M0 1120v128h128v128h256v-128h-128v-128h-256zM128 96v640h128v128h512v-128h128v-640h-128v-128h-512v128h-128zM384 96h256v640h-256v-640zM512 1120v128h128v128h256v-128h-128v-128h-256z" />
<glyph unicode="&#x152;" d="M0 96v1152h128v128h768v-128h-128v-512h128v-128h-128v-512h128v-128h-768v128h-128zM256 96h256v512v640h-256v-1152z" />
<glyph unicode="&#x153;" d="M0 96v640h128v128h768v-128h128v-256v-128h-384v-256h-128v-128h-384v128h-128zM256 96h128v256v384h-128v-640zM640 -32v128h384v-128h-384zM640 480h128v256h-128v-256z" />
<glyph unicode="&#x154;" d="M128 -32v640v512v128h640v-128h128v-384h-128v-128v-128h128v-512h-256v512h-128v128h-128v-640h-256zM384 736h256v384h-256v-384zM384 1376v128h128v128h256v-128h-128v-128h-256z" />
<glyph unicode="&#x155;" d="M128 -32v768v128h640v-128h128v-256h-256v256h-256v-768h-256zM384 1120v128h128v128h256v-128h-128v-128h-256z" />
<glyph unicode="&#x156;" d="M128 -32v640v640v128h640v-128h128v-512h-128v-128v-128h128v-512h-256v512h-128v128h-128v-640h-256zM256 -288h128v128h256v-128h-128v-128h-256v128zM384 736h256v512h-256v-512z" />
<glyph unicode="&#x157;" d="M128 -32v512v384h256v-256h128v-128h-128v-512h-256zM128 -288h128v128h256v-128h-128v-128h-256v128zM512 608v128h128v128h256v-256h-384z" />
<glyph unicode="&#x158;" d="M128 -32v640v512v128h640v-128h128v-384h-128v-128v-128h128v-512h-256v512h-128v128h-128v-640h-256zM128 1504v128h256v-128h-256zM384 736h256v384h-256v-384zM384 1376v128h256v-128h-256zM640 1504v128h256v-128h-256z" />
<glyph unicode="&#x159;" d="M128 -32v768v128h640v-128h128v-256h-256v256h-256v-768h-256zM128 1376v128h256v-128h256v128h256v-128h-128v-128h-128v-128h-256v128h-128v128h-128z" />
<glyph unicode="&#x15a;" d="M128 96v256h256v-256h256v256v128h-128v128h-128v128h-128v128h-128v256h128v128h512v-128h128v-256h-256v256h-256v-256h128v-128h128v-128h128v-128h128v-128v-256h-128v-128h-512v128h-128zM384 1376v128h128v128h256v-128h-128v-128h-256z" />
<glyph unicode="&#x15b;" d="M128 -32v128h512v256h-384v128h-128v256h128v128h640v-128h-512v-256h384v-128h128v-256h-128v-128h-640zM384 1120v128h128v128h256v-128h-128v-128h-256z" />
<glyph unicode="&#x15c;" d="M128 96v256h256v-256h256v256v128h-128v128h-128v128h-128v128h-128v256h128v128h512v-128h128v-256h-256v256h-256v-256h128v-128h128v-128h128v-128h128v-128v-256h-128v-128h-512v128h-128zM128 1376v128h256v128h256v-128h256v-128h-256v128h-256v-128h-256z" />
<glyph unicode="&#x15d;" d="M128 -32v128h512v256h-384v128h-128v256h128v128h640v-128h-512v-256h384v-128h128v-256h-128v-128h-640zM128 1120v128h128v128h128v128h256v-128h128v-128h128v-128h-256v128h-256v-128h-256z" />
<glyph unicode="&#x15e;" d="M128 96v128h256v-128h256v128v128h-128v128h-128v128h-128v128h-128v512h128v128h512v-128h128v-384h-256v384h-256v-512h128v-128h128v-128h128v-128h128v-128v-128h-128v-128h-128v-128h128v-128h-128v-128h-384v128h256v128h-128v128h-128v128h-128z" />
<glyph unicode="&#x15f;" d="M128 -32v128h512v256h-384v128h-128v256h128v128h640v-128h-512v-256h384v-128h128v-256h-128v-128h-128v-128h128v-128h-128v-128h-384v128h256v128h-128v128h-256z" />
<glyph unicode="&#x160;" d="M128 96v256h256v-256h256v256v128h-128v128h-128v128h-128v128h-128v256h128v128h512v-128h128v-256h-256v256h-256v-256h128v-128h128v-128h128v-128h128v-128v-256h-128v-128h-512v128h-128zM128 1504v128h256v-128h-256zM384 1376v128h256v-128h-256zM640 1504v128 h256v-128h-256z" />
<glyph unicode="&#x161;" d="M128 -32v128h512v256h-384v128h-128v256h128v128h640v-128h-512v-256h384v-128h128v-256h-128v-128h-640zM128 1376v128h256v-128h256v128h256v-128h-128v-128h-128v-128h-256v128h-128v128h-128z" />
<glyph unicode="&#x162;" d="M128 1248v128h768v-128h-256v-1408h128v-128h-128v-128h-384v128h256v128h-128v1408h-256z" />
<glyph unicode="&#x163;" d="M128 864v128h128v384h256v-384h384v-128h-384v-768h384v-128h-256v-128h128v-128h-128v-128h-384v128h256v128h-128v128v128h-128v768h-128z" />
<glyph unicode="&#x164;" d="M128 1120v128h768v-128h-256v-1152h-256v1152h-256zM128 1504v128h256v-128h-256zM384 1376v128h256v-128h-256zM640 1504v128h256v-128h-256z" />
<glyph unicode="&#x165;" d="M0 864v128h128v384h256v-384h256v-128h-256v-768h256v-128h-384v128h-128v768h-128zM768 736v128h128v128h-128v256h256v-384h-128v-128h-128z" />
<glyph unicode="&#x166;" d="M128 1248v128h768v-128h-256v-512h128v-128h-128v-640h-256v640h-128v128h128v512h-256z" />
<glyph unicode="&#x167;" d="M128 608v128h128v128h-128v128h128v384h256v-384h384v-128h-384v-128h256v-128h-256v-512h384v-128h-512v128h-128v512h-128z" />
<glyph unicode="&#x168;" d="M0 1376v128h128v128h384v-128h128v128h256v-128h-128v-128h-384v128h-128v-128h-256zM128 96v1152h256v-1152h256v1152h256v-1152h-128v-128h-512v128h-128z" />
<glyph unicode="&#x169;" d="M0 1120v128h128v128h384v-128h128v128h256v-128h-128v-128h-384v128h-128v-128h-256zM128 96v768h256v-768h256v768h256v-768v-128h-640v128h-128z" />
<glyph unicode="&#x16a;" d="M128 96v1280h256v-1280h256v1280h256v-1280h-128v-128h-512v128h-128zM128 1504v128h768v-128h-768z" />
<glyph unicode="&#x16b;" d="M128 96v768h256v-768h256v768h256v-768v-128h-640v128h-128zM128 1120v128h768v-128h-768z" />
<glyph unicode="&#x16c;" d="M128 96v1152h256v-1152h256v1152h256v-1152h-128v-128h-512v128h-128zM128 1504v128h256v-128h256v128h256v-128h-128v-128h-512v128h-128z" />
<glyph unicode="&#x16d;" d="M128 96v768h256v-768h256v768h256v-768v-128h-640v128h-128zM128 1248v128h256v-128h256v128h256v-128h-128v-128h-512v128h-128z" />
<glyph unicode="&#x16e;" d="M128 96v1024h256v-1024h256v1024h256v-1024h-128v-128h-512v128h-128zM128 1376v128h128v128h512v-128h128v-128h-128v-128h-512v128h-128zM384 1376h256v128h-256v-128z" />
<glyph unicode="&#x16f;" d="M128 96v768h256v-768h256v768h256v-768v-128h-640v128h-128zM128 1120v128h128v128h512v-128h128v-128h-128v-128h-512v128h-128zM384 1120h256v128h-256v-128z" />
<glyph unicode="&#x170;" d="M0 1376v128h128v128h256v-128h-128v-128h-256zM128 96v1152h256v-1152h256v1152h256v-1152h-128v-128h-512v128h-128zM512 1376v128h128v128h256v-128h-128v-128h-256z" />
<glyph unicode="&#x171;" d="M0 1120v128h128v128h256v-128h-128v-128h-256zM128 96v768h256v-768h256v768h256v-768v-128h-640v128h-128zM512 1120v128h128v128h256v-128h-128v-128h-256z" />
<glyph unicode="&#x172;" d="M128 96v1280h256v-1280h256v1280h256v-1280h-128v-256h-128v-128h256v-128h-384v128h-128v128h128v128h-256v128h-128z" />
<glyph unicode="&#x173;" d="M128 96v768h256v-768h256v768h256v-768v-128h-128v-128h-128v-128h256v-128h-384v128h-128v128h128v128h-256v128h-128z" />
<glyph unicode="&#x174;" d="M0 -32v128v256v896h256v-768h128v256h128v-256h128v256v512h256v-512v-256v-128v-256v-128h-256v128h-128v256h-128v-256h-128v-128h-256zM128 1376v128h256v128h256v-128h256v-128h-256v128h-256v-128h-256z" />
<glyph unicode="&#x175;" d="M0 224v640h256v-640h128v384h128v-384h128v384v256h256v-256v-384h-128v-128v-128h-256v128h-128v-128h-256v128v128h-128zM128 1120v128h128v128h128v128h256v-128h128v-128h128v-128h-256v128h-256v-128h-256z" />
<glyph unicode="&#x176;" d="M128 736v512h256v-512h256v512h256v-512h-128v-128h-128v-640h-256v640h-128v128h-128zM128 1376v128h256v128h256v-128h256v-128h-256v128h-256v-128h-256z" />
<glyph unicode="&#x177;" d="M128 96v768h256v-768h256v768h256v-768v-384h-128v-128h-512v128h384v256h-384v128h-128zM128 1120v128h128v128h128v128h256v-128h128v-128h128v-128h-256v128h-256v-128h-256z" />
<glyph unicode="&#x178;" d="M128 736v512h256v-512h256v512h256v-512h-128v-128h-128v-640h-256v640h-128v128h-128zM128 1376v256h256v-256h-256zM640 1376v256h256v-256h-256z" />
<glyph unicode="&#x179;" d="M128 -32v512h128v128h128v128h128v128h128v256h-512v128h768v-384h-128v-128h-128v-128h-128v-128h-128v-384h512v-128h-768zM384 1376v128h128v128h256v-128h-128v-128h-256z" />
<glyph unicode="&#x17a;" d="M128 -32v256h128v128h128v128h128v128h128v128h-512v128h768v-256h-128v-128h-128v-128h-128v-128h-128v-128h512v-128h-768zM384 1120v128h128v128h256v-128h-128v-128h-256z" />
<glyph unicode="&#x17b;" d="M128 -32v512h128v128h128v128h128v128h128v256h-512v128h768v-384h-128v-128h-128v-128h-128v-128h-128v-384h512v-128h-768zM384 1376v256h256v-256h-256z" />
<glyph unicode="&#x17c;" d="M128 -32v256h128v128h128v128h128v128h128v128h-512v128h768v-256h-128v-128h-128v-128h-128v-128h-128v-128h512v-128h-768zM384 1120v256h256v-256h-256z" />
<glyph unicode="&#x17d;" d="M128 -32v512h128v128h128v128h128v128h128v256h-512v128h768v-384h-128v-128h-128v-128h-128v-128h-128v-384h512v-128h-768zM128 1504v128h256v-128h-256zM384 1376v128h256v-128h-256zM640 1504v128h256v-128h-256z" />
<glyph unicode="&#x17e;" d="M128 -32v256h128v128h128v128h128v128h128v128h-512v128h768v-256h-128v-128h-128v-128h-128v-128h-128v-128h512v-128h-768zM128 1376v128h256v-128h256v128h256v-128h-128v-128h-128v-128h-256v128h-128v128h-128z" />
<glyph unicode="&#x17f;" d="M128 -32v1280h128v128h512v-128h128v-128h-256v128h-256v-1280h-256z" />
<glyph unicode="&#x180;" d="M0 1120v128h128v128h256v-128h256v-128h-256v-256h384v-128h128v-640h-128v-128h-640v768v384h-128zM384 96h256v640h-256v-640z" />
<glyph unicode="&#x181;" d="M0 864v384h128v128h640v-128h128v-512h-128v-128h128v-512h-128v-128h-512v640v640h-128v-384h-128zM512 96h128v512h-128v-512zM512 736h128v512h-128v-512z" />
<glyph unicode="&#x182;" d="M128 -32v640v640v128h768v-128h-512v-512h384v-128h128v-512h-128v-128h-640zM384 96h256v512h-256v-512z" />
<glyph unicode="&#x183;" d="M128 -32v1024v256v128h640v-128h-384v-128h384v-128h128v-896h-128v-128h-640zM384 96h256v896h-256v-896z" />
<glyph unicode="&#x184;" d="M0 1120v128h128v128h256v-512h384v-128h128v-640h-128v-128h-640v768v384h-128zM384 96h256v640h-256v-640z" />
<glyph unicode="&#x185;" d="M0 1120v128h128v128h256v-512h384v-128h128v-640h-128v-128h-512v128h-128v640v384h-128zM384 96h256v640h-256v-640z" />
<glyph unicode="&#x186;" d="M128 96v256h256v-256h256v256v896h-256v-256h-256v256h128v128h512v-128h128v-896v-256h-128v-128h-512v128h-128z" />
<glyph unicode="&#x187;" d="M0 96v1152h128v128h384v128h128v128h256v-128h-128v-256v-256h-256v256h-256v-1152h256v256h256v-256h-128v-128h-512v128h-128z" />
<glyph unicode="&#x188;" d="M0 96v640h128v128h384v384h128v128h256v-128h-128v-512v-128h-256v128h-256v-640h256v128h256v-128h-128v-128h-512v128h-128z" />
<glyph unicode="&#x189;" d="M0 608v128h128v512v128h512v-128h128v-128h128v-512v-384h-128v-128h-128v-128h-512v640h-128zM384 96h128v128h128v384v512h-128v128h-128v-512h128v-128h-128v-512z" />
<glyph unicode="&#x18a;" d="M0 992v256h128v128h640v-128h128v-1152h-128v-128h-640v128h128v1152h-128v-256h-128zM512 96h128v1152h-128v-1152z" />
<glyph unicode="&#x18b;" d="M128 96v512h128v128h384v512h-384v128h640v-768v-512v-128h-640v128h-128zM384 96h256v512h-256v-512z" />
<glyph unicode="&#x18c;" d="M128 96v896h128v128h384v128h-384v128h640v-384v-896v-128h-640v128h-128zM384 96h256v896h-256v-896z" />
<glyph unicode="&#x18d;" d="M128 96v640h128v128h512v-128h128v-640h-128v-256h128v-128h-128v-128h-384v128h256v128h-128v128h-256v128h-128zM384 96h256v640h-256v-640z" />
<glyph unicode="&#x18e;" d="M128 -32v128h512v512h-384v128h384v512h-512v128h768v-1408h-768z" />
<glyph unicode="&#x18f;" d="M128 96v640v128h512v384h-256v-256h-256v256h128v128h512v-128h128v-512v-640h-128v-128h-512v128h-128zM384 96h256v640h-256v-640z" />
<glyph unicode="&#x190;" d="M128 96v512h128v128h-128v512h128v128h512v-128h128v-256h-256v256h-256v-512h256v-128h-256v-512h256v256h256v-256h-128v-128h-512v128h-128z" />
<glyph unicode="&#x191;" d="M0 -288h128v896v640v128h768v-128h-512v-512h384v-128h-384v-896h-128v-128h-256v128z" />
<glyph unicode="&#x192;" d="M0 -32v128h256v-128h128v128v512h-256v128h256v640h128v128h384v-128h128v-128h-256v128h-128v-640h256v-128h-256v-512v-128h-128v-128h-384v128h-128z" />
<glyph unicode="&#x193;" d="M0 96v1152h128v128h384v128h128v128h256v-128h-128v-256v-256h-256v256h-256v-1152h256v384h-128v128h384v-512v-128h-640v128h-128z" />
<glyph unicode="&#x194;" d="M0 352v1024h256v-1024h128v-256h128v256h128v1024h256v-1024h-128v-256h-128v-128h128v-128h-128v-128h-384v128h-128v128h128v128h-128v256h-128zM384 -32v-128h128v128h-128z" />
<glyph unicode="&#x195;" d="M0 -32v768v640h256v-512h256v-128h128v-640h128v640v128h256v-128v-640h-128v-128h-384v128h-128v640h-128v-768h-256z" />
<glyph unicode="&#x196;" d="M0 1248v128h768v-128h-256v-1152h384v-128h-512v128h-128v1152h-256z" />
<glyph unicode="&#x197;" d="M128 -32v128h256v512h-256v128h256v512h-256v128h768v-128h-256v-512h256v-128h-256v-512h256v-128h-768z" />
<glyph unicode="&#x198;" d="M0 -32v640v768h256v-640h128v512h128v128h384v-128v-256h-128v256h-128v-512h-128v-128h128v-256h128v-384h-256v384h-128v256h-128v-640h-256z" />
<glyph unicode="&#x199;" d="M128 -32v384v896h128v128h512v-128h-384v-768h128v128h128v256h256v-256h-128v-128h-128v-128h128v-128h128v-256h-256v256h-128v128h-128v-384h-256z" />
<glyph unicode="&#x19a;" d="M128 608v128h256v512h-256v128h512v-640h256v-128h-256v-512h256v-128h-512v640h-256z" />
<glyph unicode="&#x19b;" d="M0 -32v512h128v128h128v128h384v256h-128v-128h-256v128h128v256h-128v128h256v-128h128v128h256v-128h-128v-256h128v-384v-128v-512h-256v512v128h-256v-128h-128v-512h-256z" />
<glyph unicode="&#x19c;" d="M0 96v1280h256v-1280h128v1280h128v-1280h128v1280h256v-1280v-128h-768v128h-128z" />
<glyph unicode="&#x19d;" d="M0 -416v1024v768h256v-256h128v-256h128v-128h128v640h256v-640v-128v-640h-256v256h-128v256h-128v128h-128v-1024h-256z" />
<glyph unicode="&#x19e;" d="M128 -32v768v128h640v-128h128v-1152h-256v1152h-256v-768h-256z" />
<glyph unicode="&#x19f;" d="M128 96v512v640h128v128h512v-128h128v-512v-128v-512h-128v-128h-512v128h-128zM384 96h256v512h-256v-512zM384 736h256v512h-256v-512z" />
<glyph unicode="&#x1cd;" d="M128 -32v512v512h128v128h128v128h256v-128h128v-128h128v-384v-128v-512h-256v512h-256v-512h-256zM128 1504v128h256v-128h-256zM384 608h256v384h-256v-384zM384 1376v128h256v-128h-256zM640 1504v128h256v-128h-256z" />
<glyph unicode="&#x1ce;" d="M128 96v384h128v128h384v128h-384v128h512v-128h128v-256v-384v-128h-640v128h-128zM128 1376v128h256v-128h256v128h256v-128h-128v-128h-128v-128h-256v128h-128v128h-128zM384 96h256v384h-256v-384z" />
<glyph unicode="&#x1cf;" d="M128 -32v128h256v1024h-256v128h768v-128h-256v-1024h256v-128h-768zM128 1504v128h256v-128h-256zM384 1376v128h256v-128h-256zM640 1504v128h256v-128h-256z" />
<glyph unicode="&#x1d0;" d="M128 1376v128h256v-128h256v128h256v-128h-128v-128h-128v-128h-256v128h-128v128h-128zM256 -32v128h128v640h-128v128h384v-768h128v-128h-512z" />
<glyph unicode="&#x1d1;" d="M128 96v1024h128v128h512v-128h128v-1024h-128v-128h-512v128h-128zM128 1504v128h256v-128h-256zM384 96h256v1024h-256v-1024zM384 1376v128h256v-128h-256zM640 1504v128h256v-128h-256z" />
<glyph unicode="&#x1d2;" d="M128 96v640h128v128h512v-128h128v-640h-128v-128h-512v128h-128zM128 1376v128h256v-128h256v128h256v-128h-128v-128h-128v-128h-256v128h-128v128h-128zM384 96h256v640h-256v-640z" />
<glyph unicode="&#x1d3;" d="M128 96v1152h256v-1152h256v1152h256v-1152h-128v-128h-512v128h-128zM128 1504v128h256v-128h-256zM384 1376v128h256v-128h-256zM640 1504v128h256v-128h-256z" />
<glyph unicode="&#x1d4;" d="M128 96v768h256v-768h256v768h256v-768v-128h-640v128h-128zM128 1376v128h256v-128h256v128h256v-128h-128v-128h-128v-128h-256v128h-128v128h-128z" />
<glyph unicode="&#x1d5;" d="M128 96v1024h256v-1024h256v1024h256v-1024h-128v-128h-512v128h-128zM128 1248v128h256v-128h-256zM128 1504v128h768v-128h-768zM640 1248v128h256v-128h-256z" />
<glyph unicode="&#x1d6;" d="M128 96v768h256v-768h256v768h256v-768v-128h-640v128h-128zM128 1120v128h256v-128h-256zM128 1376v128h768v-128h-768zM640 1120v128h256v-128h-256z" />
<glyph unicode="&#x1d7;" d="M0 1248v128h256v-128h-256zM128 96v1024h256v-1024h256v1024h256v-1024h-128v-128h-512v128h-128zM384 1376v128h128v128h256v-128h-128v-128h-256zM768 1248v128h256v-128h-256z" />
<glyph unicode="&#x1d8;" d="M128 96v768h256v-768h256v768h256v-768v-128h-640v128h-128zM128 1120v128h256v-128h-256zM384 1376v128h128v128h256v-128h-128v-128h-256zM640 1120v128h256v-128h-256z" />
<glyph unicode="&#x1d9;" d="M0 1248v128h256v128h-128v128h256v-128h256v128h256v-128h-128v-128h256v-128h-256v128h-128v-128h-256v128h-128v-128h-256zM128 96v1024h256v-1024h256v1024h256v-1024h-128v-128h-512v128h-128z" />
<glyph unicode="&#x1da;" d="M0 1120v128h256v-128h-256zM128 96v768h256v-768h256v768h256v-768v-128h-640v128h-128zM128 1504v128h256v-128h256v128h256v-128h-128v-128h-128v-128h-256v128h-128v128h-128zM768 1120v128h256v-128h-256z" />
<glyph unicode="&#x1db;" d="M0 1248v128h256v-128h-256zM128 96v1024h256v-1024h256v1024h256v-1024h-128v-128h-512v128h-128zM256 1504v128h256v-128h128v-128h-256v128h-128zM768 1248v128h256v-128h-256z" />
<glyph unicode="&#x1dc;" d="M128 96v768h256v-768h256v768h256v-768v-128h-640v128h-128zM128 1120v128h256v-128h-256zM256 1504v128h256v-128h128v-128h-256v128h-128zM640 1120v128h256v-128h-256z" />
<glyph unicode="&#x1dd;" d="M128 96v256v128h512v256h-384v128h512v-128h128v-384v-256h-128v-128h-512v128h-128zM384 96h256v256h-256v-256z" />
<glyph unicode="&#x1de;" d="M128 -32v512v384h128v128h128v128h256v-128h128v-128h128v-256v-128v-512h-256v512h-256v-512h-256zM128 1248v128h256v-128h-256zM128 1504v128h768v-128h-768zM384 608h256v256h-256v-256zM640 1248v128h256v-128h-256z" />
<glyph unicode="&#x1df;" d="M128 96v384h128v128h384v128h-384v128h512v-128h128v-256v-384v-128h-640v128h-128zM128 1120v128h256v-128h-256zM128 1376v128h768v-128h-768zM384 96h256v384h-256v-384zM640 1120v128h256v-128h-256z" />
<glyph unicode="&#x1e0;" d="M128 -32v512v384h128v128h128v128h256v-128h128v-128h128v-256v-128v-512h-256v512h-256v-512h-256zM128 1248v128h256v-128h-256zM128 1504v128h768v-128h-768zM384 608h256v256h-256v-256zM640 1248v128h256v-128h-256z" />
<glyph unicode="&#x1e1;" d="M128 96v384h128v128h384v128h-384v128h512v-128h128v-256v-384v-128h-640v128h-128zM128 1120v128h256v-128h-256zM128 1376v128h768v-128h-768zM384 96h256v384h-256v-384zM640 1120v128h256v-128h-256z" />
<glyph unicode="&#x1e2;" d="M0 -32v640v384v128h128v128h128v128h768v-128h-256v-256v-256h128v-128h-128v-512h256v-128h-512v640h-256v-640h-256zM128 1504v128h768v-128h-768zM256 736h256v256h-256v-256z" />
<glyph unicode="&#x1e3;" d="M0 96v256h128v128h256v256h-256v128h768v-128h128v-256v-128h-384v-256h-128v-128h-384v128h-128zM128 1120v128h768v-128h-768zM256 96h128v256h-128v-256zM640 -32v128h384v-128h-384zM640 480h128v256h-128v-256z" />
<glyph unicode="&#x1e6;" d="M128 96v1024h128v128h512v-128h128v-256h-256v256h-256v-1024h256v384h-128v128h384v-512v-128h-640v128h-128zM128 1504v128h256v-128h-256zM384 1376v128h256v-128h-256zM640 1504v128h256v-128h-256z" />
<glyph unicode="&#x1e7;" d="M128 96v640h128v128h640v-128v-640v-384h-128v-128h-640v128h512v256h-384v128h-128zM128 1376v128h256v-128h256v128h256v-128h-128v-128h-128v-128h-256v128h-128v128h-128zM384 96h256v640h-256v-640z" />
<glyph unicode="&#x1e8;" d="M0 -32v640v640h256v-512h128v128h128v128h128v256h256v-256h-128v-128h-128v-128h-128v-128h128v-128h128v-256h128v-256h-256v256h-128v256h-128v128h-128v-640h-256zM128 1504v128h256v-128h-256zM384 1376v128h256v-128h-256zM640 1504v128h256v-128h-256z" />
<glyph unicode="&#x1f0;" d="M128 -288h384v1152h256v-1152h-128v-128h-512v128zM128 1376v128h256v-128h256v128h256v-128h-128v-128h-128v-128h-256v128h-128v128h-128z" />
<glyph unicode="&#x1f4;" d="M128 96v1024h128v128h512v-128h128v-256h-256v256h-256v-1024h256v384h-128v128h384v-512v-128h-640v128h-128zM384 1376v128h128v128h256v-128h-128v-128h-256z" />
<glyph unicode="&#x1f5;" d="M128 96v640h128v128h640v-128v-640v-384h-128v-128h-640v128h512v256h-384v128h-128zM384 96h256v640h-256v-640zM384 1120v128h128v128h256v-128h-128v-128h-256z" />
<glyph unicode="&#x1f8;" d="M0 -32v768v512h256v-256h128v-128h128v-128h128v512h256v-512v-768h-256v512h-128v128h-128v128h-128v-768h-256zM256 1504v128h256v-128h128v-128h-256v128h-128z" />
<glyph unicode="&#x1f9;" d="M128 -32v768v128h640v-128h128v-768h-256v768h-256v-768h-256zM256 1248v128h256v-128h128v-128h-256v128h-128z" />
<glyph unicode="&#x1fa;" d="M0 1376v128h128v128h384v-128h128v-128h128v128h256v-128h-128v-128h-256v128h-128v-128h-384v128h-128zM128 -32v512v384h128v128h128v128h256v-128h128v-128h128v-256v-128v-512h-256v512h-256v-512h-256zM256 1376h128v128h-128v-128zM384 608h256v256h-256v-256z" />
<glyph unicode="&#x1fb;" d="M0 1120v128h128v128h384v-128h128v-128h128v128h256v-128h-128v-128h-256v128h-128v-128h-384v128h-128zM128 96v384h128v128h384v128h-384v128h512v-128h128v-256v-384v-128h-640v128h-128zM256 1120h128v128h-128v-128zM384 96h256v384h-256v-384z" />
<glyph unicode="&#x1fc;" d="M0 -32v512v384v128h128v128h128v128h768v-128h-256v-256v-256h128v-128h-128v-384h256v-128h-512v512h-256v-512h-256zM256 608h256v256h-256v-256zM384 1376v128h128v128h256v-128h-128v-128h-256z" />
<glyph unicode="&#x1fd;" d="M0 96v256h128v128h256v256h-256v128h768v-128h128v-256v-128h-384v-256h-128v-128h-384v128h-128zM256 96h128v256h-128v-256zM384 1120v128h128v128h256v-128h-128v-128h-256zM640 -32v128h384v-128h-384zM640 480h128v256h-128v-256z" />
<glyph unicode="&#x1fe;" d="M128 -32v256v896h128v128h640v-128v-896v-128h-128v-128h-640zM384 96h256v128v384h-128v384h128v128h-256v-512h128v-384h-128v-128zM384 1376v128h128v128h256v-128h-128v-128h-256z" />
<glyph unicode="&#x1ff;" d="M0 -32v128h128v128v128v384h128v128h512v-128h128v128h128v-128h-128v-256v-128v-128v-128h-128v-128h-512v128h-128v-128h-128zM384 96h256v128v128h-128v-128h-128v-128zM384 480h128v128h128v128h-256v-256zM384 1120v128h128v128h256v-128h-128v-128h-256z" />
<glyph unicode="&#x200;" d="M0 1504v128h256v-128h128v-128h-256v128h-128zM128 -32v512v512h128v128h128v128h256v-128h128v-128h128v-384v-128v-512h-256v512h-256v-512h-256zM384 608h256v384h-256v-384zM512 1504v128h256v-128h128v-128h-256v128h-128z" />
<glyph unicode="&#x201;" d="M0 1248v128h256v-128h128v-128h-256v128h-128zM128 96v384h128v128h384v128h-384v128h512v-128h128v-256v-384v-128h-640v128h-128zM384 96h256v384h-256v-384zM512 1248v128h256v-128h128v-128h-256v128h-128z" />
<glyph unicode="&#x202;" d="M128 -32v512v512h128v128h128v128h256v-128h128v-128h128v-384v-128v-512h-256v512h-256v-512h-256zM128 1376v128h128v128h512v-128h128v-128h-256v128h-256v-128h-256zM384 608h256v384h-256v-384z" />
<glyph unicode="&#x203;" d="M128 96v384h128v128h384v128h-384v128h512v-128h128v-256v-384v-128h-640v128h-128zM128 -288h128v128h512v-128h128v-128h-256v128h-256v-128h-256v128zM384 96h256v384h-256v-384z" />
<glyph unicode="&#x204;" d="M0 1504v128h256v-128h128v-128h-256v128h-128zM128 -32v640v512v128h768v-128h-512v-384h384v-128h-384v-512h512v-128h-768zM512 1504v128h256v-128h128v-128h-256v128h-128z" />
<glyph unicode="&#x205;" d="M0 1248v128h256v-128h128v-128h-256v128h-128zM128 96v256v384h128v128h512v-128h128v-256v-128h-512v-256h384v-128h-512v128h-128zM384 480h256v256h-256v-256zM512 1248v128h256v-128h128v-128h-256v128h-128z" />
<glyph unicode="&#x206;" d="M128 -32v640v512v128h768v-128h-512v-384h384v-128h-384v-512h512v-128h-768zM128 1376v128h128v128h512v-128h128v-128h-256v128h-256v-128h-256z" />
<glyph unicode="&#x207;" d="M128 96v256v384h128v128h512v-128h128v-256v-128h-512v-256h384v-128h-512v128h-128zM128 -288h128v128h512v-128h128v-128h-256v128h-256v-128h-256v128zM384 480h256v256h-256v-256z" />
<glyph unicode="&#x208;" d="M0 1504v128h256v-128h128v-128h-256v128h-128zM128 -32v128h256v1024h-256v128h768v-128h-256v-1024h256v-128h-768zM512 1504v128h256v-128h128v-128h-256v128h-128z" />
<glyph unicode="&#x209;" d="M0 1248v128h256v-128h128v-128h-256v128h-128zM256 -32v128h128v640h-128v128h384v-768h128v-128h-512zM512 1248v128h256v-128h128v-128h-256v128h-128z" />
<glyph unicode="&#x20a;" d="M128 -32v128h256v1024h-256v128h768v-128h-256v-1024h256v-128h-768zM128 1376v128h128v128h512v-128h128v-128h-256v128h-256v-128h-256z" />
<glyph unicode="&#x20b;" d="M128 -288h128v128h512v-128h128v-128h-256v128h-256v-128h-256v128zM256 -32v128h128v640h-128v128h384v-768h128v-128h-512z" />
<glyph unicode="&#x20c;" d="M0 1504v128h256v-128h128v-128h-256v128h-128zM128 96v1024h128v128h512v-128h128v-1024h-128v-128h-512v128h-128zM384 96h256v1024h-256v-1024zM512 1504v128h256v-128h128v-128h-256v128h-128z" />
<glyph unicode="&#x20d;" d="M0 1248v128h256v-128h128v-128h-256v128h-128zM128 96v640h128v128h512v-128h128v-640h-128v-128h-512v128h-128zM384 96h256v640h-256v-640zM512 1248v128h256v-128h128v-128h-256v128h-128z" />
<glyph unicode="&#x20e;" d="M128 96v1024h128v128h512v-128h128v-1024h-128v-128h-512v128h-128zM128 1376v128h128v128h512v-128h128v-128h-256v128h-256v-128h-256zM384 96h256v1024h-256v-1024z" />
<glyph unicode="&#x20f;" d="M128 96v640h128v128h512v-128h128v-640h-128v-128h-512v128h-128zM128 -288h128v128h512v-128h128v-128h-256v128h-256v-128h-256v128zM384 96h256v640h-256v-640z" />
<glyph unicode="&#x210;" d="M0 1504v128h256v-128h128v-128h-256v128h-128zM128 -32v640v512v128h640v-128h128v-384h-128v-128v-128h128v-512h-256v512h-128v128h-128v-640h-256zM384 736h256v384h-256v-384zM512 1504v128h256v-128h128v-128h-256v128h-128z" />
<glyph unicode="&#x211;" d="M0 1248v128h256v-128h128v-128h-256v128h-128zM128 -32v768v128h640v-128h128v-256h-256v256h-256v-768h-256zM512 1248v128h256v-128h128v-128h-256v128h-128z" />
<glyph unicode="&#x212;" d="M128 -32v640v512v128h640v-128h128v-384h-128v-128v-128h128v-512h-256v512h-128v128h-128v-640h-256zM128 1376v128h128v128h512v-128h128v-128h-256v128h-256v-128h-256zM384 736h256v384h-256v-384z" />
<glyph unicode="&#x213;" d="M128 -32v768v128h640v-128h128v-256h-256v256h-256v-768h-256zM128 -288h128v128h512v-128h128v-128h-256v128h-256v-128h-256v128z" />
<glyph unicode="&#x214;" d="M0 1504v128h256v-128h128v-128h-256v128h-128zM128 96v1152h256v-1152h256v1152h256v-1152h-128v-128h-512v128h-128zM512 1504v128h256v-128h128v-128h-256v128h-128z" />
<glyph unicode="&#x215;" d="M0 1248v128h256v-128h128v-128h-256v128h-128zM128 96v768h256v-768h256v768h256v-768v-128h-640v128h-128zM512 1248v128h256v-128h128v-128h-256v128h-128z" />
<glyph unicode="&#x216;" d="M128 96v1152h256v-1152h256v1152h256v-1152h-128v-128h-512v128h-128zM128 1376v128h128v128h512v-128h128v-128h-256v128h-256v-128h-256z" />
<glyph unicode="&#x217;" d="M128 96v768h256v-768h256v768h256v-768v-128h-640v128h-128zM128 -288h128v128h512v-128h128v-128h-256v128h-256v-128h-256v128z" />
<glyph unicode="&#x218;" d="M128 96v256h256v-256h256v256v128h-128v128h-128v128h-128v128h-128v384h128v128h512v-128h128v-256h-256v256h-256v-384h128v-128h128v-128h128v-128h128v-128v-256h-128v-128h-512v128h-128zM256 -288h128v128h256v-128h-128v-128h-256v128z" />
<glyph unicode="&#x219;" d="M128 -32v128h512v256h-384v128h-128v256h128v128h640v-128h-512v-256h384v-128h128v-256h-128v-128h-640zM256 -288h128v128h256v-128h-128v-128h-256v128z" />
<glyph unicode="&#x21a;" d="M128 1248v128h768v-128h-256v-1280h-256v1280h-256zM256 -288h128v128h256v-128h-128v-128h-256v128z" />
<glyph unicode="&#x21b;" d="M128 736v128h128v384h256v-384h384v-128h-384v-640h384v-128h-512v128h-128v640h-128zM256 -288h128v128h256v-128h-128v-128h-256v128z" />
<glyph unicode="&#x226;" d="M128 -32v512v512h128v128h128v128h256v-128h128v-128h128v-384v-128v-512h-256v512h-256v-512h-256zM384 608h256v384h-256v-384zM384 1376v256h256v-256h-256z" />
<glyph unicode="&#x227;" d="M128 96v384h128v128h384v128h-384v128h512v-128h128v-256v-384v-128h-640v128h-128zM384 96h256v384h-256v-384zM384 1120v256h256v-256h-256z" />
<glyph unicode="&#x22a;" d="M128 96v896h128v128h512v-128h128v-896h-128v-128h-512v128h-128zM128 1248v128h256v-128h-256zM128 1504v128h768v-128h-768zM384 96h256v896h-256v-896zM640 1248v128h256v-128h-256z" />
<glyph unicode="&#x22b;" d="M128 96v640h128v128h512v-128h128v-640h-128v-128h-512v128h-128zM128 1120v128h256v-128h-256zM128 1376v128h768v-128h-768zM384 96h256v640h-256v-640zM640 1120v128h256v-128h-256z" />
<glyph unicode="&#x22c;" d="M0 1120v128h128v128h384v-128h128v128h256v-128h-128v-128v-128h128v-896h-128v-128h-512v128h-128v896h128v128h-256zM0 1504v128h896v-128h-896zM256 1120h128v128h-128v-128zM384 96h256v896h-256v-896z" />
<glyph unicode="&#x22d;" d="M0 1120v128h128v128h384v-128h128v128h256v-128h-128v-128h-384v128h-128v-128h-256zM0 1504v128h896v-128h-896zM128 96v640h128v128h512v-128h128v-640h-128v-128h-512v128h-128zM384 96h256v640h-256v-640z" />
<glyph unicode="&#x22e;" d="M128 96v1024h128v128h512v-128h128v-1024h-128v-128h-512v128h-128zM384 96h256v1024h-256v-1024zM384 1376v256h256v-256h-256z" />
<glyph unicode="&#x22f;" d="M128 96v640h128v128h512v-128h128v-640h-128v-128h-512v128h-128zM384 96h256v640h-256v-640zM384 1120v256h256v-256h-256z" />
<glyph unicode="&#x230;" d="M128 96v896h128v128h512v-128h128v-896h-128v-128h-512v128h-128zM128 1248v128h256v-128h-256zM128 1504v128h768v-128h-768zM384 96h256v896h-256v-896zM640 1248v128h256v-128h-256z" />
<glyph unicode="&#x231;" d="M128 96v640h128v128h512v-128h128v-640h-128v-128h-512v128h-128zM128 1120v128h256v-128h-256zM128 1376v128h768v-128h-768zM384 96h256v640h-256v-640zM640 1120v128h256v-128h-256z" />
<glyph unicode="&#x232;" d="M0 1120v256h256v-256h128v-256h256v256h128v256h256v-256h-128v-256h-128v-128h-128v-768h-256v768h-128v128h-128v256h-128zM128 1504v128h768v-128h-768z" />
<glyph unicode="&#x233;" d="M128 96v768h256v-768h256v768h256v-768v-384h-128v-128h-512v128h384v256h-384v128h-128zM128 1120v128h768v-128h-768z" />
<glyph unicode="&#x258;" d="M128 352v384h128v128h512v-128h128v-256v-384h-128v-128h-512v128h384v256h-512zM384 480h256v256h-256v-256z" />
<glyph unicode="&#x259;" d="M128 96v256v128h512v256h-384v128h512v-128h128v-384v-256h-128v-128h-512v128h-128zM384 96h256v256h-256v-256z" />
<glyph unicode="&#x25b;" d="M128 96v256h128v128h-128v256h128v128h512v-128h128v-128h-256v128h-256v-256h256v-128h-256v-256h256v128h256v-128h-128v-128h-512v128h-128z" />
<glyph unicode="&#x25c;" d="M128 96v128h256v-128h256v128v128h-256v128h256v256h-256v-128h-256v128h128v128h512v-128h128v-256h-128v-128h128v-128v-128h-128v-128h-512v128h-128z" />
<glyph unicode="&#x263;" d="M0 352v512h256v-512h128v-256h128v256h128v512h256v-512h-128v-256h-128v-128h128v-128h-128v-128h-384v128h-128v128h128v128h-128v256h-128zM384 -32v-128h128v128h-128z" />
<glyph unicode="&#x26a;" d="M128 -32v128h256v640h-256v128h768v-128h-256v-640h256v-128h-768z" />
<glyph unicode="&#x28a;" d="M0 96v512h128v128h-128v128h384v-128h-128v-640h384v640h-128v128h384v-128h-128v-128h128v-512h-128v-128h-640v128h-128z" />
<glyph unicode="&#x28b;" d="M128 96v768h256v-768h256v640h-128v128h256v-128h128v-640h-128v-128h-512v128h-128z" />
<glyph unicode="&#x28c;" d="M128 -32v640h128v128h128v128h256v-128h128v-128h128v-640h-256v640h-256v-640h-256z" />
<glyph unicode="&#x28d;" d="M0 -32v768h128v128h256v-128h-128v-768h-256zM384 96v640h128v128h256v-128h128v-768h-256v768h-128v-640h-128z" />
<glyph unicode="&#x28e;" d="M0 -32v768h128v256h128v256h128v128h512v-128h-384v-256h-128v-128h256v-128h128v-768h-256v768h-256v-768h-256z" />
<glyph unicode="&#x28f;" d="M128 480v384h256v-384h256v384h256v-384h-128v-128h-128v-384h-256v384h-128v128h-128z" />
<glyph unicode="&#x290;" d="M0 -32v256h128v128h128v128h128v128h128v128h-512v128h768v-256h-128v-128h-128v-128h-128v-128h-128v-128h512v-384h128v-128h-256v128h-128v256h-512z" />
<glyph unicode="&#x291;" d="M0 -32v256h128v128h128v128h128v128h128v128h-512v128h768v-256h-128v-128h128v-128h128v-128v-128h-128v128v128h-128v-128v-128h128v-128h-128v-256h-128v256h-512zM256 96h256v128v128h128v128h-128v-128h-128v-128h-128v-128z" />
<glyph unicode="&#x292;" d="M128 -160h256v-128h256v128v384h-384v128h128v128h128v128h128v128h-512v128h768v-256h-128v-128h-128v-128h128v-128h128v-384v-128h-128v-128h-512v128h-128v128z" />
<glyph unicode="&#x293;" d="M0 -32h128v128h384v128h-384v128h128v128h128v128h128v128h-512v128h768v-256h-128v-128h-128v-128h128v-128h128v-256h128v-128h-128v-128h-128v-128h-512v128h-128v256zM256 -32v-256h256v128v128h-256z" />
<glyph unicode="&#x294;" d="M128 1120v256h128v128h512v-128h128v-512h-128v-128h-128v-768h-256v768v128h256v512h-256v-256h-256z" />
<glyph unicode="&#x295;" d="M128 736v512h128v128h512v-128h128v-384h-256v384h-256v-512h128v-128h128v-640h-256v640h-128v128h-128z" />
<glyph unicode="&#x296;" d="M128 96v384h256v-384h256v384v128h-128v128h-128v640h256v-640h128v-128h128v-128v-384h-128v-128h-512v128h-128z" />
<glyph unicode="&#x2c6;" d="M128 1376v128h256v128h256v-128h256v-128h-256v128h-256v-128h-256z" />
<glyph unicode="&#x2c9;" d="M256 1504v128h512v-128h-512z" />
<glyph unicode="&#x2cd;" d="M256 -288h512v-128h-512v128z" />
<glyph unicode="&#x2dc;" d="M0 1120v128h128v128h384v-128h128v128h256v-128h-128v-128h-384v128h-128v-128h-256zM0 1504v128h896v-128h-896z" />
<glyph unicode="&#x300;" d="M256 1504v128h256v-128h128v-128h-256v128h-128z" />
<glyph unicode="&#x301;" d="M384 1376v128h128v128h256v-128h-128v-128h-256z" />
<glyph unicode="&#x302;" d="M128 1376v128h256v128h256v-128h256v-128h-256v128h-256v-128h-256z" />
<glyph unicode="&#x303;" d="M0 1376v128h128v128h384v-128h128v128h256v-128h-128v-128h-384v128h-128v-128h-256z" />
<glyph unicode="&#x304;" d="M128 1504v128h768v-128h-768z" />
<glyph unicode="&#x305;" d="M0 1504v128h1024v-128h-1024z" />
<glyph unicode="&#x306;" d="M128 1504v128h256v-128h256v128h256v-128h-128v-128h-512v128h-128z" />
<glyph unicode="&#x307;" d="M384 1376v256h256v-256h-256z" />
<glyph unicode="&#x308;" d="M128 1376v256h256v-256h-256zM640 1376v256h256v-256h-256z" />
<glyph unicode="&#x309;" d="M256 1504v128h384v-128h128v-128h-128v-128h-256v128h128v128h-256z" />
<glyph unicode="&#x30a;" d="M128 1376v128h128v128h512v-128h128v-128h-128v-128h-512v128h-128zM384 1376h256v128h-256v-128z" />
<glyph unicode="&#x30b;" d="M0 1376v128h128v128h256v-128h-128v-128h-256zM512 1376v128h128v128h256v-128h-128v-128h-256z" />
<glyph unicode="&#x30c;" d="M128 1504v128h256v-128h-256zM384 1376v128h256v-128h-256zM640 1504v128h256v-128h-256z" />
<glyph unicode="&#x30d;" d="M128 1248v384h256v-384h-256zM640 1248v384h256v-384h-256z" />
<glyph unicode="&#x30f;" d="M0 1504v128h256v-128h128v-128h-256v128h-128zM512 1504v128h256v-128h128v-128h-256v128h-128z" />
<glyph unicode="&#x310;" d="M128 1504v128h128v-128h-128zM256 1376v128h128v-128h256v-128h-256v128h-128zM384 1504v128h256v-128h-256zM640 1376v128h128v-128h-128zM768 1504v128h128v-128h-128z" />
<glyph unicode="&#x311;" d="M128 1376v128h128v128h512v-128h128v-128h-256v128h-256v-128h-256z" />
<glyph unicode="&#x313;" d="M256 1248v128h128v256h256v-256h-128v-128h-256z" />
<glyph unicode="&#x314;" d="M256 1376v256h256v-256h128v-128h-256v128h-128z" />
<glyph unicode="&#x315;" d="M640 1248v128h128v256h256v-256h-128v-128h-256z" />
<glyph unicode="&#x316;" d="M384 -160h256v-128h128v-128h-256v128h-128v128z" />
<glyph unicode="&#x317;" d="M256 -288h128v128h256v-128h-128v-128h-256v128z" />
<glyph unicode="&#x318;" d="M256 -32h128v-128h384v-128h-384v-128h-128v128v256z" />
<glyph unicode="&#x31b;" d="M640 1376v128h128v128h256v-128h-128v-128h-256z" />
<glyph unicode="&#x31c;" d="M256 -160h128v128h256v-128h-256v-128h-128v128zM384 -288h256v-128h-256v128z" />
<glyph unicode="&#x31f;" d="M128 -160h256v128h128v-128h256v-128h-256v-128h-128v128h-256v128z" />
<glyph unicode="&#x320;" d="M256 -160h512v-128v-128h-128v128h-256v-128h-128v128v128z" />
<glyph unicode="&#x321;" d="M256 -288h384v384h256v-384h-128v-128h-512v128z" />
<glyph unicode="&#x322;" d="M512 96h256v-384h256v-128h-384v128h-128v384z" />
<glyph unicode="&#x323;" d="M384 -160h256v-256h-256v256z" />
<glyph unicode="&#x324;" d="M128 -160h256v-256h-256v256zM640 -160h256v-256h-256v256z" />
<glyph unicode="&#x325;" d="M256 -160h128v128h256v-128h128v-128h-128v128h-256v-128h-128v128zM384 -288h256v-128h-256v128z" />
<glyph unicode="&#x326;" d="M256 -288h128v128h256v-128h-128v-128h-256v128z" />
<glyph unicode="&#x327;" d="M384 -288h256v128h-128v128h256v-128h128v-128h-128v-128h-384v128z" />
<glyph unicode="&#x328;" d="M384 -160h128v128h256v-128h-128v-128h256v-128h-384v128h-128v128z" />
<glyph unicode="&#x329;" d="M384 -32h256v-384h-256v384z" />
<glyph unicode="&#x32b;" d="M0 -160h128v-128h-128v128zM128 -288h256v-128h-256v128zM384 -160h128v-128h-128v128zM512 -288h256v-128h-256v128zM768 -160h128v-128h-128v128z" />
<glyph unicode="&#x32c;" d="M128 -160h256v-128h-256v128zM384 -288h256v-128h-256v128zM640 -160h256v-128h-256v128z" />
<glyph unicode="&#x32e;" d="M128 -160h256v-128h256v128h256v-128h-128v-128h-512v128h-128v128z" />
<glyph unicode="&#x330;" d="M0 480v128h128v128h384v-128h128v128h256v-128h-128v-128h-384v128h-128v-128h-256z" />
<glyph unicode="&#x332;" d="M0 -288h1024v-128h-1024v128z" />
<glyph unicode="&#x333;" d="M0 -32h1024v-128h-1024v128zM0 -288h1024v-128h-1024v128z" />
<glyph unicode="&#x335;" d="M128 608v128h768v-128h-768z" />
<glyph unicode="&#x336;" d="M0 608v128h1024v-128h-1024z" />
<glyph unicode="&#x337;" d="M128 -32v256h128v256h128v256h128v256h128v256h256v-256h-128v-256h-128v-256h-128v-256h-128v-256h-256z" />
<glyph unicode="&#x338;" d="M0 96h128v256h128v256h128v256h128v256h128v256h128v256h256v-256h-128v-256h-128v-256h-128v-256h-128v-256h-128v-256h-128v-256h-128v-256h-128v256v256z" />
<glyph unicode="&#x339;" d="M384 -32h256v-128h-256v128zM384 -288h256v-128h-256v128zM640 -160h128v-128h-128v128z" />
<glyph unicode="&#x33a;" d="M256 -160h128v-128h256v128h128v-128v-128h-512v256z" />
<glyph unicode="&#x33b;" d="M256 -32h512v-128v-128v-128h-512v256v128zM384 -160v-128h256v128h-256z" />
<glyph unicode="&#x33c;" d="M0 -288h128v128h256v-128h-256v-128h-128v128zM384 -288h128v128h256v-128h128v-128h-128v128h-256v-128h-128v128z" />
<glyph unicode="&#x33d;" d="M128 1248v128h128v128h-128v128h256v-128h128v128h256v-128h-128v-128h128v-128h-256v128h-128v-128h-256z" />
<glyph unicode="&#x33e;" d="M0 1248v128h1024v-128h-1024zM0 1504v128h1024v-128h-1024z" />
<glyph unicode="&#x340;" d="M256 1504v128h256v-128h128v-128h-256v128h-128z" />
<glyph unicode="&#x341;" d="M384 1376v128h128v128h256v-128h-128v-128h-256z" />
<glyph unicode="&#x342;" d="M0 1376v128h128v128h384v-128h128v128h256v-128h-128v-128h-384v128h-128v-128h-256z" />
<glyph unicode="&#x343;" d="M256 1248v256h128v128h256v-128h-128v-256h-256z" />
<glyph unicode="&#x344;" d="M0 1248v128h256v-128h-256zM384 1376v128h128v128h256v-128h-128v-128h-256zM768 1248v128h256v-128h-256z" />
<glyph unicode="&#x34f;" d="M0 1632z" />
<glyph unicode="&#x362;" d="M256 -160h512v128h128v-128h128v-128h-128v-128h-128v128h-512v128z" />
<glyph unicode="&#x391;" d="M128 -32v640v512h128v128h128v128h256v-128h128v-128h128v-384v-128v-640h-256v640h-256v-640h-256zM384 736h256v384h-256v-384z" />
<glyph unicode="&#x392;" d="M128 -32v640v640v128h640v-128h128v-384h-128v-128h-128v-128h128v-128h128v-384h-128v-128h-640zM384 96h256v384h-128v128h-128v-512zM384 736h128v128h128v384h-256v-512z" />
<glyph unicode="&#x393;" d="M128 -32v1280v128h768v-128h-512v-1280h-256z" />
<glyph unicode="&#x394;" d="M0 -32v1024h128v128h128v128h128v128h128v-128h128v-128h128v-128h128v-896v-128h-896zM256 96h384v896h-128v128h-128v-128h-128v-896z" />
<glyph unicode="&#x395;" d="M128 -32v640v640v128h768v-128h-512v-512h384v-128h-384v-512h512v-128h-768z" />
<glyph unicode="&#x396;" d="M128 -32v384h128v256h128v128h128v256h128v256h-512v128h768v-384h-128v-256h-128v-128h-128v-256h-128v-256h512v-128h-768z" />
<glyph unicode="&#x397;" d="M128 -32v640v768h256v-640h256v640h256v-640v-128v-640h-256v640h-256v-640h-256z" />
<glyph unicode="&#x398;" d="M0 96v512v640h128v128h640v-128h128v-512v-128v-512h-128v-128h-640v128h-128zM256 96h384v512h-384v-512zM256 736h384v512h-384v-512z" />
<glyph unicode="&#x399;" d="M128 -32v128h256v1152h-256v128h768v-128h-256v-1152h256v-128h-768z" />
<glyph unicode="&#x39a;" d="M0 -32v640v768h256v-640h128v128h128v256h128v256h256v-256h-128v-256h-128v-128h-128v-128h128v-128h128v-256h128v-256h-256v256h-128v256h-128v128h-128v-640h-256z" />
<glyph unicode="&#x39b;" d="M0 -32v1024h128v128h128v128h128v128h128v-128h128v-128h128v-128h128v-1024h-256v1024h-128v128h-128v-128h-128v-1024h-256z" />
<glyph unicode="&#x39c;" d="M0 -32v896v512h256v-128h128v-256h128v256h128v128h256v-384v-128v-896h-256v896h-128v-256h-128v256h-128v-896h-256z" />
<glyph unicode="&#x39d;" d="M0 -32v640v768h256v-256h128v-256h128v-128h128v640h256v-640v-128v-640h-256v256h-128v256h-128v128h-128v-640h-256z" />
<glyph unicode="&#x39e;" d="M0 -32v256h256v-128h384v128h256v-128v-128h-896zM0 1120v128v128h896v-128v-128h-256v128h-384v-128h-256zM128 608v128h640v-128h-640z" />
<glyph unicode="&#x39f;" d="M128 96v1152h128v128h512v-128h128v-1152h-128v-128h-512v128h-128zM384 96h256v1152h-256v-1152z" />
<glyph unicode="&#x3a0;" d="M0 -32v1280v128h896v-128v-1280h-256v1280h-384v-1280h-256z" />
<glyph unicode="&#x3a1;" d="M128 -32v640v640v128h640v-128h128v-512h-128v-128h-384v-640h-256zM384 736h256v512h-256v-512z" />
<glyph unicode="&#x3a3;" d="M0 -32v256h128v128h128v128h128v128h128v128h-128v128h-128v128h-128v128h-128v128v128h896v-128h-640v-128h128v-128h128v-128h128v-128h128v-128h-128v-128h-128v-128h-128v-128h-128v-128h640v-128h-896z" />
<glyph unicode="&#x3a4;" d="M128 1248v128h768v-128h-256v-1280h-256v1280h-256z" />
<glyph unicode="&#x3a5;" d="M128 736v640h256v-640h256v640h256v-640h-128v-128h-128v-640h-256v640h-128v128h-128z" />
<glyph unicode="&#x3a6;" d="M0 480v640h128v128h256v384h128v-384h256v-128h128v-640h-128v-128h-256v-384h-128v384h-256v128h-128zM256 480h128v640h-128v-640zM512 480h128v640h-128v-640z" />
<glyph unicode="&#x3a7;" d="M0 -32v256h128v128h128v128h128v384h-128v128h-128v128h-128v256h256v-256h128v-128h256v128h128v256h256v-256h-128v-128h-128v-128h-128v-384h128v-128h128v-128h128v-256h-256v256h-128v128h-256v-128h-128v-256h-256z" />
<glyph unicode="&#x3a8;" d="M0 480v640h256v-640h128v640v128h128v-128v-640h128v640h256v-640h-128v-128h-256v-384h-128v384h-256v128h-128z" />
<glyph unicode="&#x3a9;" d="M0 -32v128h128v256h-128v768h128v128h640v-128h128v-768h-128v-256h128v-128h-384v384v128h128v640h-384v-640h128v-512h-384z" />
<glyph unicode="&#x3b1;" d="M0 96v640h128v128h384v-128h-256v-640h256v-128h-384v128h-128zM512 96v128h128v384h-128v128h128v128h256v-128v-768h-256v128h-128z" />
<glyph unicode="&#x3b2;" d="M0 96v512v640h128v128h640v-128h128v-512h-128v-128h128v-512h-128v-128h-384v128h256v512h-384v-384h128v-128h-128v-384h-256v384zM256 736h384v512h-384v-512z" />
<glyph unicode="&#x3b3;" d="M0 480v384h256v-384h128v-256h128v256h128v384h256v-384h-128v-256h-128v-128h128v-256h-128v-128h-384v128h-128v256h128v128h-128v256h-128zM384 96v-256h128v256h-128z" />
<glyph unicode="&#x3b4;" d="M0 96v384h128v128h256v128h-128v128h-128v128h-128v256v128h896v-128h-640v-256h128v-128h128v-128h128v-128h128v-128h128v-384h-128v-128h-640v128h-128zM256 96h384v384h-384v-384z" />
<glyph unicode="&#x3b5;" d="M128 96v256h128v128h-128v256h128v128h640v-128h-512v-256h384v-128h-384v-256h512v-128h-640v128h-128z" />
<glyph unicode="&#x3b6;" d="M0 96v512h128v128h128v128h128v128h128v128h128v128h-640v128h896v-256h-128v-128h-128v-128h-128v-128h-128v-128h-128v-512h512v-128h128v-128h-128v-128h-384v128h256v128h-512v128h-128z" />
<glyph unicode="&#x3b7;" d="M128 -32v768v128h640v-128h128v-1024h-256v1024h-256v-768h-256z" />
<glyph unicode="&#x3b8;" d="M128 96v512v640h128v128h512v-128h128v-512v-128v-512h-128v-128h-512v128h-128zM384 96h256v512h-256v-512zM384 736h256v512h-256v-512z" />
<glyph unicode="&#x3b9;" d="M384 96v768h256v-768h128v-128h-256v128h-128z" />
<glyph unicode="&#x3ba;" d="M128 -32v384v512h256v-384h128v128h128v256h256v-256h-128v-128h-128v-128h128v-128h128v-256h-256v256h-128v128h-128v-384h-256z" />
<glyph unicode="&#x3bb;" d="M0 -32v512h128v128h128v128h384v512h-384v-128h-256v128h128v128h640v-128h128v-640v-128v-512h-256v512v128h-256v-128h-128v-512h-256z" />
<glyph unicode="&#x3bc;" d="M0 -32v896h256v-768h256v-128h-256v-256h-256v256zM512 96v768h256v-768h128v-128h-256v128h-128z" />
<glyph unicode="&#x3bd;" d="M128 224v640h256v-640h256v640h256v-640h-128v-128h-128v-128h-256v128h-128v128h-128z" />
<glyph unicode="&#x3be;" d="M0 96v128h128v128h128v128h-128v256h128v128h128v128h128v128h128v128h-640v128h896v-256h-128v-128h-128v-128h-128v-128h-128v-256h384v-128h-384v-128h-128v-128h512v-128h128v-128h-128v-128h-512v128h384v128h-512v128h-128z" />
<glyph unicode="&#x3bf;" d="M128 96v640h128v128h512v-128h128v-640h-128v-128h-512v128h-128zM384 96h256v640h-256v-640z" />
<glyph unicode="&#x3c0;" d="M0 736v128h896v-128h-128v-768h-256v768h-128v-768h-256v768h-128z" />
<glyph unicode="&#x3c1;" d="M128 -32v768h128v128h512v-128h128v-640h-128v-128h-384v-256h-256v256zM384 96h256v640h-256v-640z" />
<glyph unicode="&#x3c2;" d="M0 96v768h128v256h640v-256h128v-256h-256v256h-384v-768h512v-256h128v-256h-256v256h-512v256h-128z" />
<glyph unicode="&#x3c3;" d="M0 96v640h128v128h768v-128h-128v-128h128v-512h-128v-128h-640v128h-128zM256 96h384v512h-128v128h-256v-640z" />
<glyph unicode="&#x3c4;" d="M128 736v128h768v-128h-256v-640h128v-128h-256v128h-128v640h-256z" />
<glyph unicode="&#x3c5;" d="M0 736v128h256v-128h128v-640h256v768h256v-768h-128v-128h-512v128h-128v640h-128z" />
<glyph unicode="&#x3c6;" d="M0 96v640h128v128h640v-128h-512v-640h128v384v128h384v-128h128v-384h-128v-128h-256v-256h-128v256h-256v128h-128zM512 96h128v384h-128v-384z" />
<glyph unicode="&#x3c7;" d="M0 -32v256h128v128h128v128h-128v128h-128v256h256v-256h128v-128h128v128h128v256h256v-256h-128v-128h-128v-128h128v-128h128v-256h-256v256h-128v128h-128v-128h-128v-256h-256z" />
<glyph unicode="&#x3c8;" d="M0 96v768h256v-768h128v768h128v-768h128v768h256v-768h-128v-128h-256v-256h-128v256h-256v128h-128z" />
<glyph unicode="&#x3c9;" d="M0 96v640h128v128h256v-128h-128v-640h128v-128h-256v128h-128zM384 96v512h128v-512h-128zM512 -32v128h128v512v128h-128v128h256v-128h128v-128v-512h-128v-128h-256z" />
<glyph unicode="&#x400;" d="M128 -32v640v512v128h768v-128h-512v-384h384v-128h-384v-512h512v-128h-768zM256 1504v128h256v-128h128v-128h-256v128h-128z" />
<glyph unicode="&#x401;" d="M128 -32v640v512v128h768v-128h-512v-384h384v-128h-384v-512h512v-128h-768zM128 1376v256h256v-256h-256zM640 1376v256h256v-256h-256z" />
<glyph unicode="&#x405;" d="M128 96v256h256v-256h256v256v128h-128v128h-128v128h-128v128h-128v384h128v128h512v-128h128v-256h-256v256h-256v-384h128v-128h128v-128h128v-128h128v-128v-256h-128v-128h-512v128h-128z" />
<glyph unicode="&#x406;" d="M128 -32v128h256v1152h-256v128h768v-128h-256v-1152h256v-128h-768z" />
<glyph unicode="&#x407;" d="M128 -32v128h256v1024h-256v128h768v-128h-256v-1024h256v-128h-768zM128 1376v256h256v-256h-256zM640 1376v256h256v-256h-256z" />
<glyph unicode="&#x408;" d="M128 96v256h256v-256h256v256v1024h256v-1024v-256h-128v-128h-512v128h-128z" />
<glyph unicode="&#x409;" d="M0 -32v128h128v1152h128v128h512v-128v-512h128v-128h128v-512h-128v-128h-384v128v512v640h-128v-1152h-128v-128h-256zM768 96h128v512h-128v-512z" />
<glyph unicode="&#x410;" d="M128 -32v640v512h128v128h128v128h256v-128h128v-128h128v-384v-128v-640h-256v640h-256v-640h-256zM384 736h256v384h-256v-384z" />
<glyph unicode="&#x411;" d="M128 -32v640v640v128h768v-128h-512v-512h384v-128h128v-512h-128v-128h-640zM384 96h256v512h-256v-512z" />
<glyph unicode="&#x412;" d="M128 -32v640v640v128h640v-128h128v-384h-128v-128h-128v-128h128v-128h128v-384h-128v-128h-640zM384 96h256v384h-128v128h-128v-512zM384 736h128v128h128v384h-256v-512z" />
<glyph unicode="&#x413;" d="M128 -32v1280v128h768v-128h-512v-1280h-256z" />
<glyph unicode="&#x414;" d="M0 -32v128h128v1024h128v128h128v128h512v-128v-128v-1024h128v-128v-256h-256v256h-512v-256h-256v256zM384 96h256v1024v128h-128v-128h-128v-1024z" />
<glyph unicode="&#x415;" d="M128 -32v640v640v128h768v-128h-512v-512h384v-128h-384v-512h512v-128h-768z" />
<glyph unicode="&#x416;" d="M0 -32v512h128v128h128v128h-128v128h-128v512h256v-512h128v512h128v-512h128v512h256v-512h-128v-128h-128v-128h128v-128h128v-512h-256v512h-128v-512h-128v512h-128v-512h-256z" />
<glyph unicode="&#x417;" d="M128 96v256h256v-256h256v256v256h-256v128h256v512h-256v-256h-256v256h128v128h512v-128h128v-512h-128v-128h128v-256v-256h-128v-128h-512v128h-128z" />
<glyph unicode="&#x418;" d="M0 -32v256v256v128v768h256v-640h128v128h128v256h128v256h256v-640v-128v-128v-256v-256h-256v256v256v128h-128v-128h-128v-256h-128v-256h-256z" />
<glyph unicode="&#x419;" d="M0 -32v256v256v768h256v-640h128v128h128v256h128v256h256v-768v-256v-256h-256v256v256v128h-128v-128h-128v-256h-128v-256h-256zM0 1504v128h256v-128h384v128h256v-128h-128v-128h-640v128h-128z" />
<glyph unicode="&#x41a;" d="M0 -32v640v768h256v-640h128v128h128v256h128v256h256v-256h-128v-256h-128v-128h-128v-128h128v-128h128v-256h128v-256h-256v256h-128v256h-128v128h-128v-640h-256z" />
<glyph unicode="&#x41b;" d="M0 -32v128h128v1024h128v128h128v128h512v-128v-128v-1024v-128h-256v128v1024v128h-128v-128h-128v-1024h-128v-128h-256z" />
<glyph unicode="&#x41c;" d="M0 -32v896v512h256v-128h128v-256h128v256h128v128h256v-384v-128v-896h-256v896h-128v-256h-128v256h-128v-896h-256z" />
<glyph unicode="&#x41d;" d="M128 -32v640v768h256v-640h256v640h256v-640v-128v-640h-256v640h-256v-640h-256z" />
<glyph unicode="&#x41e;" d="M128 96v1152h128v128h512v-128h128v-1152h-128v-128h-512v128h-128zM384 96h256v1152h-256v-1152z" />
<glyph unicode="&#x41f;" d="M128 -32v1280v128h768v-128v-1280h-256v1280h-256v-1280h-256z" />
<glyph unicode="&#x420;" d="M128 -32v640v640v128h640v-128h128v-512h-128v-128h-384v-640h-256zM384 736h256v512h-256v-512z" />
<glyph unicode="&#x421;" d="M128 96v1152h128v128h512v-128h128v-256h-256v256h-256v-1152h256v256h256v-256h-128v-128h-512v128h-128z" />
<glyph unicode="&#x422;" d="M128 1248v128h768v-128h-256v-1280h-256v1280h-256z" />
<glyph unicode="&#x423;" d="M0 -32v128h640v256h-512v128h-128v896h256v-896h384v896h256v-896v-384h-128v-128h-768z" />
<glyph unicode="&#x424;" d="M0 96v1152h128v128h256v128h128v-128h256v-128h128v-1152h-128v-128h-256v-256h-128v256h-256v128h-128zM256 96h128v1152h-128v-1152zM512 96h128v1152h-128v-1152z" />
<glyph unicode="&#x425;" d="M0 -32v256h128v128h128v128h128v384h-128v128h-128v128h-128v256h256v-256h128v-128h256v128h128v256h256v-256h-128v-128h-128v-128h-128v-384h128v-128h128v-128h128v-256h-256v256h-128v128h-256v-128h-128v-256h-256z" />
<glyph unicode="&#x426;" d="M0 -32v1408h256v-1280h256v1280h256v-1280h128v-384h-256v256h-640z" />
<glyph unicode="&#x427;" d="M0 736v640h256v-640h384v640h256v-640v-768h-256v640h-512v128h-128z" />
<glyph unicode="&#x428;" d="M0 -32v1408h256v-1280h128v1280h128v-1280h128v1280h256v-1280v-128h-896z" />
<glyph unicode="&#x429;" d="M0 -32v1408h256v-1280h128v1280h128v-1280h128v1280h256v-1280h128v-384h-256v256h-768z" />
<glyph unicode="&#x42a;" d="M0 992v128v256h512v-256v-384h256v-128h128v-512h-128v-128h-512v640v512h-128v-128h-128zM512 96h128v512h-128v-512z" />
<glyph unicode="&#x42b;" d="M0 -32v640v768h256v-640h256v-128h128v768h256v-768v-640h-256v128h-128v-128h-512zM256 96h128v512h-128v-512z" />
<glyph unicode="&#x42c;" d="M128 -32v640v768h256v-640h384v-128h128v-512h-128v-128h-640zM384 96h256v512h-256v-512z" />
<glyph unicode="&#x42d;" d="M0 96v128h256v-128h256v128h128v384h-384v128h384v384h-128v128h-256v-128h-256v128h128v128h512v-128h128v-128h128v-896h-128v-128h-128v-128h-512v128h-128z" />
<glyph unicode="&#x42e;" d="M0 -32v640v768h256v-640h128v384v128h128v128h256v-128h128v-128v-512v-384v-128h-128v-128h-256v128h-128v512h-128v-640h-256zM512 224h128v384v512h-128v-384v-128v-384z" />
<glyph unicode="&#x42f;" d="M128 -32v384h128v128h128v128h-128v128h-128v512h128v128h640v-128v-512v-256v-128v-384h-256v384v128h-128v-128h-128v-384h-256zM384 736h256v512h-256v-512z" />
<glyph unicode="&#x430;" d="M128 96v384h128v128h384v128h-384v128h512v-128h128v-256v-384v-128h-640v128h-128zM384 96h256v384h-256v-384z" />
<glyph unicode="&#x431;" d="M128 96v640v256h128v128h384v128h256v-128h-128v-128h-384v-128h384v-128h128v-640h-128v-128h-512v128h-128zM384 96h256v640h-256v-640z" />
<glyph unicode="&#x432;" d="M128 -32v384v384v128h640v-128h128v-256h-128v-128h128v-256h-128v-128h-640zM384 96h256v256h-256v-256zM384 480h256v256h-256v-256z" />
<glyph unicode="&#x433;" d="M128 -32v768v128h768v-128h-512v-768h-256z" />
<glyph unicode="&#x434;" d="M0 -32v128h128v640h128v128h512v-128v-640h128v-128v-128h-256v128h-384v-128h-256v128zM384 96h128v640h-128v-640z" />
<glyph unicode="&#x435;" d="M128 96v256v384h128v128h512v-128h128v-256v-128h-512v-256h384v-128h-512v128h-128zM384 480h256v256h-256v-256z" />
<glyph unicode="&#x436;" d="M0 -32v128v128h128v128h128v128h-128v128h-128v256h128v-128h128v-128h128v256h128v-256h128v128h128v128h128v-256h-128v-128h-128v-128h128v-128h128v-128v-128h-128v128h-128v128h-128v-128v-128h-128v128v128h-128v-128h-128v-128h-128z" />
<glyph unicode="&#x437;" d="M128 96v128h256v-128h256v128v128h-256v128h256v256h-256v-128h-256v128h128v128h512v-128h128v-256h-128v-128h128v-128v-128h-128v-128h-512v128h-128z" />
<glyph unicode="&#x438;" d="M0 -32v128v128v128v512h256v-384h128v128h128v128h128v128h256v-384v-128v-128v-128v-128h-256v128v128v128h-128v-128h-128v-128h-128v-128h-256z" />
<glyph unicode="&#x439;" d="M0 -32v128v128v128v512h256v-384h128v128h128v128h128v128h256v-384v-128v-128v-128v-128h-256v128v128v128h-128v-128h-128v-128h-128v-128h-256zM0 1120v128h256v-128h384v128h256v-128h-128v-128h-640v128h-128z" />
<glyph unicode="&#x43a;" d="M128 -32v384v512h256v-384h128v128h128v256h256v-256h-128v-128h-128v-128h128v-128h128v-256h-256v256h-128v128h-128v-384h-256z" />
<glyph unicode="&#x43b;" d="M0 -32v128h128v640h128v128h640v-128v-768h-256v768h-256v-768h-384z" />
<glyph unicode="&#x43c;" d="M0 -32v384v512h256v-128h128v-128h128v128h128v128h256v-256v-256v-384h-256v384h-128v-256h-128v256h-128v-384h-256z" />
<glyph unicode="&#x43d;" d="M128 -32v384v512h256v-384h256v384h256v-384v-128v-384h-256v384h-256v-384h-256z" />
<glyph unicode="&#x43e;" d="M128 96v640h128v128h512v-128h128v-640h-128v-128h-512v128h-128zM384 96h256v640h-256v-640z" />
<glyph unicode="&#x43f;" d="M128 -32v768v128h768v-128v-768h-256v768h-256v-768h-256z" />
<glyph unicode="&#x440;" d="M128 -32v768v128h640v-128h128v-640h-128v-128h-384v-384h-256v384zM384 96h256v640h-256v-640z" />
<glyph unicode="&#x441;" d="M128 96v640h128v128h512v-128h128v-128h-256v128h-256v-640h256v128h256v-128h-128v-128h-512v128h-128z" />
<glyph unicode="&#x442;" d="M128 736v128h768v-128h-256v-768h-256v768h-256z" />
<glyph unicode="&#x443;" d="M128 96v768h256v-768h256v768h256v-768v-384h-128v-128h-512v128h384v256h-384v128h-128z" />
<glyph unicode="&#x444;" d="M0 96v640h128v128h256v256h128v-256h256v-128h128v-640h-128v-128h-256v-256h-128v256h-256v128h-128zM256 96h128v640h-128v-640zM512 96h128v640h-128v-640z" />
<glyph unicode="&#x445;" d="M0 -32v256h128v128h128v128h-128v128h-128v256h256v-256h128v-128h128v128h128v256h256v-256h-128v-128h-128v-128h128v-128h128v-256h-256v256h-128v128h-128v-128h-128v-256h-256z" />
<glyph unicode="&#x446;" d="M0 -32v896h256v-768h256v768h256v-768h128v-256h-256v128h-640z" />
<glyph unicode="&#x447;" d="M128 480v384h256v-384h256v384h256v-384v-512h-256v384h-384v128h-128z" />
<glyph unicode="&#x448;" d="M0 -32v896h256v-768h128v768h128v-768h128v768h256v-768v-128h-896z" />
<glyph unicode="&#x449;" d="M0 -32v896h256v-768h128v768h128v-768h128v768h256v-768v-256h-256v128h-640z" />
<glyph unicode="&#x44a;" d="M0 608v256h384v-384h384v-128h128v-256h-128v-128h-640v384v256h-128zM384 96h256v256h-256v-256z" />
<glyph unicode="&#x44b;" d="M0 -32v384v512h256v-384h256v-128h128v512h256v-512v-384h-256v128h-128v-128h-512zM256 96h128v256h-128v-256z" />
<glyph unicode="&#x44c;" d="M128 -32v384v512h256v-384h384v-128h128v-256h-128v-128h-640zM384 96h256v256h-256v-256z" />
<glyph unicode="&#x44d;" d="M0 96v128h256v-128h256v128h128v128h-256v128h256v128h-128v128h-256v-128h-256v128h128v128h512v-128h128v-128h128v-384h-128v-128h-128v-128h-512v128h-128z" />
<glyph unicode="&#x44e;" d="M0 -32v384v512h256v-384h128v256h128v-256v-128v-256h128v256v384h-128v128h256v-128h128v-384v-256h-128v-128h-256v128h-128v256h-128v-384h-256z" />
<glyph unicode="&#x44f;" d="M128 -32v128h128v128h128v128h-128v128h-128v256h128v128h640v-128v-256v-256v-128v-128h-256v128v128h-128v-128h-128v-128h-256zM384 480h256v256h-256v-256z" />
<glyph unicode="&#x450;" d="M128 96v256v384h128v128h512v-128h128v-256v-128h-512v-256h384v-128h-512v128h-128zM256 1248v128h256v-128h128v-128h-256v128h-128zM384 480h256v256h-256v-256z" />
<glyph unicode="&#x451;" d="M128 96v256v384h128v128h512v-128h128v-256v-128h-512v-256h384v-128h-512v128h-128zM128 1120v256h256v-256h-256zM384 480h256v256h-256v-256zM640 1120v256h256v-256h-256z" />
<glyph unicode="&#x455;" d="M128 -32v128h512v256h-384v128h-128v256h128v128h640v-128h-512v-256h384v-128h128v-256h-128v-128h-640z" />
<glyph unicode="&#x456;" d="M128 736v128h512v-768h256v-128h-512v768h-256zM384 1120v256h256v-256h-256z" />
<glyph unicode="&#x457;" d="M128 1120v256h256v-256h-256zM256 -32v128h128v640h-128v128h384v-768h128v-128h-512zM640 1120v256h256v-256h-256z" />
<glyph unicode="&#x458;" d="M128 -288h384v1152h256v-1152h-128v-128h-512v128zM512 1120v256h256v-256h-256z" />
<glyph unicode="&#x4d0;" d="M128 -32v512v512h128v128h128v128h256v-128h128v-128h128v-384v-128v-512h-256v512h-256v-512h-256zM128 1504v128h256v-128h256v128h256v-128h-128v-128h-512v128h-128zM384 608h256v384h-256v-384z" />
<glyph unicode="&#x4d1;" d="M128 96v384h128v128h384v128h-384v128h512v-128h128v-256v-384v-128h-640v128h-128zM128 1248v128h256v-128h256v128h256v-128h-128v-128h-512v128h-128zM384 96h256v384h-256v-384z" />
<glyph unicode="&#x4d2;" d="M128 -32v512v512h128v128h128v128h256v-128h128v-128h128v-384v-128v-512h-256v512h-256v-512h-256zM128 1376v256h256v-256h-256zM384 608h256v384h-256v-384zM640 1376v256h256v-256h-256z" />
<glyph unicode="&#x4d3;" d="M128 96v384h128v128h384v128h-384v128h512v-128h128v-256v-384v-128h-640v128h-128zM128 1120v256h256v-256h-256zM384 96h256v384h-256v-384zM640 1120v256h256v-256h-256z" />
<glyph unicode="&#x4d4;" d="M0 -32v640v384v128h128v128h128v128h768v-128h-256v-256v-256h128v-128h-128v-512h256v-128h-512v640h-256v-640h-256zM256 736h256v256h-256v-256z" />
<glyph unicode="&#x4d5;" d="M0 96v256h128v128h256v256h-256v128h768v-128h128v-256v-128h-384v-256h-128v-128h-384v128h-128zM256 96h128v256h-128v-256zM640 -32v128h384v-128h-384zM640 480h128v256h-128v-256z" />
<glyph unicode="&#x4d6;" d="M128 -32v640v512v128h768v-128h-512v-384h384v-128h-384v-512h512v-128h-768zM128 1504v128h256v-128h256v128h256v-128h-128v-128h-512v128h-128z" />
<glyph unicode="&#x4d7;" d="M128 96v256v384h128v128h512v-128h128v-256v-128h-512v-256h384v-128h-512v128h-128zM128 1248v128h256v-128h256v128h256v-128h-128v-128h-512v128h-128zM384 480h256v256h-256v-256z" />
<glyph unicode="&#x4e6;" d="M128 96v1024h128v128h512v-128h128v-1024h-128v-128h-512v128h-128zM128 1376v256h256v-256h-256zM384 96h256v1024h-256v-1024zM640 1376v256h256v-256h-256z" />
<glyph unicode="&#x4e7;" d="M128 96v640h128v128h512v-128h128v-640h-128v-128h-512v128h-128zM128 1120v256h256v-256h-256zM384 96h256v640h-256v-640zM640 1120v256h256v-256h-256z" />
<glyph unicode="&#x4f1;" d="M128 96v768h256v-768h256v768h256v-768v-384h-128v-128h-512v128h384v256h-384v128h-128zM128 1120v256h256v-256h-256zM640 1120v256h256v-256h-256z" />
<glyph unicode="&#x5d0;" d="M128 -32v384h128v256h-128v256h256v-256h128v-128h128v384h256v-384h-128v-128v-128h128v-256h-256v256h-128v128h-128v-384h-256z" />
<glyph unicode="&#x5d1;" d="M128 -32v128h384v640h-384v128h512v-128h128v-640h128v-128h-768z" />
<glyph unicode="&#x5d2;" d="M128 -32v128h256v128h128v512h-256v128h384v-128h128v-640h128v-128h-256v128h-128v-128h-384z" />
<glyph unicode="&#x5d3;" d="M128 736v128h768v-128h-128v-768h-256v768h-384z" />
<glyph unicode="&#x5d4;" d="M128 -32v640h256v-640h-256zM128 736v128h640v-128h128v-128v-640h-256v640v128h-512z" />
<glyph unicode="&#x5d5;" d="M256 736v128h384v-128h128v-768h-256v768h-256z" />
<glyph unicode="&#x5d6;" d="M128 736v128h768v-128h-128v-128h-128v-640h-256v640h128v128h-384z" />
<glyph unicode="&#x5d7;" d="M128 736v128h640v-128h128v-768h-256v768h-128v-768h-256v768h-128z" />
<glyph unicode="&#x5d8;" d="M128 96v768h256v-768h256v512h-128v128h256v-128h128v-512h-128v-128h-512v128h-128z" />
<glyph unicode="&#x5d9;" d="M256 736v128h384v-128h128v-512h-256v512h-256z" />
<glyph unicode="&#x5da;" d="M128 736v128h640v-128h128v-1024h-256v1024h-512z" />
<glyph unicode="&#x5db;" d="M128 -32v128h512v640h-512v128h640v-128h128v-640h-128v-128h-640z" />
<glyph unicode="&#x5dc;" d="M128 736v384h256v-256h384v-128h128v-256h-128v-128h-128v-384h-256v384h128v128h128v256h-512z" />
<glyph unicode="&#x5dd;" d="M0 736v128h768v-128h128v-640v-128h-768v768h-128zM384 96h256v640h-256v-640z" />
<glyph unicode="&#x5de;" d="M128 -32v768v128h640v-128h128v-768h-384v128h128v640h-256v-768h-256z" />
<glyph unicode="&#x5df;" d="M256 736v128h384v-128h128v-1024h-256v1024h-256z" />
<glyph unicode="&#x5e0;" d="M256 -32v128h256v640h-256v128h384v-128h128v-768h-512z" />
<glyph unicode="&#x5e1;" d="M128 96v640v128h768v-128v-640h-128v-128h-512v128h-128zM384 96h256v640h-256v-640z" />
<glyph unicode="&#x5e2;" d="M0 -32v128h128v768h256v-768h256v768h256v-768h-128v-128h-768z" />
<glyph unicode="&#x5e3;" d="M128 352v384v128h640v-128h128v-1024h-256v1024h-256v-384h128v-128h-256v128h-128z" />
<glyph unicode="&#x5e4;" d="M128 -32v128h512v640h-256v-384h128v-128h-256v128h-128v384v128h640v-128h128v-640h-128v-128h-640z" />
<glyph unicode="&#x5e5;" d="M128 224v640h256v-640h128v128h128v512h256v-512h-128v-128h-128v-128h-128v-384h-256v384v128h-128z" />
<glyph unicode="&#x5e6;" d="M128 -32v128h512v256h-384v128h-128v384h256v-384h256v384h256v-384h-128v-128h128v-384h-768z" />
<glyph unicode="&#x5e7;" d="M128 -288v896h256v-896h-256zM128 736v128h640v-128h128v-128v-384h-128v-128h-128v-128h-128v128v128h128v384v128h-512z" />
<glyph unicode="&#x5e8;" d="M128 736v128h640v-128h128v-768h-256v768h-512z" />
<glyph unicode="&#x5e9;" d="M0 96v768h256v-640h128v640h128v-640h-128v-128h256v768h256v-768h-128v-128h-640v128h-128z" />
<glyph unicode="&#x5ea;" d="M0 -32v128h128v640h-128v128h768v-128h128v-640v-128h-256v128v640h-256v-640h-128v-128h-256z" />
<glyph unicode="&#x623;" d="M128 1120v128h128v-128h-128zM128 1376v128h128v128h256v-128h-256v-128h-128zM256 1248v128h384v-128h-384zM384 352v768h128v-768h-128z" />
<glyph unicode="&#x627;" d="M512 352v1280h128v-1280h-128z" />
<glyph unicode="&#x628;" d="M0 480v512h128v-384h768v384h128v-384v-128h-128v-128h-768v128h-128zM384 96v128h256v-128h-256z" />
<glyph unicode="&#x629;" d="M256 1248v128h256v-128h-256zM384 480v384v128h128v128h384v-128h128v-128v-256v-128h-128v-128h-384v128h-128zM512 608h384v256h-384v-256zM768 1248v128h256v-128h-256z" />
<glyph unicode="&#x62a;" d="M0 480v512h128v-384h768v384h128v-384v-128h-128v-128h-768v128h-128zM256 1120v128h256v-128h-256zM640 1120v128h256v-128h-256z" />
<glyph unicode="&#x62b;" d="M0 480v512h128v-384h768v384h128v-384v-128h-128v-128h-768v128h-128zM128 1120v128h256v-128h-256zM384 1376v128h256v-128h-256zM640 1120v128h256v-128h-256z" />
<glyph unicode="&#x62c;" d="M0 224v256v128h128v128h128v128h384v128h-128v128h-384v128h512v-128h128v-128h128v-128h128v-128h-128v-128h-640v-128h-128v-128h128v-128h640v-128h-128v-128h-512v128h-128v128h-128zM384 352v128h256v-128h-256z" />
<glyph unicode="&#x62d;" d="M0 224v256v128h128v128h128v128h384v128h-128v128h-384v128h512v-128h128v-128h128v-128h128v-128h-128v-128h-640v-128h-128v-128h128v-128h640v-128h-128v-128h-512v128h-128v128h-128z" />
<glyph unicode="&#x62f;" d="M128 480v128h640v128h128v128h-128v128h-384v256h384v-128h128v-128h128v-384h-128v-128h-128v-128h-512v128h-128z" />
<glyph unicode="&#x630;" d="M128 480v128h640v128h128v128h-128v128h-384v256h384v-128h128v-128h128v-384h-128v-128h-128v-128h-512v128h-128zM512 1376v128h256v-128h-256z" />
<glyph unicode="&#x631;" d="M128 96v128h640v128h128v256h-128v128h-128v128h128v128h128v-128h128v-512h-128v-128h-128v-128h-128v-128h-384v128h-128z" />
<glyph unicode="&#x632;" d="M128 96v128h640v128h128v256h-128v128h-128v128h128v128h128v-128h128v-512h-128v-128h-128v-128h-128v-128h-384v128h-128zM640 1120v128h256v-128h-256z" />
<glyph unicode="&#x633;" d="M0 480v512h128v-384h512v128h-128v128h-128v128v256h128v-256h128v128h128v-128h128v128v128h128v-128v-128v-128h-128v-128h-128v128h-128v-128h128v-128v-128h-128v-128h-512v128h-128z" />
<glyph unicode="&#x634;" d="M0 480v384h128v-256h512v128h-256v128v256h128v-256h128v128h128v-128h128v128v128h128v-128v-128v-128h-256v-128v-128h-128v-128h-512v128h-128zM256 1248v128h256v-128h-256zM512 1504v128h256v-128h-256zM768 1248v128h256v-128h-256z" />
<glyph unicode="&#x635;" d="M0 480v512h128v-384h512v128h-128v128h-128v128v128h-128v128h128v128h512v-128h128v-128v-128h-128v-128h-256v-128h128v-128v-128h-128v-128h-512v128h-128zM512 1120h384v128h-384v-128z" />
<glyph unicode="&#x637;" d="M0 352v128v128h256v128v896h128v-768h128v128h128v128h256v-128h128v-256v-128v-128h-128v-128h-896zM512 608h384v128v128h-256v-128h-128v-128z" />
<glyph unicode="&#x638;" d="M0 352v128v128h256v128v896h128v-768h128v128h128v128h256v-128h128v-256v-128v-128h-128v-128h-896zM512 608h384v128v128h-256v-128h-128v-128zM640 1376v128h256v-128h-256z" />
<glyph unicode="&#x639;" d="M128 96v384v128h128v128h-128v256v128h128v128h384v-128h128v-128h-512v-128h512v-128h-128v-128h-256v-128h-128v-128h128v-128h384v128h128v128h128v-256h-128v-128h-128v-128h-512v128h-128z" />
<glyph unicode="&#x63a;" d="M128 96v384v128h128v128h-128v256v128h128v128h384v-128h128v-128h-512v-128h512v-128h-128v-128h-256v-128h-128v-128h128v-128h384v128h128v128h128v-256h-128v-128h-128v-128h-512v128h-128zM256 1376v128h256v-128h-256z" />
<glyph unicode="&#x640;" d="M0 352v256h1024v-256h-1024z" />
<glyph unicode="&#x641;" d="M0 352v384h128v-256h768v128h-512v128v128v128h128v128h384v-128h128v-128v-128v-256v-128h-128v-128h-768v128h-128zM512 736h384v128h-384v-128zM512 1248v128h256v-128h-256z" />
<glyph unicode="&#x642;" d="M0 352v384h128v-256h768v128h-512v128v128v128h128v128h384v-128h128v-128v-128v-256v-128h-128v-128h-768v128h-128zM384 1248v128h256v-128h-256zM512 736h384v128h-384v-128zM768 1248v128h256v-128h-256z" />
<glyph unicode="&#x643;" d="M0 480v384h128v-256h768v256v256v256v128v128h128v-128v-128v-256v-256v-256v-128h-128v-128h-768v128h-128zM256 992v128h128v-128h-128zM256 1248v128h128v128h256v-128h-256v-128h-128zM384 1120v128h256v-128h-256z" />
<glyph unicode="&#x644;" d="M0 224v512h128v-384h128v-128h384v128h128v384v896h128v-896v-512h-128v-128h-128v-128h-384v128h-128v128h-128z" />
<glyph unicode="&#x645;" d="M128 -32v384v128h256v128h256v128h-384v-128h-128v128v128h128v128h384v-128h128v-128h128v-384h-640v-384h-128z" />
<glyph unicode="&#x646;" d="M0 480v512h128v-384h768v384h128v-384v-128h-128v-128h-768v128h-128zM384 1120v128h256v-128h-256z" />
<glyph unicode="&#x647;" d="M128 480v384v128h128v128h384v-128h128v-128v-256v-128h-128v-128h-384v128h-128zM256 608h384v256h-384v-256z" />
<glyph unicode="&#x648;" d="M128 480v256v128h128v128h384v-128h128v-128v-128v-256h-128v-256h-128v-128h-256v128v128h256v128h-256v128h-128zM256 608h384v128h-384v-128z" />
<glyph unicode="&#x649;" d="M0 352v384h128v-256h768v128h-384v128h-128v256v128h128v128h512v-256h-512v-128h384v-128h128v-256v-128h-128v-128h-768v128h-128z" />
<glyph unicode="&#x64a;" d="M0 352v384h128v-256h768v128h-384v128h-128v256v128h128v128h512v-256h-512v-128h384v-128h128v-256v-128h-128v-128h-768v128h-128zM256 -32v128h256v-128h-256zM640 -32v128h256v-128h-256z" />
<glyph unicode="&#x671;" d="M128 1248v128h256v128h128v128h256v-128h128v-128h-128v128h-256v-128h256v-128h-640zM384 352v768h128v-768h-128z" />
<glyph unicode="&#x672;" d="M128 1248v128h128v128h128v-128h128v128h128v-128h256v-128h-512v128h-128v-128h-128zM384 352v768h128v-768h-128zM640 1504v128h256v-128h-256z" />
<glyph unicode="&#x673;" d="M128 -32h128v128h256v-128h128v128h128v-128h256v-128h-512v128h-128v-128h-256v128zM512 352v1280h128v-1280h-128zM768 96v128h256v-128h-256z" />
<glyph unicode="&#x1560;" d="M128 96v256h256v-256h256v256v128h-128v128h-128v128h-128v128h-128v256h128v128h512v-128h128v-256h-256v256h-256v-256h128v-128h128v-128h128v-128h128v-128v-256h-128v-128h-512v128h-128zM384 1376v256h256v-256h-256z" />
<glyph unicode="&#x1561;" d="M128 -32v128h512v256h-384v128h-128v256h128v128h640v-128h-512v-256h384v-128h128v-256h-128v-128h-640zM384 1120v256h256v-256h-256z" />
<glyph unicode="&#x1562;" d="M128 96v256h256v-256h256v256v128h-128v128h-128v128h-128v128h-128v384h128v128h512v-128h128v-256h-256v256h-256v-384h128v-128h128v-128h128v-128h128v-128v-256h-128v-128h-512v128h-128zM384 -160h256v-256h-256v256z" />
<glyph unicode="&#x1563;" d="M128 -32v128h512v256h-384v128h-128v256h128v128h640v-128h-512v-256h384v-128h128v-256h-128v-128h-640zM384 -160h256v-256h-256v256z" />
<glyph unicode="&#x156a;" d="M128 1120v128h768v-128h-256v-1152h-256v1152h-256zM384 1376v256h256v-256h-256z" />
<glyph unicode="&#x156c;" d="M128 1248v128h768v-128h-256v-1280h-256v1280h-256zM384 -160h256v-256h-256v256z" />
<glyph unicode="&#x156d;" d="M128 736v128h128v384h256v-384h384v-128h-384v-640h384v-128h-512v128h-128v640h-128zM384 -160h256v-256h-256v256z" />
<glyph unicode="&#x156e;" d="M128 -160h768v-128h-768v128zM128 1248v128h768v-128h-256v-1280h-256v1280h-256z" />
<glyph unicode="&#x156f;" d="M128 -160h768v-128h-768v128zM128 736v128h128v384h256v-384h384v-128h-384v-640h384v-128h-512v128h-128v640h-128z" />
<glyph unicode="&#x1570;" d="M128 -160h256v-128h256v128h256v-128h-128v-128h-512v128h-128v128zM128 1248v128h768v-128h-256v-1280h-256v1280h-256z" />
<glyph unicode="&#x1571;" d="M128 -160h256v-128h256v128h256v-128h-128v-128h-512v128h-128v128zM128 736v128h128v384h256v-384h384v-128h-384v-640h384v-128h-512v128h-128v640h-128z" />
<glyph unicode="&#x15ec;" d="M128 -32v640v640v128h640v-128h128v-512h-128v-128v-128h128v-512h-256v512h-128v128h-128v-640h-256zM128 1504v128h768v-128h-768zM384 -160h256v-256h-256v256zM384 736h256v512h-256v-512z" />
<glyph unicode="&#x15ed;" d="M128 -32v768v128h640v-128h128v-256h-256v256h-256v-768h-256zM128 1120v128h768v-128h-768zM384 -160h256v-256h-256v256z" />
<glyph unicode="&#x15ef;" d="M128 -32v768v128h640v-128h128v-256h-256v256h-256v-768h-256zM128 -160h768v-128h-768v128z" />
<glyph unicode="&#x16a0;" d="M128 -160v512v768v512h256v-256h128v256h256v-256h-128v-256h-256v-512h128v256h256v-256h-128v-256h-256v-512h-256z" />
<glyph unicode="&#x16a1;" d="M0 96v768v768h256v-512h256v256h-128v256h128v-256h128v256h256v-256h-128v-256h-128v-256h-384v-512h256v256h256v-256h-128v-256h-384v-256h-256v256z" />
<glyph unicode="&#x16a2;" d="M128 -160v1024v768h256v-256h128v-256h128v-256h128v-256h128v-768h-256v768h-128v256h-128v-1024h-256z" />
<glyph unicode="&#x16a3;" d="M0 -160v1024v768h256v-256h128v-256h128v-256h128v-256h128v-256h128v-256v-256h-256v256v256h-128v256h-128v256h-128v-1024h-256zM384 96h128v-256h-128v256z" />
<glyph unicode="&#x16a4;" d="M0 -160v1024h128v512h128v256h384v-256h128v-512h128v-256v-768h-256v768v256h-128v512h-128v-512h-128v-1024h-256zM384 352v256h128v-256h-128z" />
<glyph unicode="&#x16a5;" d="M128 -160v768h128v512h128v512h256v-512h128v-512h128v-768h-256v768h-256v-768h-256z" />
<glyph unicode="&#x16a6;" d="M256 -160v512v512v768h256v-512h256v-256h128v-256h-128v-256h-256v-512h-256zM512 608h128v256h-128v-256z" />
<glyph unicode="&#x16a7;" d="M0 96v1024v512h256v-256h512v-256h128v-256v-512h-128v-256h-512v-256h-256v256zM256 352h384v512v256h-384v-768zM384 608v256h128v-256h-128z" />
<glyph unicode="&#x16a8;" d="M256 -160v768v768v256h512v-256h128v-256h-256v256h-128v-512h256v-256h128v-256h-256v256h-128v-768h-256z" />
<glyph unicode="&#x16a9;" d="M128 -160v768v768v256h384v-256h-128v-512h128v-256h-128v-768h-256zM512 352v256h128v256h256v-256h-128v-256h-256zM512 1120v256h128v256h256v-256h-128v-256h-256z" />
<glyph unicode="&#x16aa;" d="M128 -160v768v768v256h384v-256h-128v-512h256v-256h128v-256h-256v256h-128v-768h-256zM512 1120v256h128v256h256v-256h-128v-256h-256z" />
<glyph unicode="&#x16ab;" d="M256 -160v768v768v256h512v-256h128v-256h-256v256h-128v-512h256v-256h128v-256h-256v256h-128v-768h-256z" />
<glyph unicode="&#x16b1;" d="M128 -160v512v1024v256h512v-256h128v-256h128v-256h-128v-256h-128v-256h128v-256h128v-256h-256v256h-128v256h-128v-512h-256zM384 608h128v256h128v256h-128v256h-128v-768z" />
<glyph unicode="&#x16b2;" d="M128 608v256h128v256h128v256h256v-256h-128v-256h-128v-256h128v-256h128v-256h-256v256h-128v256h-128z" />
<glyph unicode="&#x16b3;" d="M128 -160v512v1280h256v-768h128v-256h128v-256h128v-256h128v-256h-256v256h-128v256h-128v-512h-256z" />
<glyph unicode="&#x16b4;" d="M256 -160v1024v768h256v-512h128v512h256v-512h-128v-256h-256v-1024h-256z" />
<glyph unicode="&#x16b5;" d="M0 -160v512v1280h256v-1024h128v256h128v256h128v512h256v-512h-128v-256h-128v-256h-128v-256h-256v-512h-256zM384 1376v256h128v-256h-128z" />
<glyph unicode="&#x16b6;" d="M128 864v256h128v512h256v-512h128v512h256v-512h-128v-256h-256v-1024h-256v1024h-128z" />
<glyph unicode="&#x16b7;" d="M128 -160v512h128v256h128v256h-128v256h-128v512h256v-512h256v512h256v-512h-128v-256h-128v-256h128v-256h128v-512h-256v512h-256v-512h-256z" />
<glyph unicode="&#x16b8;" d="M128 -160v512h128v256h-128v256h128v-256h128v256h-128v256h-128v512h256v-512h256v512h256v-512h-128v-256h128v-256h-128v256h-128v-256h128v-256h128v-512h-256v512h-256v-512h-256z" />
<glyph unicode="&#x16b9;" d="M128 -160v512v1024v256h512v-256h128v-256h128v-256h-128v-256h-128v-256h-256v-512h-256zM384 608h128v256h128v256h-128v256h-128v-768z" />
<glyph unicode="&#x16ba;" d="M128 -160v1024v768h256v-512h128v-256h-128v-1024h-256zM512 608v256h128v768h256v-768v-1024h-256v768h-128z" />
<glyph unicode="&#x16bb;" d="M128 -160v512v512v768h256v-512h128v-256h-128v-256h128v-256h-128v-512h-256zM512 96v256h128v256h-128v256h128v768h256v-768v-512v-512h-256v256h-128z" />
<glyph unicode="&#x16bc;" d="M128 352v256h128v256h128v256v512h256v-512v-256h128v-256h128v-256h-128v256h-128v-768h-256v768h-128v-256h-128zM128 864v256h128v-256h-128zM768 864v256h128v-256h-128z" />
<glyph unicode="&#x16bd;" d="M256 608v256h128v768h256v-768h128v-256h-128v-768h-256v768h-128z" />
<glyph unicode="&#x16be;" d="M128 608v512h128v-256h128v256v512h256v-512v-256h256v-256v-256h-128v256h-128v-768h-256v768h-256z" />
<glyph unicode="&#x16bf;" d="M256 -160v768v1024h256v-768h256v-256h128v-256h-256v256h-128v-768h-256z" />
<glyph unicode="&#x16c0;" d="M128 608v512h128v-256h128v256v512h256v-512v-256h256v-256v-256h-128v256h-128v-768h-256v768h-256z" />
<glyph unicode="&#x16c1;" d="M384 -160v1792h256v-1792h-256z" />
<glyph unicode="&#x16c2;" d="M256 608v256h128v768h256v-768h128v-256h-128v-768h-256v768h-128z" />
<glyph unicode="&#x16c3;" d="M0 608v256h128v256h256v-256h-128v-256h128v-256h-256v256h-128zM512 96v256h128v256h-128v256h256v-256h128v-256h-128v-256h-256z" />
<glyph unicode="&#x16c4;" d="M128 608v256h128v-256h128v256h-128v256h128v512h256v-512h128v-256h128v-256h-128v256h-128v-256h128v-256h-128v-512h-256v512h-128v256h-128z" />
<glyph unicode="&#x16c5;" d="M128 352v256v256h256v768h256v-768h128v256h128v-256v-256h-256v-768h-256v768h-128v-256h-128z" />
<glyph unicode="&#x16c6;" d="M128 352v256h128v256h256v768h256v-1024v-768h-256v768h-128v-256h-256z" />
<glyph unicode="&#x16c7;" d="M128 96v256h128v-256h-128zM256 96h128v256v1024v256h384v-256h128v-256h-128v256h-128v-1024v-256v-256h-384v256z" />
<glyph unicode="&#x16c8;" d="M128 -160v512v512v768h256v-512h256v512h256v-512h-128v-256h-384v-256h384v-256h128v-512h-256v512h-256v-512h-256z" />
<glyph unicode="&#x16c9;" d="M0 1120v512h256v-512h128v512h128v-512h128v512h256v-512h-128v-256h-128v-1024h-256v1024h-256v256h-128z" />
<glyph unicode="&#x16ca;" d="M256 96v256h128v256h128v256h-128v256h-128v256h128v256h384v-256h-256v-256h128v-256h128v-256h-128v-256h-128v-256h256v-256h-384v256h-128z" />
<glyph unicode="&#x16cb;" d="M256 352v256v1024h256v-768h128v256h128v-256v-256v-768h-256v768h-128v-256h-128z" />
<glyph unicode="&#x16cc;" d="M384 608v1024h256v-1024h-256z" />
<glyph unicode="&#x16cd;" d="M256 608v256h128v768h256v-768h128v-256h-512z" />
<glyph unicode="&#x16ce;" d="M128 1120v256h128v-256h-128zM256 864v256h128v256v256h256v-256v-256h128v-256h-128v-256h-256v256h-128zM768 1120v256h128v-256h-128z" />
<glyph unicode="&#x16cf;" d="M128 864v256h128v256h128v256h256v-256h128v-256h128v-256h-128v256h-128v-1280h-256v1280h-128v-256h-128z" />
<glyph unicode="&#x16d0;" d="M128 864v256h128v256h256v256h256v-512v-1280h-256v1280h-128v-256h-256z" />
<glyph unicode="&#x16d1;" d="M128 864v256h128v256h256v256h256v-512v-512h128v-256h-128v-512h-256v512h-128v256h128v512h-128v-256h-256z" />
<glyph unicode="&#x16d2;" d="M128 -160v1024v512v256h512v-256h128v-256h-128v-256h128v-256h128v-256h-128v-256h-128v-256h-512zM384 96h128v256h128v256h-128v256h-128v-768zM384 1120h128v256h-128v-256z" />
<glyph unicode="&#x16d3;" d="M128 -160v512v512v768h256v-512h128v256h256v-256h-128v-256h128v-256h-128v256h-256v-256h256v-256h-256v-512h-256z" />
<glyph unicode="&#x16d4;" d="M0 -160v1024v512v256h768v-256h128v-256h-128v-256h128v-256v-512h-128v-256h-768zM256 96h384v512v256h-384v-768zM256 1120h128v256h-128v-256zM384 352v256h128v-256h-128zM512 1120h128v256h-128v-256z" />
<glyph unicode="&#x16d5;" d="M128 -160v512v512v768h256v-512h128v256h128v256h256v-256h-128v-256v-256h-384v-256h256v-256h128v-256h128v-256h-256v256h-128v256h-128v-512h-256z" />
<glyph unicode="&#x16d6;" d="M0 -160v1024v768h128v-256h128v-256h384v256h128v256h128v-512v-256v-1024h-256v1024h-128v-256h-128v256h-128v-1024h-256z" />
<glyph unicode="&#x16d7;" d="M128 -160v768v512v512h256v-256h256v256h256v-256v-256v-256v-256v-768h-256v768h-256v-768h-256zM256 864h128v256h-128v-256zM640 864h128v256h-128v-256z" />
<glyph unicode="&#x16d8;" d="M128 1120v512h128v-256h128v256h256v-256h128v256h128v-256v-256h-256v-1280h-256v1280h-256z" />
<glyph unicode="&#x16d9;" d="M256 1376v256h512v-256h-128v-1536h-256v1536h-128z" />
<glyph unicode="&#x16da;" d="M256 -160v1280v512h384v-256h128v-256h128v-256h-256v256h-128v-1280h-256z" />
<glyph unicode="&#x16db;" d="M128 352v256h128v512v512h384v-256h128v-256h128v-256h-256v256h-128v-512h128v-256h-128v-512h-256v512h-128z" />
<glyph unicode="&#x16dc;" d="M128 608v256h128v256h128v256h256v-256h128v-256h128v-256h-128v-256h-128v-256h-256v256h-128v256h-128zM384 608h256v256h-256v-256z" />
<glyph unicode="&#x16dd;" d="M128 -160v512h128v256h-128v256h128v256h-128v512h256v-512h256v512h256v-512h-128v-256h128v-256h-128v-256h128v-512h-256v512h-256v-512h-256zM384 608h256v256h-256v-256z" />
<glyph unicode="&#x16de;" d="M128 96v256v512v768h128v-256h128v-256h256v256h128v256h128v-512v-256v-256v-256v-256v-256h-128v256h-128v256h-256v-256h-128v-256h-128v256zM256 608h128v256h-128v-256zM640 608h128v256h-128v-256z" />
<glyph unicode="&#x16df;" d="M128 96h128v256h128v256h-128v256h-128v256h128v256h128v256h256v-256h128v-256h128v-256h-128v-256h-128v-256h128v-256h128v-256h-256v256h-256v-256h-256v256zM384 864h256v256h-256v-256z" />
<glyph unicode="&#x16e0;" d="M128 864v256v512h128v-256h128v256h256v-256h128v256h128v-256v-256v-256h-128v256h-128v-1280h-256v1280h-128v-256h-128z" />
<glyph unicode="&#x16e1;" d="M128 608v256h128v256h128v256h256v-256h-128v-256h-128v-256h128v-256h128v-256h-256v256h-128v256h-128z" />
<glyph unicode="&#x16e2;" d="M128 864v256v512h128v-256h128v256h256v-256v-256v-1024h128v256h128v-256v-256v-256h-128v256h-128v-256h-256v256v1280h-128v-256h-128z" />
<glyph unicode="&#x16e3;" d="M0 -160v512h128v256h256v1024h256v-1024h128v-256h128v-512h-256v512h-128v-512h-128v512h-128v-512h-256z" />
<glyph unicode="&#x16e4;" d="M0 -160v512h128v256h-128v256h128v256h-128v512h256v-512h128v512h128v-512h128v512h256v-512h-128v-256h128v-256h-128v-256h128v-512h-256v512h-128v-512h-128v512h-128v-512h-256zM256 608h128v256h-128v-256zM512 608h128v256h-128v-256z" />
<glyph unicode="&#x16e5;" d="M128 96v256v512v768h128v-256h128v-256h256v256h128v256h128v-512v-256v-256v-256v-256v-256h-128v256h-128v256h-256v-256h-128v-256h-128v256zM384 608h256v256h-256v-256z" />
<glyph unicode="&#x16e6;" d="M0 -160v512v768v512h384v-256h256v-256h256v-512v-256v-512h-256v512h-128v-512h-128v512h-128v-512h-256zM256 608h384v256h-128v256h-256v-512z" />
<glyph unicode="&#x16e7;" d="M384 -160v1024h256v-1024h-256z" />
<glyph unicode="&#x16e8;" d="M128 352v256h128v-256h-128zM128 864v256h128v256h128v256h256v-256h128v-256h128v-256h-128v256h-128v-512v-256h128v-256h-128v-256h-256v256h-128v256h128v256v512h-128v-256h-128zM768 352v256h128v-256h-128z" />
<glyph unicode="&#x16e9;" d="M0 864v256h128v256h128v256h512v-256v-256v-512v-768h-256v512h-256v256h-128v256h-128zM256 864h128v-256h128v512v256h-128v-256h-128v-256z" />
<glyph unicode="&#x16ea;" d="M0 1120v256h128v256h256v-256h128v-256h-128v-256h256v256h128v-256v-256v-256h128v-256h-128v-256h-256v256h-128v256h128v256h-256v-256h-128v256v512h-128z" />
<glyph unicode="&#x16eb;" d="M384 608v256h256v-256h-256z" />
<glyph unicode="&#x16ec;" d="M384 96v256h256v-256h-256zM384 864v256h256v-256h-256z" />
<glyph unicode="&#x16ed;" d="M128 352v256v512h128v-256h128v256v256h-128v256h512v-256h-128v-256v-256h128v256h128v-256v-256v-256h-128v256h-128v-512h128v-256h-512v256h128v512h-128v-256h-128z" />
<glyph unicode="&#x16ee;" d="M0 352v256v256h256v256v512h384v-256h128v-256h128v-256h-256v256h-128v-512v-768h-256v768h-128v-256h-128z" />
<glyph unicode="&#x16ef;" d="M0 -160v512h128v256h256v256h-256v256h-128v512h256v-512h128v512h128v-512h128v512h256v-512h-128v-256h-128v-256h128v-256h128v-512h-256v512h-128v-512h-128v512h-128v-512h-256z" />
<glyph unicode="&#x16f0;" d="M0 608v256h128v256h256v512h128v-512h256v-256h128v-256h-128v-256h-256v-512h-128v512h-256v256h-128zM256 608h128v256h-128v-256zM512 608h128v256h-128v-256z" />
<glyph unicode="&#x16f1;" d="M128 -160v768v1024h256v-768h384v-256v-256h128v-512h-256v512h-128v256h-128v-768h-256z" />
<glyph unicode="&#x16f2;" d="M256 -160v768v512h128v-256h128v256v512h256v-512v-256v-256v-256h-128v256h-128v-768h-256z" />
<glyph unicode="&#x16f3;" d="M128 864v256h128v-256h128v256h-128v256h128v256h256v-256h128v-256h128v-256h-128v256h-128v-256h128v-256h-128v-768h-256v768h-128v256h-128z" />
<glyph unicode="&#x16f4;" d="M128 352v256h128v1024h256v-768h128v256h256v-256h-128v-256v-768h-256v768h-128v-256h-256z" />
<glyph unicode="&#x16f5;" d="M256 96v256h128v256h-128v256h128v256h-128v256h128v256h256v-256h-128v-256h128v-256h-128v-256h128v-256h-128v-256h128v-256h-256v256h-128z" />
<glyph unicode="&#x16f6;" d="M128 352v256h256v256h-128v256h-128v512h256v-512h128v-256h128v-256h128v-256h128v-512h-256v512h-128v256h-128v-256h-256zM640 864v256h256v-256h-256z" />
<glyph unicode="&#x16f7;" d="M128 -160v1024v768h256v-512h384v-256h128v-1024h-256v1024h-256v-1024h-256z" />
<glyph unicode="&#x16f8;" d="M128 -160v512h128v256h128v1024h256v-1024h128v-256h128v-512h-256v512h-256v-512h-256z" />
<glyph unicode="&#x1e00;" d="M128 -32v640v512h128v128h128v128h256v-128h128v-128h128v-384v-128v-640h-256v640h-256v-640h-256zM256 -160h128v-128h256v-128h-256v128h-128v128zM384 -32h256v-128h-256v128zM384 736h256v384h-256v-384zM640 -160h128v-128h-128v128z" />
<glyph unicode="&#x1e01;" d="M128 96v384h128v128h384v128h-384v128h512v-128h128v-256v-384v-128h-256v-128h128v-128h-128v128h-256v-128h-128v128h128v128h-128v128h-128zM384 96h256v384h-256v-384zM384 -288h256v-128h-256v128z" />
<glyph unicode="&#x1e02;" d="M128 -32v640v512v128h640v-128h128v-256h-128v-128h-128v-128h128v-128h128v-384h-128v-128h-640zM384 96h256v384h-128v128h-128v-512zM384 736h128v128h128v256h-256v-384zM384 1376v256h256v-256h-256z" />
<glyph unicode="&#x1e04;" d="M128 -32v640v640v128h640v-128h128v-384h-128v-128h-128v-128h128v-128h128v-384h-128v-128h-640zM384 96h256v384h-128v128h-128v-512zM384 -160h256v-256h-256v256zM384 736h128v128h128v384h-256v-512z" />
<glyph unicode="&#x1e05;" d="M128 -32v768v640h256v-512h384v-128h128v-640h-128v-128h-640zM384 96h256v640h-256v-640zM384 -160h256v-256h-256v256z" />
<glyph unicode="&#x1e06;" d="M128 -32v640v640v128h640v-128h128v-384h-128v-128h-128v-128h128v-128h128v-384h-128v-128h-640zM128 -160h768v-128h-768v128zM384 96h256v384h-128v128h-128v-512zM384 736h128v128h128v384h-256v-512z" />
<glyph unicode="&#x1e07;" d="M128 -32v768v640h256v-512h384v-128h128v-640h-128v-128h-640zM128 -160h768v-128h-768v128zM384 96h256v640h-256v-640z" />
<glyph unicode="&#x1e0a;" d="M128 -32v1152v128h512v-128h128v-128h128v-768h-128v-128h-128v-128h-512zM384 96h128v128h128v768h-128v128h-128v-1024zM384 1376v256h256v-256h-256z" />
<glyph unicode="&#x1e0c;" d="M128 -32v1280v128h512v-128h128v-128h128v-896h-128v-128h-128v-128h-512zM384 96h128v128h128v896h-128v128h-128v-1152zM384 -160h256v-256h-256v256z" />
<glyph unicode="&#x1e0d;" d="M128 96v640h128v128h384v512h256v-640v-640v-128h-640v128h-128zM384 96h256v640h-256v-640zM384 -160h256v-256h-256v256z" />
<glyph unicode="&#x1e0e;" d="M128 -32v1280v128h512v-128h128v-128h128v-896h-128v-128h-128v-128h-512zM128 -160h768v-128h-768v128zM384 96h128v128h128v896h-128v128h-128v-1152z" />
<glyph unicode="&#x1e0f;" d="M128 96v640h128v128h384v512h256v-640v-640v-128h-640v128h-128zM128 -160h768v-128h-768v128zM384 96h256v640h-256v-640z" />
<glyph unicode="&#x1e41;" d="M0 -32v640v256h256v-128h256v128h256v-128h128v-128v-640h-256v640h-128v-512h-128v512h-128v-640h-256zM384 1120v256h256v-256h-256z" />
<glyph unicode="&#x1e42;" d="M0 -32v896v512h256v-128h128v-256h128v256h128v128h256v-384v-128v-896h-256v896h-128v-256h-128v256h-128v-896h-256zM384 -160h256v-256h-256v256z" />
<glyph unicode="&#x1e43;" d="M0 -32v640v256h256v-128h256v128h256v-128h128v-128v-640h-256v640h-128v-512h-128v512h-128v-640h-256zM384 -160h256v-256h-256v256z" />
<glyph unicode="&#x1e44;" d="M0 -32v640v768h256v-256h128v-256h128v-128h128v640h256v-640v-128v-640h-256v256h-128v256h-128v128h-128v-640h-256zM384 1376v256h256v-256h-256z" />
<glyph unicode="&#x1e45;" d="M128 -32v768v128h640v-128h128v-768h-256v768h-256v-768h-256zM384 1120v256h256v-256h-256z" />
<glyph unicode="&#x1e46;" d="M0 -32v640v768h256v-256h128v-256h128v-128h128v640h256v-640v-128v-640h-256v256h-128v256h-128v128h-128v-640h-256zM384 -160h256v-256h-256v256z" />
<glyph unicode="&#x1e47;" d="M128 -32v768v128h640v-128h128v-768h-256v768h-256v-768h-256zM384 -160h256v-256h-256v256z" />
<glyph unicode="&#x1e48;" d="M0 -32v640v768h256v-256h128v-256h128v-128h128v640h256v-640v-128v-640h-256v256h-128v256h-128v128h-128v-640h-256zM128 -160h768v-128h-768v128z" />
<glyph unicode="&#x1e49;" d="M128 -32v768v128h640v-128h128v-768h-256v768h-256v-768h-256zM128 -160h768v-128h-768v128z" />
<glyph unicode="&#x1e4a;" d="M0 -32v640v768h256v-256h128v-256h128v-128h128v640h256v-640v-128v-640h-256v256h-128v256h-128v128h-128v-640h-256zM128 -160h256v-128h256v128h256v-128h-128v-128h-512v128h-128v128z" />
<glyph unicode="&#x1e4b;" d="M128 -32v768v128h640v-128h128v-768h-256v768h-256v-768h-256zM128 -160h256v-128h256v128h256v-128h-128v-128h-512v128h-128v128z" />
<glyph unicode="&#x1e58;" d="M128 -32v640v512v128h640v-128h128v-384h-128v-128v-128h128v-512h-256v512h-128v128h-128v-640h-256zM384 736h256v384h-256v-384zM384 1376v256h256v-256h-256z" />
<glyph unicode="&#x1e59;" d="M128 -32v768v128h640v-128h128v-256h-256v256h-256v-768h-256zM384 1120v256h256v-256h-256z" />
<glyph unicode="&#x1e5a;" d="M128 -32v640v640v128h640v-128h128v-512h-128v-128v-128h128v-512h-256v512h-128v128h-128v-640h-256zM384 -160h256v-256h-256v256zM384 736h256v512h-256v-512z" />
<glyph unicode="&#x1e5b;" d="M128 -32v768v128h640v-128h128v-256h-256v256h-256v-768h-256zM384 -160h256v-256h-256v256z" />
<glyph unicode="&#x1e5e;" d="M128 -32v640v640v128h640v-128h128v-512h-128v-128v-128h128v-512h-256v512h-128v128h-128v-640h-256zM128 -160h768v-128h-768v128zM384 736h256v512h-256v-512z" />
<glyph unicode="&#x2000;" horiz-adv-x="816" />
<glyph unicode="&#x2001;" horiz-adv-x="1632" />
<glyph unicode="&#x2002;" horiz-adv-x="816" />
<glyph unicode="&#x2003;" horiz-adv-x="1632" />
<glyph unicode="&#x2004;" horiz-adv-x="544" />
<glyph unicode="&#x2005;" horiz-adv-x="408" />
<glyph unicode="&#x2006;" horiz-adv-x="272" />
<glyph unicode="&#x2007;" horiz-adv-x="272" />
<glyph unicode="&#x2008;" horiz-adv-x="204" />
<glyph unicode="&#x2009;" horiz-adv-x="326" />
<glyph unicode="&#x200a;" horiz-adv-x="90" />
<glyph unicode="&#x2010;" d="M256 608v128h512v-128h-512z" />
<glyph unicode="&#x2011;" d="M256 608v128h512v-128h-512z" />
<glyph unicode="&#x2012;" d="M128 608v128h640v-128h-640z" />
<glyph unicode="&#x2013;" d="M0 608v128h896v-128h-896z" />
<glyph unicode="&#x2014;" d="M0 608v128h1024v-128h-1024z" />
<glyph unicode="&#x2015;" d="M0 608v128h896v-128h-896z" />
<glyph unicode="&#x2016;" d="M128 -160v1792h256v-1792h-256zM512 -160v1792h256v-1792h-256z" />
<glyph unicode="&#x2017;" d="M0 -32h1024v-128h-1024v128zM0 -288h1024v-128h-1024v128z" />
<glyph unicode="&#x2018;" d="M256 1504v128h256v-128h128v-128h-256v128h-128z" />
<glyph unicode="&#x2019;" d="M384 1376v128h128v128h256v-128h-128v-128h-256z" />
<glyph unicode="&#x201c;" d="M0 1504v128h256v-128h128v-128h-256v128h-128zM512 1504v128h256v-128h128v-128h-256v128h-128z" />
<glyph unicode="&#x201d;" d="M0 1376v128h128v128h256v-128h-128v-128h-256zM512 1376v128h128v128h256v-128h-128v-128h-256z" />
<glyph unicode="&#x2020;" d="M128 864v128h256v384h256v-384h256v-128h-256v-896h-256v896h-256z" />
<glyph unicode="&#x2021;" d="M128 352v128h256v384h-256v128h256v384h256v-384h256v-128h-256v-384h256v-128h-256v-384h-256v384h-256z" />
<glyph unicode="&#x2022;" d="M256 352v512h128v256h256v-256h128v-512h-128v-256h-256v256h-128z" />
<glyph unicode="&#x2024;" d="M384 -32v384h256v-384h-256z" />
<glyph unicode="&#x2025;" d="M128 -160v512h256v-512h-256zM640 -160v512h256v-512h-256z" />
<glyph unicode="&#x2026;" d="M0 -32v256h128v-256h-128zM384 -32v256h128v-256h-128zM768 -32v256h128v-256h-128z" />
<glyph unicode="&#x202f;" horiz-adv-x="326" />
<glyph unicode="&#x2030;" d="M0 -160v512h128v256h256v256h128v256h128v256h256v-256h-128v-256h-128v-256h-256v-256h256v-512h-256v512h-128v-512h-256zM0 864v512h256v-512h-256zM768 -160v512h256v-512h-256z" />
<glyph unicode="&#x2031;" d="M0 -160v512h128v256h256v256h128v256h128v256h256v-256h-128v-256h-128v-256h-256v-256h128v-512h-128v512h-128v-512h-256zM0 864v512h256v-512h-256zM640 -160v512h128v-512h-128zM896 -160v512h128v-512h-128z" />
<glyph unicode="&#x203c;" d="M128 96h256v-256h-256v256zM128 352v1280h256v-1280h-256zM640 96h256v-256h-256v256zM640 352v1280h256v-1280h-256z" />
<glyph unicode="&#x2047;" d="M0 96h256v-256h-256v256zM0 352v512h128v512h-128v256h256v-256h128v-512h-128v-512h-256zM512 96h256v-256h-256v256zM512 352v512h128v512h-128v256h256v-256h128v-512h-128v-512h-256z" />
<glyph unicode="&#x2048;" d="M0 96h256v-256h-256v256zM0 352v256h128v256h128v512h-256v256h384v-256h128v-512h-128v-256h-128v-256h-256zM640 96h256v-256h-256v256zM640 352v256v256v768h256v-768v-256v-256h-256z" />
<glyph unicode="&#x2049;" d="M0 96h256v-256h-256v256zM0 352v1280h256v-1280h-256zM384 96h256v-256h-256v256zM384 352v256h128v256h128v512h-256v256h384v-256h128v-512h-128v-256h-128v-256h-256z" />
<glyph unicode="&#x205f;" horiz-adv-x="408" />
<glyph unicode="&#x2070;" d="M128 736v640h128v128h384v-128h128v-640h-128v-128h-384v128h-128zM384 736h128v640h-128v-640z" />
<glyph unicode="&#x2074;" d="M128 992v256h128v128h128v128h384v-256v-128h128v-128h-128v-384h-256v384h-384zM384 1120h128v128h-128v-128z" />
<glyph unicode="&#x2075;" d="M128 736v128h256v-128h128v128v256h-384v256v128h640v-128h-384v-128h256v-128h128v-256v-128h-128v-128h-384v128h-128z" />
<glyph unicode="&#x2076;" d="M128 736v256v384h128v128h384v-128h-256v-256h256v-128h128v-256h-128v-128h-384v128h-128zM384 736h128v256h-128v-256z" />
<glyph unicode="&#x2077;" d="M128 1376v128h640v-384h-128v-128h-128v-384h-256v384h128v128h128v256h-384z" />
<glyph unicode="&#x2078;" d="M128 736v256h128v128h-128v256h128v128h384v-128h128v-256h-128v-128h128v-256h-128v-128h-384v128h-128zM384 736h128v256h-128v-256zM384 1120h128v256h-128v-256z" />
<glyph unicode="&#x2079;" d="M128 1120v256h128v128h384v-128h128v-256v-384h-128v-128h-384v128h256v256h-256v128h-128zM384 1120h128v256h-128v-256z" />
<glyph unicode="&#x207f;" d="M128 608v512v128h512v-128h128v-512h-256v512h-128v-512h-256z" />
<glyph unicode="&#x20a7;" d="M0 96v128h128v768v384h-128v128h768v-128h128v-256h-128v-128h128v-256h128v-128h-128v-384h128v-128h-256v128h-128v384h-128v128h128v128h128v128h-384v-768h128v-128h-512zM384 1120h256v256h-256v-256z" />
<glyph unicode="&#x20ac;" d="M0 480v128h128v128h-128v128h128v384h128v128h512v-128h128v-256h-256v256h-256v-384h384v-128h-384v-128h256v-128h-256v-384h256v256h256v-256h-128v-128h-512v128h-128v384h-128z" />
<glyph unicode="&#x2117;" d="M0 -160v1536h128v256h768v-256h128v-256v-256v-512v-512h-128v512v512v256v256h-768v-1536h-128zM128 -160h768v-256h-768v256zM256 96v256v512v256h384v-256h128v-256h-128v256h-256v-256h256v-256h-256v-256h-128z" />
<glyph unicode="&#x2120;" d="M0 608v128h256v-128h-256zM0 1120v256h128v128h256v-128h-256v-256h-128zM128 992v128h128v-128h128v-256h-128v256h-128zM512 608v128v384v256v128h128v-128h128v128h128v-128v-256v-384v-128h-128v128v384h-128v-384v-128h-128z" />
<glyph unicode="&#x2122;" d="M0 1376v128h384v-128h-128v-768h-128v768h-128zM512 608v512v256v128h128v-128h128v128h128v-128v-256v-512h-128v512h-128v-512h-128z" />
<glyph unicode="&#x2190;" d="M128 480v256h128v128h128v128h128v-256h512v-256h-512v-256h-128v128h-128v128h-128z" />
<glyph unicode="&#x2191;" d="M128 1248v128h128v128h128v128h256v-128h128v-128h128v-128h-256v-1664h-256v1664h-256z" />
<glyph unicode="&#x2192;" d="M0 480v256h512v256h128v-128h128v-128h128v-256h-128v-128h-128v-128h-128v128v128h-512z" />
<glyph unicode="&#x2194;" d="M0 480v256h128v128h128v128h128v-256h256v256h128v-128h128v-128h128v-256h-128v-128h-128v-128h-128v128v128h-256v-256h-128v128h-128v128h-128z" />
<glyph unicode="&#x2196;" d="M0 608v256v512v256h512v-256h-128v-256h128v-256h128v-256h128v-256h128v-256h-128v-256h-128v256h-128v256h-128v256h-128v256h-128v-256h-128z" />
<glyph unicode="&#x2197;" d="M128 96v256h128v256h128v256h128v256h128v256h-128v256h512v-768v-256h-128v256h-128v-256h-128v-256h-128v-256h-128v-256h-128v256h-128z" />
<glyph unicode="&#x2198;" d="M128 864v256h128v256h128v-256h128v-256h128v-256h128v-256h128v256h128v-256v-768h-512v256h128v256h-128v256h-128v256h-128v256h-128z" />
<glyph unicode="&#x2199;" d="M0 96v512h128v-256h128v256h128v256h128v256h128v256h128v-256h128v-256h-128v-256h-128v-256h-128v-256h-128v-256h128v-256h-512v512z" />
<glyph unicode="&#x21a5;" d="M128 -32h256v1280h-256v128h128v128h128v128h256v-128h128v-128h128v-128h-256v-1280h256v-128h-128v-128h-128v-128h-256v128h-128v128h-128v128z" />
<glyph unicode="&#x21a8;" d="M0 -288h384v128h-128v128h-128v128h256v1152h-256v128h128v128h128v128h256v-128h128v-128h128v-128h-256v-1152h256v-128h-128v-128h-128v-128h384v-128h-1024v128z" />
<glyph unicode="&#x21e6;" d="M0 352v512h128v256h128v256h128v256h256v-512h384v-256v-768h-384v-512h-256v256h-128v256h-128v256h-128zM256 352h128v-256h128v256h384v512h-384v256h-128v-256h-128v-512z" />
<glyph unicode="&#x21e7;" d="M0 352v512h128v256h128v256h128v256h256v-256h128v-256h128v-256h128v-512h-256v-512v-256h-512v768h-256zM256 608h128v-768h256v512v256h128v256h-128v256h-256v-256h-128v-256z" />
<glyph unicode="&#x21e8;" d="M0 96v768v256h384v512h256v-256h128v-256h128v-256h128v-512h-128v-256h-128v-256h-128v-256h-256v256v256h-384zM128 352h384v-256h128v256h128v512h-128v256h-128v-256h-384v-512z" />
<glyph unicode="&#x21e9;" d="M0 352v256v256h256v512v256h512v-256v-512h256v-256v-256h-128v-256h-128v-256h-128v-256h-256v256h-128v256h-128v256h-128zM256 352h128v-256h256v256h128v256h-128v768h-256v-768h-128v-256z" />
<glyph unicode="&#x2212;" d="M128 608v128h768v-128h-768z" />
<glyph unicode="&#x2218;" d="M128 352v512h128v256h512v-256h128v-512h-128v-256h-512v256h-128zM384 352h256v512h-256v-512z" />
<glyph unicode="&#x221a;" d="M0 352v256h256v-256h128v-128h128v384h128v640h128v256h256v-256h-128v-640h-128v-384h-128v-256h-256v128h-128v128h-128v128h-128z" />
<glyph unicode="&#x221e;" d="M0 480v384h128v128h384v-128h128v-384h128v384h-128v128h256v-128h128v-384h-128v-128h-384v128h-128v384h-128v-384h128v-128h-256v128h-128z" />
<glyph unicode="&#x221f;" d="M0 736v128h896v-640h-256v512h-640z" />
<glyph unicode="&#x2229;" d="M128 96v1024h128v128h512v-128h128v-1024h-256v1024h-256v-1024h-256z" />
<glyph unicode="&#x2248;" d="M0 224v128v128h128v128h384v-128v-128h128v128h128v128h128v-128v-128h-128v-128h-384v128v128h-128v-128h-128v-128h-128zM0 736v128v128h128v128h384v-128v-128h128v128h128v128h128v-128v-128h-128v-128h-384v128v128h-128v-128h-128v-128h-128z" />
<glyph unicode="&#x2261;" d="M128 224v128h768v-128h-768zM128 608v128h768v-128h-768zM128 992v128h768v-128h-768z" />
<glyph unicode="&#x2264;" d="M128 -32v128h768v-128h-768zM128 608v128h128v128h128v128h128v128h256v-128h-128v-128h-128v-128h-128v-128h128v-128h128v-128h128v-128h-256v128h-128v128h-128v128h-128z" />
<glyph unicode="&#x2265;" d="M128 -32v128h768v-128h-768zM256 224v128h128v128h128v128h128v128h-128v128h-128v128h-128v128h256v-128h128v-128h128v-128h128v-128h-128v-128h-128v-128h-128v-128h-256z" />
<glyph unicode="&#x22c5;" d="M384 608v512h256v-512h-256z" />
<glyph unicode="&#x2320;" d="M384 -416v1664h128v128h384v-128h128v-384h-256v384h-128v-1664h-256z" />
<glyph unicode="&#x2321;" d="M0 96v384h256v-384h128v384v1152h256v-1152v-384h-128v-128h-384v128h-128z" />
<glyph unicode="&#x23ea;" d="M0 352v256h128v256h128v256h128v-1280h-128v256h-128v256h-128zM512 352v256h128v256h128v256h128v-1280h-128v256h-128v256h-128z" />
<glyph unicode="&#x23eb;" d="M128 96h128v256h128v256h128v-256h128v-256h128v-256h-640v256zM128 864v256h128v256h128v256h128v-256h128v-256h128v-256h-640z" />
<glyph unicode="&#x23ec;" d="M0 96v256v768h128v-256h128v-256h128v-256h-128v-256h-128v-256h-128v256zM512 96v256v768h128v-256h128v-256h128v-256h-128v-256h-128v-256h-128v256z" />
<glyph unicode="&#x2500;" d="M0 480v256h1024v-256h-1024z" />
<glyph unicode="&#x2501;" d="M0 352v512h1024v-512h-1024z" />
<glyph unicode="&#x2502;" d="M384 -416v2048h256v-2048h-256z" />
<glyph unicode="&#x2503;" d="M256 -416v2048h512v-2048h-512z" />
<glyph unicode="&#x2504;" d="M0 480v256h256v-256h-256zM384 480v256h256v-256h-256zM768 480v256h256v-256h-256z" />
<glyph unicode="&#x2505;" d="M0 352v512h256v-512h-256zM384 352v512h256v-512h-256zM768 352v512h256v-512h-256z" />
<glyph unicode="&#x2506;" d="M384 96h256v-256h-256v256zM384 224v256h256v-256h-256zM384 -288h256v-128h-256v128zM384 608v256h256v-256h-256zM384 992v256h256v-256h-256zM384 1376v256h256v-256h-256z" />
<glyph unicode="&#x2507;" d="M256 96v768h512v-768h-512zM256 -160h512v-256h-512v256zM256 1120v512h512v-512h-512z" />
<glyph unicode="&#x2508;" d="M0 480v256h128v-256h-128zM256 480v256h128v-256h-128zM512 480v256h128v-256h-128zM768 480v256h128v-256h-128z" />
<glyph unicode="&#x2509;" d="M0 352v512h128v-512h-128zM256 352v512h128v-512h-128zM512 352v512h128v-512h-128zM768 352v512h128v-512h-128z" />
<glyph unicode="&#x250a;" d="M384 -32v128h256v-128h-256zM384 -160h256v-128h-256v128zM384 224v128h256v-128h-256zM384 480v128h256v-128h-256zM384 736v128h256v-128h-256zM384 992v128h256v-128h-256zM384 1248v128h256v-128h-256zM384 1504v128h256v-128h-256z" />
<glyph unicode="&#x250b;" d="M256 -32v128h512v-128h-512zM256 -160h512v-128h-512v128zM256 224v128h512v-128h-512zM256 480v128h512v-128h-512zM256 736v128h512v-128h-512zM256 992v128h512v-128h-512zM256 1248v128h512v-128h-512zM256 1504v128h512v-128h-512z" />
<glyph unicode="&#x250c;" d="M384 -416v896v256h640v-256h-384v-896h-256z" />
<glyph unicode="&#x250d;" d="M384 352v256h128v256h512v-512h-384v-768h-256v768z" />
<glyph unicode="&#x250e;" d="M256 -416v896v384h512v-128h256v-256h-256v-896h-512z" />
<glyph unicode="&#x250f;" d="M256 352v512h768v-512h-256v-768h-512v768z" />
<glyph unicode="&#x2510;" d="M0 480v256h640v-1152h-256v896h-384z" />
<glyph unicode="&#x2511;" d="M0 352v512h640v-1280h-256v768h-384z" />
<glyph unicode="&#x2512;" d="M0 480v256h256v128h512v-1280h-512v896h-256z" />
<glyph unicode="&#x2513;" d="M0 352v512h768v-1280h-512v768h-256z" />
<glyph unicode="&#x2514;" d="M384 480v1152h256v-896h384v-256h-640z" />
<glyph unicode="&#x2515;" d="M384 608v1024h256v-768h384v-512h-512v256h-128z" />
<glyph unicode="&#x2516;" d="M256 608v1024h512v-896h256v-256h-640v128h-128z" />
<glyph unicode="&#x2517;" d="M256 608v1024h512v-768h256v-512h-512v256h-256z" />
<glyph unicode="&#x2518;" d="M0 480v256h384v896h256v-1152h-640z" />
<glyph unicode="&#x2519;" d="M0 352v512h384v768h256v-1280h-640z" />
<glyph unicode="&#x251a;" d="M0 480v128v128h256v896h512v-1024h-128v-128h-640z" />
<glyph unicode="&#x251b;" d="M0 352v256v256h256v768h512v-1024h-128v-256h-640z" />
<glyph unicode="&#x251c;" d="M384 -416v896v1152h256v-896h384v-256h-384v-896h-256z" />
<glyph unicode="&#x251d;" d="M384 352v1280h256v-768h384v-512h-384v-768h-256v768z" />
<glyph unicode="&#x251e;" d="M256 608v1024h512v-896h256v-256h-384v-896h-256v896v128h-128z" />
<glyph unicode="&#x251f;" d="M256 352v512h128v768h256v-768h384v-512h-256v-768h-512v768z" />
<glyph unicode="&#x2520;" d="M256 -416v896v1152h512v-896h256v-256h-256v-896h-512z" />
<glyph unicode="&#x2521;" d="M256 608v1024h512v-768h256v-512h-384v-768h-256v768v256h-128z" />
<glyph unicode="&#x2522;" d="M256 -416v896v384h128v768h256v-768h128v-128h256v-256h-256v-896h-512z" />
<glyph unicode="&#x2523;" d="M256 352v1280h512v-768h256v-512h-256v-768h-512v768z" />
<glyph unicode="&#x2524;" d="M0 480v256h384v896h256v-2048h-256v896h-384z" />
<glyph unicode="&#x2525;" d="M0 352v512h384v768h256v-2048h-256v768h-384z" />
<glyph unicode="&#x2526;" d="M0 480v128v128h256v896h512v-1024h-128v-1024h-256v896h-384z" />
<glyph unicode="&#x2527;" d="M0 352v512h384v768h256v-768h128v-1280h-512v768h-256z" />
<glyph unicode="&#x2528;" d="M0 480v256h256v896h512v-2048h-512v896h-256z" />
<glyph unicode="&#x2529;" d="M0 352v256v256h256v768h512v-1024h-128v-1024h-256v768h-384z" />
<glyph unicode="&#x252a;" d="M0 480v256h256v128h128v768h256v-768h128v-1280h-512v896h-256z" />
<glyph unicode="&#x252b;" d="M0 352v512h256v768h512v-2048h-512v768h-256z" />
<glyph unicode="&#x252c;" d="M0 480v256h1024v-256h-384v-896h-256v896h-384z" />
<glyph unicode="&#x252d;" d="M0 352v128v384h640v-128h384v-256h-384v-896h-256v768h-384z" />
<glyph unicode="&#x252e;" d="M0 480v256h512v128h512v-512h-384v-768h-256v768v128h-384z" />
<glyph unicode="&#x252f;" d="M0 352v512h1024v-512h-384v-768h-256v768h-384z" />
<glyph unicode="&#x2530;" d="M0 480v256h256v128h512v-128h256v-256h-256v-896h-512v896h-256z" />
<glyph unicode="&#x2531;" d="M0 352v128v384h768v-128h256v-256h-256v-896h-512v768h-256z" />
<glyph unicode="&#x2532;" d="M0 480v256h256v128h768v-512h-256v-768h-512v768v128h-256z" />
<glyph unicode="&#x2533;" d="M0 352v512h1024v-512h-256v-768h-512v768h-256z" />
<glyph unicode="&#x2534;" d="M0 480v256h384v896h256v-896h384v-256h-1024z" />
<glyph unicode="&#x2535;" d="M0 352v128v384h384v768h256v-896h384v-256h-384v-128h-640z" />
<glyph unicode="&#x2536;" d="M0 480v256h384v896h256v-768h384v-512h-512v128h-512z" />
<glyph unicode="&#x2537;" d="M0 352v512h384v768h256v-768h384v-512h-1024z" />
<glyph unicode="&#x2538;" d="M0 480v256h256v896h512v-896h256v-256h-1024z" />
<glyph unicode="&#x2539;" d="M0 352v128v384h256v768h512v-896h256v-256h-384v-128h-640z" />
<glyph unicode="&#x253a;" d="M0 480v256h256v896h512v-768h256v-512h-512v128h-512z" />
<glyph unicode="&#x253b;" d="M0 352v512h256v768h512v-768h256v-512h-1024z" />
<glyph unicode="&#x253c;" d="M0 480v256h384v896h256v-896h384v-256h-384v-896h-256v896h-384z" />
<glyph unicode="&#x253d;" d="M0 352v128v384h384v768h256v-896h384v-256h-384v-896h-256v768h-384z" />
<glyph unicode="&#x253e;" d="M0 480v256h384v896h256v-768h384v-512h-384v-768h-256v768v128h-384z" />
<glyph unicode="&#x253f;" d="M0 352v512h384v768h256v-768h384v-512h-384v-768h-256v768h-384z" />
<glyph unicode="&#x2540;" d="M0 480v256h256v896h512v-896h256v-256h-384v-896h-256v896h-384z" />
<glyph unicode="&#x2541;" d="M0 480v256h256v128h128v768h256v-768h128v-128h256v-256h-256v-896h-512v896h-256z" />
<glyph unicode="&#x2542;" d="M0 480v256h256v896h512v-896h256v-256h-256v-896h-512v896h-256z" />
<glyph unicode="&#x2543;" d="M0 352v128v384h256v768h512v-896h256v-256h-384v-896h-256v768h-384z" />
<glyph unicode="&#x2544;" d="M0 480v256h256v896h512v-768h256v-512h-384v-768h-256v768v128h-384z" />
<glyph unicode="&#x2545;" d="M0 352v128v384h384v768h256v-768h128v-128h256v-256h-256v-896h-512v768h-256z" />
<glyph unicode="&#x2546;" d="M0 480v256h256v128h128v768h256v-768h384v-512h-256v-768h-512v768v128h-256z" />
<glyph unicode="&#x2547;" d="M0 352v512h256v768h512v-768h256v-512h-384v-768h-256v768h-384z" />
<glyph unicode="&#x2548;" d="M0 352v512h384v768h256v-768h384v-512h-256v-768h-512v768h-256z" />
<glyph unicode="&#x2549;" d="M0 352v128v384h256v768h512v-896h256v-256h-256v-896h-512v768h-256z" />
<glyph unicode="&#x254a;" d="M0 480v256h256v896h512v-768h256v-512h-256v-768h-512v768v128h-256z" />
<glyph unicode="&#x254b;" d="M0 352v512h256v768h512v-768h256v-512h-256v-768h-512v768h-256z" />
<glyph unicode="&#x254c;" d="M0 480v256h384v-256h-384zM512 480v256h384v-256h-384z" />
<glyph unicode="&#x254d;" d="M0 352v512h384v-512h-384zM512 352v512h384v-512h-384z" />
<glyph unicode="&#x254e;" d="M384 96h256v-384h-256v384zM384 224v384h256v-384h-256zM384 736v384h256v-384h-256zM384 1248v384h256v-384h-256z" />
<glyph unicode="&#x254f;" d="M256 96h512v-384h-512v384zM256 224v384h512v-384h-512zM256 736v384h512v-384h-512zM256 1248v384h512v-384h-512z" />
<glyph unicode="&#x2550;" d="M0 480v128h1024v-128h-1024zM0 736v128h1024v-128h-1024z" />
<glyph unicode="&#x2551;" d="M128 -416v2048h256v-2048h-256zM512 -416v2048h256v-2048h-256z" />
<glyph unicode="&#x2552;" d="M384 -416v896v256v128h640v-128h-384v-128h384v-128h-384v-896h-256z" />
<glyph unicode="&#x2553;" d="M128 -416v896v256h896v-256h-256v-896h-256v896h-128v-896h-256z" />
<glyph unicode="&#x2554;" d="M128 -416v1152v128h896v-128h-640v-1152h-256zM512 -416v896v128h512v-128h-256v-896h-256z" />
<glyph unicode="&#x2555;" d="M0 480v128h384v128h-384v128h640v-1280h-256v896h-384z" />
<glyph unicode="&#x2556;" d="M0 480v256h768v-256v-896h-256v896h-128v-896h-256v896h-128z" />
<glyph unicode="&#x2557;" d="M0 480v128h384v-1024h-256v896h-128zM0 736v128h768v-256v-1024h-256v1024v128h-512z" />
<glyph unicode="&#x2558;" d="M384 480v256v896h256v-768h384v-128h-384v-128h384v-128h-640z" />
<glyph unicode="&#x2559;" d="M128 608v1024h256v-768h128v768h256v-768h256v-256h-896z" />
<glyph unicode="&#x255a;" d="M128 480v1152h256v-1024h640v-128h-896zM512 736v896h256v-768h256v-128h-512z" />
<glyph unicode="&#x255b;" d="M0 480v128h384v128h-384v128h384v768h256v-1152h-640z" />
<glyph unicode="&#x255c;" d="M0 608v256h128v768h256v-768h128v768h256v-768v-256h-768z" />
<glyph unicode="&#x255d;" d="M0 480v128h512v1024h256v-1152h-768zM0 736v128h128v768h256v-896h-384z" />
<glyph unicode="&#x255e;" d="M384 -416v896v256v896h256v-768h384v-128h-384v-128h384v-128h-384v-896h-256z" />
<glyph unicode="&#x255f;" d="M128 -416v2048h256v-2048h-256zM512 -416v896v1152h256v-896h256v-256h-256v-896h-256z" />
<glyph unicode="&#x2560;" d="M128 -416v2048h256v-2048h-256zM512 -416v896v128h512v-128h-256v-896h-256zM512 736v896h256v-768h256v-128h-512z" />
<glyph unicode="&#x2561;" d="M0 480v128h384v128h-384v128h384v768h256v-2048h-256v896h-384z" />
<glyph unicode="&#x2562;" d="M0 480v256h128v896h256v-2048h-256v896h-128zM512 -416v2048h256v-2048h-256z" />
<glyph unicode="&#x2563;" d="M0 480v128h384v-1024h-256v896h-128zM0 736v128h128v768h256v-896h-384zM512 -416v1024v1024h256v-1024v-1024h-256z" />
<glyph unicode="&#x2564;" d="M0 480v128h1024v-128h-384v-896h-256v896h-384zM0 736v128h1024v-128h-1024z" />
<glyph unicode="&#x2565;" d="M0 480v256h1024v-256h-256v-896h-256v896h-128v-896h-256v896h-128z" />
<glyph unicode="&#x2566;" d="M0 480v128h384v-1024h-256v896h-128zM0 736v128h1024v-128h-1024zM512 -416v896v128h512v-128h-256v-896h-256z" />
<glyph unicode="&#x2567;" d="M0 480v128h1024v-128h-1024zM0 736v128h384v768h256v-768h384v-128h-1024z" />
<glyph unicode="&#x2568;" d="M0 480v256h384v896h256v-768h384v-384h-1024z" />
<glyph unicode="&#x2569;" d="M0 480v128h1024v-128h-1024zM0 736v128h128v768h256v-896h-384zM512 736v896h256v-768h256v-128h-512z" />
<glyph unicode="&#x256a;" d="M0 480v128h384v128h-384v128h384v768h256v-768h384v-128h-384v-128h384v-128h-384v-896h-256v896h-384z" />
<glyph unicode="&#x256b;" d="M0 480v256h128v896h256v-896h128v896h256v-896h256v-256h-256v-896h-256v896h-128v-896h-256v896h-128z" />
<glyph unicode="&#x256c;" d="M0 480v128h384v-1024h-256v896h-128zM0 736v128h128v768h256v-896h-384zM512 -416v896v128h512v-128h-256v-896h-256zM512 736v896h256v-768h256v-128h-512z" />
<glyph unicode="&#x256d;" d="M384 352v128h128v128h128v128h384v-256h-256v-128h-128v-768h-256v768z" />
<glyph unicode="&#x256e;" d="M0 480v256h384v-128h128v-128h128v-896h-256v768h-128v128h-256z" />
<glyph unicode="&#x256f;" d="M0 608v128v128h256v128h128v640h256v-768h-128v-128h-128v-128h-384z" />
<glyph unicode="&#x2570;" d="M384 864v768h256v-640h128v-128h256v-256h-384v128h-128v128h-128z" />
<glyph unicode="&#x2571;" d="M0 96h128v256h128v256h128v256h128v256h128v256h128v256h256v-256h-128v-256h-128v-256h-128v-256h-128v-256h-128v-256h-128v-256h-128v-256h-128v256v256z" />
<glyph unicode="&#x2572;" d="M0 1376v256h256v-256h128v-256h128v-256h128v-256h128v-256h128v-256h128v-512h-128v256h-128v256h-128v256h-128v256h-128v256h-128v256h-128v256h-128z" />
<glyph unicode="&#x2573;" d="M0 96h128v256h128v256h128v256h-128v256h-128v256h-128v256h256v-256h128v-256h256v256h128v256h256v-256h-128v-256h-128v-256h-128v-256h128v-256h128v-256h128v-256v-256h-128v256h-128v256h-128v256h-256v-256h-128v-256h-128v-256h-128v256v256z" />
<glyph unicode="&#x2574;" d="M0 480v256h640v-256h-640z" />
<glyph unicode="&#x2575;" d="M384 608v1024h256v-1024h-256z" />
<glyph unicode="&#x2576;" d="M384 480v256h640v-256h-640z" />
<glyph unicode="&#x2577;" d="M384 -416v1024h256v-1024h-256z" />
<glyph unicode="&#x2578;" d="M0 352v512h640v-512h-640z" />
<glyph unicode="&#x2579;" d="M256 608v1024h512v-1024h-512z" />
<glyph unicode="&#x257a;" d="M512 352v512h512v-512h-512z" />
<glyph unicode="&#x257b;" d="M256 -416v1280h512v-1280h-512z" />
<glyph unicode="&#x257c;" d="M0 480v256h512v128h512v-512h-512v128h-512z" />
<glyph unicode="&#x257d;" d="M256 -416v1280h128v768h256v-768h128v-1280h-512z" />
<glyph unicode="&#x257e;" d="M0 352v128v384h640v-128h384v-256h-384v-128h-640z" />
<glyph unicode="&#x257f;" d="M256 608v1024h512v-1024h-128v-1024h-256v1024h-128z" />
<glyph unicode="&#x2580;" d="M0 608v1024h1024v-1024h-1024z" />
<glyph unicode="&#x2581;" d="M0 -160h1024v-256h-1024v256z" />
<glyph unicode="&#x2582;" d="M0 96h1024v-512h-1024v512z" />
<glyph unicode="&#x2583;" d="M0 352h1024v-768h-1024v768z" />
<glyph unicode="&#x2584;" d="M0 -416v1024h1024v-1024h-1024z" />
<glyph unicode="&#x2585;" d="M0 -416v1280h1024v-1280h-1024z" />
<glyph unicode="&#x2586;" d="M0 -416v1536h1024v-1536h-1024z" />
<glyph unicode="&#x2587;" d="M0 -416v1792h1024v-1792h-1024z" />
<glyph unicode="&#x2588;" d="M0 -416v2048h1024v-2048h-1024z" />
<glyph unicode="&#x2589;" d="M0 -416v2048h896v-2048h-896z" />
<glyph unicode="&#x258a;" d="M0 -416v2048h768v-2048h-768z" />
<glyph unicode="&#x258b;" d="M0 -416v2048h640v-2048h-640z" />
<glyph unicode="&#x258c;" d="M0 -416v2048h512v-2048h-512z" />
<glyph unicode="&#x258d;" d="M0 -416v2048h384v-2048h-384z" />
<glyph unicode="&#x258e;" d="M0 -416v2048h256v-2048h-256z" />
<glyph unicode="&#x258f;" d="M0 -416v2048h128v-2048h-128z" />
<glyph unicode="&#x2590;" d="M512 -416v2048h512v-2048h-512z" />
<glyph unicode="&#x2591;" d="M0 -32h128v-128h-128v128zM0 96v128h128v-128h-128zM0 -288h128v-128h-128v128zM0 352v128h128v-128h-128zM0 608v128h128v-128h-128zM0 864v128h128v-128h-128zM0 1120v128h128v-128h-128zM0 1376v128h128v-128h-128zM256 -32v128h128v-128h-128zM256 -160h128v-128 h-128v128zM256 224v128h128v-128h-128zM256 480v128h128v-128h-128zM256 736v128h128v-128h-128zM256 992v128h128v-128h-128zM256 1248v128h128v-128h-128zM256 1504v128h128v-128h-128zM512 -32h128v-128h-128v128zM512 96v128h128v-128h-128zM512 -288h128v-128h-128v128 zM512 352v128h128v-128h-128zM512 608v128h128v-128h-128zM512 864v128h128v-128h-128zM512 1120v128h128v-128h-128zM512 1376v128h128v-128h-128zM768 -32v128h128v-128h-128zM768 -160h128v-128h-128v128zM768 224v128h128v-128h-128zM768 480v128h128v-128h-128z M768 736v128h128v-128h-128zM768 992v128h128v-128h-128zM768 1248v128h128v-128h-128zM768 1504v128h128v-128h-128z" />
<glyph unicode="&#x2592;" d="M0 -32v128h128v-128h128v-128h-128v128h-128zM0 -160h128v-128h128v-128h-128v128h-128v128zM0 224v128h128v-128h128v-128h-128v128h-128zM0 480v128h128v-128h128v-128h-128v128h-128zM0 736v128h128v-128h128v-128h-128v128h-128zM0 992v128h128v-128h128v-128h-128 v128h-128zM0 1248v128h128v-128h128v-128h-128v128h-128zM0 1504v128h128v-128h-128zM128 1376v128h128v-128h-128zM256 -32v128h128v-128h128v-128h-128v128h-128zM256 -160h128v-128h128v-128h-128v128h-128v128zM256 224v128h128v-128h128v-128h-128v128h-128zM256 480 v128h128v-128h128v-128h-128v128h-128zM256 736v128h128v-128h128v-128h-128v128h-128zM256 992v128h128v-128h128v-128h-128v128h-128zM256 1248v128h128v-128h128v-128h-128v128h-128zM256 1504v128h128v-128h-128zM384 1376v128h128v-128h-128zM512 -32v128h128v-128h128 v-128h-128v128h-128zM512 -160h128v-128h128v-128h-128v128h-128v128zM512 224v128h128v-128h128v-128h-128v128h-128zM512 480v128h128v-128h128v-128h-128v128h-128zM512 736v128h128v-128h128v-128h-128v128h-128zM512 992v128h128v-128h128v-128h-128v128h-128z M512 1248v128h128v-128h128v-128h-128v128h-128zM512 1504v128h128v-128h-128zM640 1376v128h128v-128h-128zM768 -32v128h128v-128h128v-128h-128v128h-128zM768 -160h128v-128h-128v128zM768 224v128h128v-128h128v-128h-128v128h-128zM768 480v128h128v-128h128v-128 h-128v128h-128zM768 736v128h128v-128h128v-128h-128v128h-128zM768 992v128h128v-128h128v-128h-128v128h-128zM768 1248v128h128v-128h128v-128h-128v128h-128zM768 1504v128h128v-128h-128zM896 -288h128v-128h-128v128zM896 1376v128h128v-128h-128z" />
<glyph unicode="&#x2593;" d="M0 -32v128v256h128v128h-128v128v256h128v128h-128v128v256h128v128h-128v128h256v-128h128v128h256v-128h-128v-128h128v-128h128v128h-128v128h128v128h256v-128v-128v-128h-128v-128h128v-128v-128v-128h-128v-128h128v-128v-128v-128h-128v-128h128v-128v-128v-128 h-128v-128h-384v128h-128v128h-128v-128h128v-128h-384v256h128v128h-128zM256 -32h128v128h128v128h-128v128h-128v-128h128v-128h-128v-128zM256 480h128v128h128v128h-128v128h-128v-128h128v-128h-128v-128zM256 992h128v128h128v128h-128v128h-128v-128h128v-128h-128 v-128zM512 -32v-128h128v128h-128zM512 352h128v128h-128v-128zM512 864h128v128h-128v-128zM640 -32h128v128h-128v-128zM640 -160v-128h128v128h-128zM640 224h128v128h-128v-128zM640 480h128v128h-128v-128zM640 736h128v128h-128v-128zM640 992h128v128h-128v-128z" />
<glyph unicode="&#x2594;" d="M0 1376v256h1024v-256h-1024z" />
<glyph unicode="&#x2595;" d="M896 -416v2048h128v-2048h-128z" />
<glyph unicode="&#x2596;" d="M0 -416v1024h512v-1024h-512z" />
<glyph unicode="&#x2597;" d="M512 -416v1024h512v-1024h-512z" />
<glyph unicode="&#x2598;" d="M0 608v1024h512v-1024h-512z" />
<glyph unicode="&#x2599;" d="M0 -416v2048h512v-1024h512v-1024h-1024z" />
<glyph unicode="&#x259a;" d="M0 608v1024h512v-1024h-512zM512 -416v1024h512v-1024h-512z" />
<glyph unicode="&#x259b;" d="M0 -416v1024v1024h1024v-1024h-512v-1024h-512z" />
<glyph unicode="&#x259c;" d="M0 608v1024h1024v-2048h-512v1024h-512z" />
<glyph unicode="&#x259d;" d="M512 608v1024h512v-1024h-512z" />
<glyph unicode="&#x259e;" d="M0 -416v1024h512v1024h512v-1024h-512v-1024h-512z" />
<glyph unicode="&#x259f;" d="M0 -416v1024h512v1024h512v-2048h-1024z" />
<glyph unicode="&#x25a0;" d="M128 -160v1536h768v-1536h-768z" />
<glyph unicode="&#x25a1;" d="M128 -160v1280v256h768v-256v-1024v-256h-768zM384 96h256v1024h-256v-1024z" />
<glyph unicode="&#x25a2;" d="M0 96v1280h128v256h640v-256h128v-1280h-128v-256h-640v256h-128zM256 96h384v1280h-384v-1280z" />
<glyph unicode="&#x25a3;" d="M0 -160v1536v256h896v-256v-256v-1024v-256h-896zM128 96h640v1024v256h-640v-1280zM256 352v768h384v-768h-384z" />
<glyph unicode="&#x25a4;" d="M0 -32v128h1024v-128h-1024zM0 -160h1024v-128h-1024v128zM0 224v128h1024v-128h-1024zM0 480v128h1024v-128h-1024zM0 736v128h1024v-128h-1024zM0 992v128h1024v-128h-1024zM0 1248v128h1024v-128h-1024zM0 1504v128h1024v-128h-1024z" />
<glyph unicode="&#x25a5;" d="M0 -416v2048h128v-2048h-128zM256 -416v2048h128v-2048h-128zM512 -416v2048h128v-2048h-128zM768 -416v2048h128v-2048h-128z" />
<glyph unicode="&#x25a6;" d="M0 -32h128v384h-128v128h128v384h-128v128h128v384h-128v128h128v128h128v-128h384v128h128v-128h256v-128h-256v-384h256v-128h-256v-384h256v-128h-256v-384h256v-128h-256v-256h-128v256h-384v-256h-128v256h-128v128zM256 -32h384v384h-384v-384zM256 480h384v384 h-384v-384zM256 992h384v384h-384v-384z" />
<glyph unicode="&#x25a7;" d="M0 352v256h128v-256h-128zM0 1376v256h128v-256h-128zM128 96v256h128v-256h128v-256h-128v256h-128zM128 1120v256h128v-256h128v-256h128v-256h-128v256h-128v256h-128zM384 -160h128v-256h-128v256zM512 352v256h128v-256h128v-256h128v-256h-128v256h-128v256h-128z M512 1376v256h128v-256h-128zM640 1120v256h128v-256h128v-256h-128v256h-128zM896 -160h128v-256h-128v256zM896 608v256h128v-256h-128z" />
<glyph unicode="&#x25a8;" d="M0 -160h128v256h128v256h128v256h128v256h128v256h128v256h128v256h128v-256h-128v-256h-128v-256h-128v-256h-128v-256h-128v-256h-128v-256h-128v-256h-128v256zM0 608v256h128v256h128v256h128v256h128v-256h-128v-256h-128v-256h-128v-256h-128zM512 -160h128v256 h128v256h128v256h128v-256h-128v-256h-128v-256h-128v-256h-128v256z" />
<glyph unicode="&#x25a9;" d="M0 96h128v-256h-128v256zM0 352v256h128v-256h-128zM0 864v256h128v-256h-128zM0 1376v256h128v-256h-128zM128 96v256h128v256h128v-256h-128v-256h-128zM128 1120v256h128v-256h-128zM256 96h128v-256h128v-256h-128v256h-128v256zM256 864v256h128v-256h128v256h128 v-256h-128v-256h-128v256h-128zM256 1376v256h128v-256h-128zM512 96h128v-256h-128v256zM512 352v256h128v-256h128v256h128v-256h-128v-256h-128v256h-128zM512 1376v256h128v-256h-128zM640 1120v256h128v-256h-128zM768 96h128v-256h-128v256zM768 864v256h128v-256h128 v-256h-128v256h-128zM768 1376v256h128v-256h-128zM896 -160h128v-256h-128v256z" />
<glyph unicode="&#x25aa;" d="M256 352v768h384v-768h-384z" />
<glyph unicode="&#x25ab;" d="M256 352v512v256h384v-256v-256v-256h-384zM384 608h128v256h-128v-256z" />
<glyph unicode="&#x25ac;" d="M128 -160v768h768v-768h-768z" />
<glyph unicode="&#x25ad;" d="M128 -160v512v256h768v-256v-256v-256h-768zM384 96h256v256h-256v-256z" />
<glyph unicode="&#x25ae;" d="M256 -160v1792h512v-1792h-512z" />
<glyph unicode="&#x25af;" d="M256 -160v1536v256h512v-256v-1280v-256h-512zM384 96h256v1280h-256v-1280z" />
<glyph unicode="&#x25b0;" d="M0 96h128v256h128v256h768v-256h-128v-256h-128v-256h-768v256z" />
<glyph unicode="&#x25b1;" d="M0 96h128v256h128v256h768v-256h-128v-256h-128v-256h-768v256zM384 96h256v256h-256v-256z" />
<glyph unicode="&#x25b2;" d="M0 96h128v512h128v512h128v512h128v-512h128v-512h128v-512h128v-512h-896v512z" />
<glyph unicode="&#x25b3;" d="M0 352h128v512h128v256h128v512h256v-512h128v-256h128v-512h128v-512v-256h-1024v768zM256 -160h512v512h-128v512h-256v-512h-128v-512z" />
<glyph unicode="&#x25b4;" d="M128 -160v512h128v512h128v512h128v-512h128v-512h128v-512h-640z" />
<glyph unicode="&#x25b5;" d="M0 -160v384v128h128v256v128h128v256v128h128v256h128v-256h128v-128v-256h128v-128v-256h128v-128v-256v-128h-896zM128 -32h640v256h-128v384h-128v384h-128v-384h-128v-384h-128v-256z" />
<glyph unicode="&#x25b6;" d="M0 -32v128v128v128v128v128v1024h128v-128h128v-128h128v-128h128v-128h128v-128h128v-128h128v-128h128v-128h-128v-128h-128v-128h-128v-128h-128v-128h-128v-128h-128v-128h-128v-128h-128v128v128z" />
<glyph unicode="&#x25b7;" d="M0 -32v128v1024v512h128v-128h128v-128h128v-128h128v-128h128v-128h128v-128h128v-128h128v-128h-128v-128h-128v-128h-128v-128h-128v-128h-128v-128h-128v-128h-128v-128h-128v128v128zM256 224h128v128h128v128h128v128h128v128h-128v128h-128v128h-128v128h-128 v-896z" />
<glyph unicode="&#x25b8;" d="M128 -32v128v128v128v128v640h128v-128h128v-128h128v-128h128v-128h128v-128h-128v-128h-128v-128h-128v-128h-128v-128h-128z" />
<glyph unicode="&#x25b9;" d="M128 -32v128v768v256h128v-128h128v-128h128v-128h-128v128h-128v-640h128v128h128v-128h-128v-128h-128v-128h-128zM512 352v128h128v-128h-128zM512 608v128h128v-128h128v-128h-128v128h-128z" />
<glyph unicode="&#x25ba;" d="M0 224v128v128v128v512h256v-128h256v-128h256v-128h256v-128h-256v-128h-256v-128h-256v-128h-256z" />
<glyph unicode="&#x25bb;" d="M0 224v128v512v256h256v-128h256v-128h256v-128h256v-128h-256v-128h-256v-128h-256v-128h-256zM256 480h128v128h256v128h-256v128h-128v-384z" />
<glyph unicode="&#x25bc;" d="M0 1120v512h896v-512h-128v-512h-128v-512h-128v-512h-128v512h-128v512h-128v512h-128z" />
<glyph unicode="&#x25bd;" d="M0 864v512v256h1024v-256v-512h-128v-512h-128v-256h-128v-512h-256v512h-128v256h-128v512h-128zM256 864h128v-512h256v512h128v512h-512v-512z" />
<glyph unicode="&#x25be;" d="M128 864v512h640v-512h-128v-512h-128v-512h-128v512h-128v512h-128z" />
<glyph unicode="&#x25bf;" d="M0 864v384v128h896v-128v-384h-128v-384h-128v-256v-128h-128v-256h-128v256h-128v384h-128v384h-128zM128 992h128v-384h128v-384h128v256v128h128v256v128h128v256h-640v-256z" />
<glyph unicode="&#x25c0;" d="M0 608v128h128v128h128v128h128v128h128v128h128v128h128v128h128v128h128v-1920h-128v128h-128v128h-128v128h-128v128h-128v128h-128v128h-128v128h-128z" />
<glyph unicode="&#x25c1;" d="M0 608v128h128v128h128v128h128v128h128v128h128v128h128v128h128v128h128v-512v-128v-128v-128v-512v-512h-128v128h-128v128h-128v128h-128v128h-128v128h-128v128h-128v128h-128zM256 608h128v-128h128v-128h128v-128h128v512v128v128v128h-128v-128h-128v-128h-128 v-128h-128v-128z" />
<glyph unicode="&#x25c2;" d="M128 480v128h128v128h128v128h128v128h128v128h128v-1152h-128v128h-128v128h-128v128h-128v128h-128z" />
<glyph unicode="&#x25c3;" d="M128 480v128h128v-128h128v-128h128v-128h128v384v128v128h-128v-128h-128v-128h-128v128h128v128h128v128h128v128h128v-256v-128v-128v-384v-256h-128v128h-128v128h-128v128h-128v128h-128z" />
<glyph unicode="&#x25c4;" d="M0 608v128h256v128h256v128h256v128h256v-896h-256v128h-256v128h-256v128h-256z" />
<glyph unicode="&#x25c5;" d="M0 608v128h256v128h256v128h256v128h256v-256v-128v-256v-256h-256v128h-256v128h-256v128h-256zM384 608h256v-128h128v256v128h-128v-128h-256v-128z" />
<glyph unicode="&#x25c6;" d="M0 352v512h128v256h128v256h128v256h256v-256h128v-256h128v-256h128v-512h-128v-256h-128v-256h-128v-256h-256v256h-128v256h-128v256h-128z" />
<glyph unicode="&#x25c7;" d="M0 352v512h128v256h128v256h128v256h256v-256h128v-256h128v-256h128v-512h-128v-256h-128v-256h-128v-256h-256v256h-128v256h-128v256h-128zM256 352h128v-256h256v256h128v512h-128v256h-256v-256h-128v-512z" />
<glyph unicode="&#x25c8;" d="M0 352v512h128v256h128v256h128v256h256v-256h128v-256h128v-256h128v-512h-128v-256h-128v256h128v512h-128v-512h-128v-256h-256v256h-128v512h128v256h256v-256h128v256h-128v256h-256v-256h-128v-256h-128v-512h-128zM128 96v256h128v-256h128v-256h256v-256h-256 v256h-128v256h-128zM640 96h128v-256h-128v256z" />
<glyph unicode="&#x25c9;" d="M0 96v1024h128v256h128v256h512v-256h128v-256h128v-256v-768h-128v-256h-128v-256h-512v256h-128v256h-128zM256 96h128v-256h256v256h128v768v256h-128v256h-256v-256h-128v-1024zM384 352v512h256v-512h-256z" />
<glyph unicode="&#x25ca;" d="M0 352v512h128v256h128v256h128v256h128v-256h128v-256h128v-256h128v-512h-128v-256h-128v-256h-128v-256h-128v256h-128v256h-128v256h-128zM256 352h128v-256h128v256h128v512h-128v256h-128v-256h-128v-512z" />
<glyph unicode="&#x25cb;" d="M128 96v768v256h128v256h512v-256h128v-256v-768h-128v-256h-512v256h-128zM256 352h128v-256h256v256h128v512h-128v256h-256v-256h-128v-512z" />
<glyph unicode="&#x25cc;" d="M0 608v256h128v-256h-128zM128 96v256h128v-256h-128zM128 1120v256h128v-256h-128zM384 96h128v-256h-128v256zM384 1376v256h128v-256h-128zM640 96v256h128v-256h-128zM640 1120v256h128v-256h-128zM768 608v256h128v-256h-128z" />
<glyph unicode="&#x25cd;" d="M0 352v512h128v-512h128v512h-128v256h128v256h384v-256h128v-256h128v-512h-128v512h-128v-512h128v-256h-128v-256h-384v256h-128v256h-128zM384 96h128v768v256h-128v-256v-512v-256z" />
<glyph unicode="&#x25ce;" d="M0 352v768h128v256h128v256h384v-256h128v-256h128v-256v-512h-128v-256h-128v256h128v512v256h-128v256h-384v-256h-128v-768h-128zM128 96v256h128v-256h384v-256h-384v256h-128zM256 608v256h128v256h128v-256h128v-256h-128v256h-128v-256h-128zM384 352v256h128 v-256h-128z" />
<glyph unicode="&#x25cf;" d="M128 96v1024h128v256h512v-256h128v-1024h-128v-256h-512v256h-128z" />
<glyph unicode="&#x25d0;" d="M0 96v1024h128v256h128v256h512v-256h128v-256h128v-1024h-128v-256h-128v-256h-512v256h-128v256h-128zM512 -160h128v256h128v1024h-128v256h-128v-1536z" />
<glyph unicode="&#x25d1;" d="M0 96v1024h128v256h128v256h512v-256h128v-256h128v-1024h-128v-256h-128v-256h-512v256h-128v256h-128zM256 96h128v-256h128v256v1024v256h-128v-256h-128v-1024z" />
<glyph unicode="&#x25d2;" d="M0 96v1024h128v256h128v256h512v-256h128v-256h128v-512v-512h-128v-256h-128v-256h-512v256h-128v256h-128zM256 608h512v512h-128v256h-256v-256h-128v-512z" />
<glyph unicode="&#x25d3;" d="M0 96v512v512h128v256h128v256h512v-256h128v-256h128v-512v-512h-128v-256h-128v-256h-512v256h-128v256h-128zM256 96h128v-256h256v256h128v512h-512v-512z" />
<glyph unicode="&#x25d4;" d="M0 96v1024h128v256h128v256h512v-256h128v-256h128v-1024h-128v-256h-128v-256h-512v256h-128v256h-128zM256 96h128v-256h256v256h128v512h-256v512v256h-128v-256h-128v-1024z" />
<glyph unicode="&#x25d5;" d="M0 96v1024h128v256h128v256h512v-256h128v-256h128v-512v-512h-128v-256h-128v-256h-512v256h-128v256h-128zM256 608h256v512v256h-128v-256h-128v-512z" />
<glyph unicode="&#x25d6;" d="M256 352v640h128v256h128v128h256v128h256v-1664h-256v128h-256v128h-128v256h-128z" />
<glyph unicode="&#x25d7;" d="M0 -32v128v256v1152h256v-128h256v-128h128v-256h128v-640h-128v-256h-128v-128h-256v-128h-256v128z" />
<glyph unicode="&#x25d8;" d="M0 -416v1280v256v512h1024v-512v-256v-768v-512h-1024zM256 352h128v-256h256v256h128v512h-128v256h-256v-256h-128v-512z" />
<glyph unicode="&#x25d9;" d="M0 -416v1536v256v256h1024v-256v-256v-768v-512v-256h-1024zM128 96h128v-256h512v256h128v256v768h-128v256h-512v-256h-128v-1024zM256 352v512h128v256h256v-256h128v-512h-128v-256h-256v256h-128z" />
<glyph unicode="&#x25da;" d="M0 608v512v256v256h1024v-256v-256v-512h-128v512h-128v256h-512v-256h-128v-512h-128zM256 608v256h128v256h256v-256h128v-256h-512z" />
<glyph unicode="&#x25db;" d="M0 -416v1024h128v-512h128v-256h512v256h128v256v256h128v-256v-512v-256h-1024zM256 352v256h512v-256h-128v-256h-256v256h-128z" />
<glyph unicode="&#x25dc;" d="M0 608v512h128v256h128v256h384v-256h-256v-256h-128v-512h-256z" />
<glyph unicode="&#x25dd;" d="M384 1376v256h384v-256h128v-256h128v-512h-256v512h-128v256h-256z" />
<glyph unicode="&#x25de;" d="M384 -160h256v256h128v512h256v-512h-128v-256h-128v-256h-384v256z" />
<glyph unicode="&#x25df;" d="M0 96v512h256v-512h128v-256h256v-256h-384v256h-128v256h-128z" />
<glyph unicode="&#x25e0;" d="M0 608v512h128v256h128v256h512v-256h128v-256h128v-512h-256v512h-128v256h-256v-256h-128v-512h-256z" />
<glyph unicode="&#x25e1;" d="M0 96v512h256v-512h128v-256h256v256h128v512h256v-512h-128v-256h-128v-256h-512v256h-128v256h-128z" />
<glyph unicode="&#x25e2;" d="M0 -160h128v256h128v256h128v256h128v256h128v256h128v256h128v256h128v-2048h-1024v256z" />
<glyph unicode="&#x25e3;" d="M0 -416v2048h128v-256h128v-256h128v-256h128v-256h128v-256h128v-256h128v-256h128v-256h-1024z" />
<glyph unicode="&#x25e4;" d="M0 96v256v256v256v256v256v256h1024v-256h-128v-256h-128v-256h-128v-256h-128v-256h-128v-256h-128v-256h-128v-256h-128v256v256z" />
<glyph unicode="&#x25e5;" d="M0 1376v256h1024v-2048h-128v256h-128v256h-128v256h-128v256h-128v256h-128v256h-128v256h-128z" />
<glyph unicode="&#x25e6;" d="M256 352v512h128v256h256v-256h128v-512h-128v512h-256v-512h-128zM384 96v256h256v-256h-256z" />
<glyph unicode="&#x25e7;" d="M0 -416v1792v256h1024v-256v-1536v-256h-1024zM512 -160h256v1536h-256v-1536z" />
<glyph unicode="&#x25e8;" d="M0 -416v1792v256h1024v-256v-1536v-256h-1024zM256 -160h256v1536h-256v-1536z" />
<glyph unicode="&#x25e9;" d="M0 96v256v256v256v768h1024v-768v-256v-256v-256v-256v-256h-1024v512zM256 96v-256h512v256v256v256v256h-128v-256h-128v-256h-128v-256h-128z" />
<glyph unicode="&#x25ea;" d="M0 -416v1792v256h1024v-256v-1024v-768h-1024zM256 352h128v256h128v256h128v256h128v256h-512v-1024z" />
<glyph unicode="&#x25eb;" d="M0 -416v1792v256h1024v-256v-1536v-256h-1024zM256 -160h128v1536h-128v-1536zM640 -160h128v1536h-128v-1536z" />
<glyph unicode="&#x25ec;" d="M0 352h128v-512h768v512h-128v256v256h-128v256h-256v-256h-128v-512h-128v512h128v256h128v512h256v-512h128v-256h128v-256v-256h128v-512v-256h-1024v768zM384 96v256v256h256v-256v-256h-256z" />
<glyph unicode="&#x25ed;" d="M0 352h128v512h128v256h128v512h256v-512h128v-256h128v-512h128v-512v-256h-1024v768zM512 -160h256v512h-128v512h-128v-1024z" />
<glyph unicode="&#x25ee;" d="M0 352h128v512h128v256h128v512h256v-512h128v-256h128v-512h128v-512v-256h-1024v768zM256 -160h256v512v512h-128v-512h-128v-512z" />
<glyph unicode="&#x25ef;" d="M0 96v1024h128v256h128v256h512v-256h128v-256h128v-1024h-128v-256h-128v-256h-512v256h-128v256h-128zM256 96h128v-256h256v256h128v1024h-128v256h-256v-256h-128v-1024z" />
<glyph unicode="&#x25f0;" d="M0 352v1024v256h1024v-256v-1024v-512v-256h-1024v768zM256 -160h512v512v1024h-128v-768v-256h-384v-512zM256 608h128v768h-128v-768z" />
<glyph unicode="&#x25f1;" d="M0 352v1024v256h1024v-256v-1024v-512v-256h-1024v768zM256 -160h128v512h-128v-512zM256 608h384v-256v-512h128v512v1024h-512v-768z" />
<glyph unicode="&#x25f2;" d="M0 -416v1792v256h1024v-256v-1024v-512v-256h-1024zM256 -160h128v512v256h384v768h-512v-1536zM640 -160h128v512h-128v-512z" />
<glyph unicode="&#x25f3;" d="M0 -416v1792v256h1024v-256v-768v-768v-256h-1024zM256 -160h512v512h-384v1024h-128v-1536zM640 608h128v768h-128v-768z" />
<glyph unicode="&#x25f4;" d="M0 96v256v768h128v256h128v256h512v-256h128v-256h128v-768v-256h-128v-256h-128v-256h-512v256h-128v256h-128zM256 96h128v-256h256v256h128v256v768h-128v-512v-256h-384v-256zM256 608h128v512h-128v-512z" />
<glyph unicode="&#x25f5;" d="M0 96v512v512h128v256h128v256h512v-256h128v-256h128v-512v-512h-128v-256h-128v-256h-512v256h-128v256h-128zM256 96h128v512h-128v-512zM256 864h384v-256v-512h128v512v512h-128v256h-256v-256h-128v-256z" />
<glyph unicode="&#x25f6;" d="M0 96v1024h128v256h128v256h512v-256h128v-256h128v-512v-512h-128v-256h-128v-256h-512v256h-128v256h-128zM256 96h128v512v256h384v256h-128v256h-256v-256h-128v-1024zM640 96h128v512h-128v-512z" />
<glyph unicode="&#x25f7;" d="M0 96v1024h128v256h128v256h512v-256h128v-256h128v-512v-512h-128v-256h-128v-256h-512v256h-128v256h-128zM256 96h128v-256h256v256h128v256h-384v768h-128v-1024zM640 608h128v512h-128v-512z" />
<glyph unicode="&#x25f8;" d="M0 96v256v1024v256h1024v-256h-128v-256h-128v-256h-128v-256h-128v-256h-128v-256h-128v-256h-128v-256h-128v256v256zM256 608h128v256h128v256h128v256h-384v-768z" />
<glyph unicode="&#x25f9;" d="M0 1376v256h1024v-256v-768v-1024h-128v256h-128v256h-128v256h-128v256h-128v256h-128v256h-128v256h-128zM384 1120h128v-256h128v-256h128v768h-384v-256z" />
<glyph unicode="&#x25fa;" d="M0 -160h128v256h128v256h128v256h128v256h128v256h128v256h128v256h128v-1024v-256v-256v-256v-256h-1024v256zM384 96v-256h384v256v256v256h-128v-256h-128v-256h-128z" />
<glyph unicode="&#x25fb;" d="M128 96v1024v256h640v-256v-768v-256h-640zM384 352h128v768h-128v-768z" />
<glyph unicode="&#x25fc;" horiz-adv-x="800" d="M0 0v800h800v-800h-800z" />
<glyph unicode="&#x25fd;" d="M256 96v768v256h512v-256v-512v-256h-512zM384 352h256v512h-256v-512z" />
<glyph unicode="&#x25fe;" d="M256 96v1024h512v-1024h-512z" />
<glyph unicode="&#x25ff;" d="M0 -416v1024v1024h128v-256h128v-256h128v-256h128v-256h128v-256h128v-256h128v-256h128v-256h-1024zM256 -160h384v256h-128v256h-128v256h-128v-768z" />
<glyph unicode="&#x2625;" d="M0 608v128h256v128h-128v128h-128v256h128v128h640v-128h128v-256h-128v-128h-128v-128h256v-128h-256v-640h-384v640h-256zM256 992h128v-128h128v128h128v256h-384v-256z" />
<glyph unicode="&#x2628;" d="M128 608v128h256v256h-128v128h128v256h256v-256h128v-128h-128v-256h256v-128h-256v-640h-256v640h-256z" />
<glyph unicode="&#x262f;" d="M0 352v128v512h128v-384h128v128h256v-128h256v128h128v256h128v-256v-128v-128v-128h-128v-128h-128v-128h-512v128h-128v128h-128zM128 992v128h128v128h512v-128h128v-128h-128v-128h-256v128h256v128h-512v-128h-128zM256 352h256v128h-256v-128z" />
<glyph unicode="&#x2630;" d="M0 96h896v-256h-896v256zM0 352v256h896v-256h-896zM0 864v256h896v-256h-896z" />
<glyph unicode="&#x2631;" d="M0 96h896v-256h-896v256zM0 352v256h896v-256h-896zM0 864v256h256v-256h-256zM640 864v256h256v-256h-256z" />
<glyph unicode="&#x2632;" d="M0 96h896v-256h-896v256zM0 352v256h256v-256h-256zM0 864v256h896v-256h-896zM640 352v256h256v-256h-256z" />
<glyph unicode="&#x2633;" d="M0 96h896v-256h-896v256zM0 352v256h256v-256h-256zM0 864v256h256v-256h-256zM640 352v256h256v-256h-256zM640 864v256h256v-256h-256z" />
<glyph unicode="&#x2634;" d="M0 96h256v-256h-256v256zM0 352v256h896v-256h-896zM0 864v256h896v-256h-896zM640 96h256v-256h-256v256z" />
<glyph unicode="&#x2635;" d="M0 96h256v-256h-256v256zM0 352v256h896v-256h-896zM0 864v256h256v-256h-256zM640 96h256v-256h-256v256zM640 864v256h256v-256h-256z" />
<glyph unicode="&#x2636;" d="M0 96h256v-256h-256v256zM0 352v256h256v-256h-256zM0 864v256h896v-256h-896zM640 96h256v-256h-256v256zM640 352v256h256v-256h-256z" />
<glyph unicode="&#x2637;" d="M0 96h256v-256h-256v256zM0 352v256h256v-256h-256zM0 864v256h256v-256h-256zM640 96h256v-256h-256v256zM640 352v256h256v-256h-256zM640 864v256h256v-256h-256z" />
<glyph unicode="&#x2639;" d="M0 224v896h128v128h128v128h512v-128h128v-128h128v-128v-384v-384h-128v-128h-128v128h128v384v384v128h-128v128h-512v-128h-128v-896h-128zM128 96v128h128v-128h512v-128h-512v128h-128zM256 352v128h128v128h256v-128h128v-128h-512zM256 864v128h128v-128h-128z M640 864v128h128v-128h-128z" />
<glyph unicode="&#x263a;" d="M0 224v896h128v128h128v128h512v-128h128v-128h128v-128v-384v-128v-256h-128v-128h-128v128h128v256v128v384v128h-128v128h-512v-128h-128v-896h-128zM128 96v128h128v-128h512v-128h-512v128h-128zM256 480v128h512v-128h-128v-128h-256v128h-128zM256 864v128h128 v-128h-128zM640 864v128h128v-128h-128z" />
<glyph unicode="&#x263b;" d="M0 224v384v384v128h128v128h128v128h512v-128h128v-128h128v-128v-128v-256v-256v-128h-128v-128h-128v-128h-512v128h-128v128h-128zM256 480h128v-128h256v128h128v128h-512v-128zM256 864h128v128h-128v-128zM640 864h128v128h-128v-128z" />
<glyph unicode="&#x2660;" d="M0 480v384h128v128h128v128h128v128h128v-128h128v-128h128v-128h128v-384h-256v-256h128v-128h-640v128h128v256h-256z" />
</font>
</defs>
</svg>
