<?xml version="1.0" standalone="no"?>
<!DOCTYPE svg PUBLIC "-//W3C//DTD SVG 1.1//EN" "http://www.w3.org/Graphics/SVG/1.1/DTD/svg11.dtd" >
<svg xmlns="http://www.w3.org/2000/svg" xmlns:xlink="http://www.w3.org/1999/xlink" version="1.1">
<metadata></metadata>
<defs>
<font id="tic-80_wide_fontregular" horiz-adv-x="2047" >
<font-face units-per-em="2048" ascent="2048" descent="0" />
<missing-glyph horiz-adv-x="2048" />
<glyph horiz-adv-x="0" />
<glyph horiz-adv-x="682" />
<glyph unicode=" "  horiz-adv-x="2048" />
<glyph unicode="&#x09;" horiz-adv-x="2048" />
<glyph unicode="&#xa0;" horiz-adv-x="2048" />
<glyph unicode="!" horiz-adv-x="2048" d="M341 341v341h683v-341h-683zM341 1024v1024h683v-1024h-683z" />
<glyph unicode="&#x22;" horiz-adv-x="2048" d="M341 1365v683h341v-683h-341zM1024 1365v683h341v-683h-341z" />
<glyph unicode="#" d="M0 682v342h341v341h-341v341h341v342h341v-342h342v342h341v-342h341v-341h-341v-341h341v-342h-341v-341h-341v341h-342v-341h-341v341h-341zM682 1024h342v341h-342v-341z" />
<glyph unicode="$" d="M0 341v341h682v342h-341v341h341v341h-341v342h1365v-342h-682v-341h341v-341h-341v-342h341v-341h-1365zM0 1365v341h341v-341h-341zM1365 682v342h341v-342h-341z" />
<glyph unicode="%" d="M0 341v341h341v-341h-341zM0 1706v342h341v-342h-341zM341 682v342h341v-342h-341zM682 1024v341h342v-341h-342zM1024 1365v341h341v-341h-341zM1365 341v341h341v-341h-341zM1365 1706v342h341v-342h-341z" />
<glyph unicode="&#x26;" d="M0 682v342h341v-342h-341zM0 1365v341h341v-341h-341zM341 341v341h683v-341h-683zM341 1024v341h341v341h342v-682h-683zM341 1706v342h341v-342h-341zM1024 682v342h341v-342h-341zM1365 341v341h341v-341h-341zM1365 1024v341h341v-341h-341z" />
<glyph unicode="'" horiz-adv-x="2048" d="M341 1365v341h341v-341h-341zM682 1706v342h342v-342h-342z" />
<glyph unicode="(" horiz-adv-x="2048" d="M341 682v1024h341v-1024h-341zM682 341v341h342v-341h-342zM682 1706v342h342v-342h-342z" />
<glyph unicode=")" horiz-adv-x="2048" d="M341 341v341h341v-341h-341zM341 1706v342h341v-342h-341zM682 682v1024h342v-1024h-342z" />
<glyph unicode="*" d="M0 682v342h341v-342h-341zM0 1365v341h341v-341h-341zM341 1024v341h341v683h342v-683h341v-341h-341v-683h-342v683h-341zM1365 682v342h341v-342h-341zM1365 1365v341h341v-341h-341z" />
<glyph unicode="+" horiz-adv-x="2048" d="M341 1024v341h341v341h342v-341h341v-341h-341v-342h-342v342h-341z" />
<glyph unicode="," horiz-adv-x="2048" d="M341 0v341h341v-341h-341zM341 682v342h683v-683h-342v341h-341z" />
<glyph unicode="-" horiz-adv-x="2048" d="M341 1024v341h1024v-341h-1024z" />
<glyph unicode="." horiz-adv-x="2048" d="M341 341v683h683v-683h-683z" />
<glyph unicode="/" d="M0 341v341h341v-341h-341zM341 682v342h341v-342h-341zM682 1024v341h342v-341h-342zM1024 1365v341h341v-341h-341zM1365 1706v342h341v-342h-341z" />
<glyph unicode="0" d="M0 682v1024h341v342h1024v-342h-683v-1024h683v-341h-1024v341h-341zM1365 682v1024h341v-1024h-341z" />
<glyph unicode="1" d="M341 341v341h341v683h-341v341h341v342h683v-1366h341v-341h-1365z" />
<glyph unicode="2" d="M0 341v683h341v341h683v341h-1024v342h1365v-342h341v-341h-341v-341h-683v-342h1024v-341h-1706z" />
<glyph unicode="3" d="M0 682v342h341v-342h-341zM0 1706v342h1706v-683h-341v-341h341v-342h-341v-341h-1024v341h683v342h-342v341h342v341h-1024z" />
<glyph unicode="4" d="M0 682v683h341v341h341v342h683v-1024h341v-342h-341v-341h-341v341h-1024zM682 1024h342v341h-342v-341z" />
<glyph unicode="5" d="M0 341v341h1024v342h-1024v1024h1706v-342h-1024v-341h683v-341h341v-342h-341v-341h-1365z" />
<glyph unicode="6" d="M0 682v1024h341v342h1024v-342h-683v-341h683v-341h-683v-342h683v-341h-1024v341h-341zM1365 682v342h341v-342h-341z" />
<glyph unicode="7" d="M0 341v341h341v342h341v341h342v341h-1024v342h1706v-683h-341v-341h-341v-342h-342v-341h-682z" />
<glyph unicode="8" d="M0 682v342h341v341h-341v341h341v342h1024v-342h-683v-341h683v-341h-683v-342h683v-341h-1024v341h-341zM1365 682v342h341v-342h-341zM1365 1365v341h341v-341h-341z" />
<glyph unicode="9" d="M0 1365v341h341v342h1024v-342h-683v-341h683v341h341v-1024h-341v342h-1024v341h-341zM341 341v341h1024v-341h-1024z" />
<glyph unicode=":" horiz-adv-x="2048" d="M341 341v683h683v-683h-683zM341 1365v683h683v-683h-683z" />
<glyph unicode=";" horiz-adv-x="2048" d="M341 0v341h341v-341h-341zM341 682v342h683v-683h-342v341h-341zM341 1365v683h683v-683h-683z" />
<glyph unicode="&#x3c;" horiz-adv-x="2048" d="M341 1024v341h341v-341h-341zM682 682v342h342v-342h-342zM682 1365v341h342v-341h-342zM1024 341v341h341v-341h-341zM1024 1706v342h341v-342h-341z" />
<glyph unicode="=" horiz-adv-x="2048" d="M341 682v342h1024v-342h-1024zM341 1365v341h1024v-341h-1024z" />
<glyph unicode="&#x3e;" horiz-adv-x="2048" d="M341 341v341h341v-341h-341zM341 1706v342h341v-342h-341zM682 682v342h342v-342h-342zM682 1365v341h342v-341h-342zM1024 1024v341h341v-341h-341z" />
<glyph unicode="?" d="M341 1706v342h1365v-683h-341v-341h-683v341h342v341h-683zM682 341v341h683v-341h-683z" />
<glyph unicode="@" d="M0 682v1024h341v-1024h-341zM341 341v341h1024v-341h-1024zM341 1706v342h1024v-342h-341v-341h341v341h341v-682h-1024v682h-341z" />
<glyph unicode="A" d="M0 341v1365h341v342h1024v-342h-683v-682h683v682h341v-1365h-341v341h-683v-341h-682z" />
<glyph unicode="B" d="M0 341v1707h1365v-342h-683v-341h683v-341h-683v-342h683v-341h-1365zM1365 682v342h341v-342h-341zM1365 1365v341h341v-341h-341z" />
<glyph unicode="C" d="M0 682v1024h341v342h1024v-342h-683v-1024h683v-341h-1024v341h-341zM1365 682v342h341v-342h-341zM1365 1365v341h341v-341h-341z" />
<glyph unicode="D" d="M0 341v1707h1365v-342h-683v-1024h683v-341h-1365zM1365 682v1024h341v-1024h-341z" />
<glyph unicode="E" d="M0 341v1707h1706v-342h-1024v-341h683v-341h-683v-342h1024v-341h-1706z" />
<glyph unicode="F" d="M0 341v1707h1706v-342h-1024v-341h683v-341h-683v-683h-682z" />
<glyph unicode="G" d="M0 682v1024h341v342h1365v-342h-1024v-1024h683v342h-341v341h682v-1024h-1365v341h-341z" />
<glyph unicode="H" d="M0 341v1707h682v-683h683v683h341v-1707h-341v683h-683v-683h-682z" />
<glyph unicode="I" d="M341 341v341h341v1024h-341v342h1365v-342h-341v-1024h341v-341h-1365z" />
<glyph unicode="J" d="M0 682v342h682v-342h342v1024h-1024v342h1706v-1366h-341v-341h-1024v341h-341z" />
<glyph unicode="K" d="M0 341v1707h682v-683h342v-341h-342v-683h-682zM1024 682v342h341v-342h-341zM1024 1365v341h341v-341h-341zM1365 341v341h341v-341h-341zM1365 1706v342h341v-342h-341z" />
<glyph unicode="L" d="M0 341v1707h682v-1366h1024v-341h-1706z" />
<glyph unicode="M" d="M0 341v1707h682v-683h342v683h682v-1707h-341v683h-341v-342h-342v342h-341v-683h-341z" />
<glyph unicode="N" d="M0 341v1707h682v-342h342v-341h341v683h341v-1707h-341v341h-341v342h-342v-683h-682z" />
<glyph unicode="O" d="M0 682v1024h341v342h1024v-342h-683v-1024h683v-341h-1024v341h-341zM1365 682v1024h341v-1024h-341z" />
<glyph unicode="P" d="M0 341v1707h1365v-342h-683v-682h683v-342h-683v-341h-682zM1365 1024v682h341v-682h-341z" />
<glyph unicode="Q" d="M0 682v1024h341v342h1024v-342h-683v-1024h683v-341h-1024v341h-341zM1365 0v341h341v-341h-341zM1365 682v1024h341v-1024h-341z" />
<glyph unicode="R" d="M0 341v1707h1365v-342h-683v-682h683v-342h-683v-341h-682zM1365 341v341h341v-341h-341zM1365 1024v682h341v-682h-341z" />
<glyph unicode="S" d="M0 341v341h682v342h-341v341h-341v341h341v342h1365v-342h-682v-341h341v-341h341v-342h-341v-341h-1365z" />
<glyph unicode="T" d="M341 1706v342h1365v-342h-341v-1365h-683v1365h-341z" />
<glyph unicode="U" d="M0 682v1366h682v-1366h683v-341h-1024v341h-341zM1365 682v1366h341v-1366h-341z" />
<glyph unicode="V" d="M0 1024v1024h682v-1024h683v-342h-341v-341h-342v341h-341v342h-341zM1365 1024v1024h341v-1024h-341z" />
<glyph unicode="W" d="M0 341v1707h341v-683h341v341h342v-341h341v683h341v-1707h-682v341h-342v-341h-682z" />
<glyph unicode="X" d="M0 341v683h341v341h-341v683h682v-683h683v-341h-683v-683h-682zM1365 341v683h341v-683h-341zM1365 1365v683h341v-683h-341z" />
<glyph unicode="Y" d="M341 1024v1024h683v-683h341v683h341v-1024h-341v-683h-683v683h-341z" />
<glyph unicode="Z" d="M0 341v683h341v341h341v341h-682v342h1706v-342h-341v-341h-341v-341h-342v-342h1024v-341h-1706z" />
<glyph unicode="[" horiz-adv-x="2048" d="M341 341v1707h683v-342h-342v-1024h342v-341h-683z" />
<glyph unicode="\" d="M0 1706v342h341v-342h-341zM341 1365v341h341v-341h-341zM682 1024v341h342v-341h-342zM1024 682v342h341v-342h-341zM1365 341v341h341v-341h-341z" />
<glyph unicode="]" horiz-adv-x="2048" d="M341 341v341h341v1024h-341v342h683v-1707h-683z" />
<glyph unicode="^" d="M0 1024v341h341v-341h-341zM341 1365v341h341v-341h-341zM682 1706v342h342v-342h-342zM1024 1365v341h341v-341h-341zM1365 1024v341h341v-341h-341z" />
<glyph unicode="_" d="M341 341v341h1365v-341h-1365z" />
<glyph unicode="`" horiz-adv-x="2048" d="M341 1706v342h341v-342h-341zM682 1365v341h342v-341h-342z" />
<glyph unicode="a" d="M0 682v683h341v-683h-341zM341 341v341h683v683h-683v341h1365v-1365h-1365z" />
<glyph unicode="b" d="M0 341v1707h682v-342h683v-341h-683v-683h683v-341h-1365zM1365 682v683h341v-683h-341z" />
<glyph unicode="c" d="M0 682v683h341v341h1365v-341h-682v-683h682v-341h-1365v341h-341z" />
<glyph unicode="d" d="M0 682v683h341v-683h-341zM341 341v341h683v683h-683v341h683v342h682v-1707h-1365z" />
<glyph unicode="e" d="M0 682v683h341v341h1024v-341h341v-341h-682v341h-342v-341h342v-342h341v-341h-1024v341h-341z" />
<glyph unicode="f" d="M0 1024v341h341v341h341v342h1024v-342h-682v-341h682v-341h-682v-683h-683v683h-341z" />
<glyph unicode="g" d="M0 682v683h341v-341h683v341h-683v341h1024v-341h341v-1024h-341v-341h-1024v341h683v341h-1024z" />
<glyph unicode="h" d="M0 341v1707h682v-342h683v-341h-683v-1024h-682zM1365 341v1024h341v-1024h-341z" />
<glyph unicode="i" d="M341 341v341h341v342h-341v341h1024v-683h341v-341h-1365zM682 1706v342h683v-342h-683z" />
<glyph unicode="j" d="M0 341v341h341v-341h-341zM341 0v341h683v1024h682v-1024h-341v-341h-1024zM1024 1706v342h682v-342h-682z" />
<glyph unicode="k" d="M0 341v1707h682v-683h683v-341h-683v-683h-682zM1365 341v683h341v-683h-341zM1365 1365v341h341v-341h-341z" />
<glyph unicode="l" d="M341 682v1366h683v-1366h682v-341h-1024v341h-341z" />
<glyph unicode="m" d="M0 341v1365h682v-341h342v341h341v-341h341v-1024h-341v683h-341v-683h-342v683h-341v-683h-341z" />
<glyph unicode="n" d="M0 341v1365h1365v-341h-683v-1024h-682zM1365 341v1024h341v-1024h-341z" />
<glyph unicode="o" d="M0 682v683h341v341h1024v-341h-683v-683h683v-341h-1024v341h-341zM1365 682v683h341v-683h-341z" />
<glyph unicode="p" d="M0 0v1706h1365v-341h-683v-683h683v-341h-683v-341h-682zM1365 682v683h341v-683h-341z" />
<glyph unicode="q" d="M0 682v683h341v-683h-341zM341 341v341h683v683h-683v341h1365v-1706h-682v341h-683z" />
<glyph unicode="r" d="M0 341v1365h1365v-341h-683v-1024h-682zM1365 1024v341h341v-341h-341z" />
<glyph unicode="s" d="M0 341v341h682v342h-682v341h341v341h1365v-341h-682v-341h682v-342h-341v-341h-1365z" />
<glyph unicode="t" d="M0 1365v341h341v342h683v-342h682v-341h-682v-683h682v-341h-1024v341h-341v683h-341z" />
<glyph unicode="u" d="M0 682v1024h341v-1024h-341zM341 341v341h683v1024h682v-1365h-1365z" />
<glyph unicode="v" d="M0 341v1365h682v-1024h342v-341h-1024zM1024 682v342h341v-342h-341zM1365 1024v682h341v-682h-341z" />
<glyph unicode="w" d="M0 341v1365h341v-682h341v341h342v-341h341v682h341v-1365h-682v341h-342v-341h-682z" />
<glyph unicode="x" d="M0 341v341h341v683h-341v341h682v-341h342v341h682v-341h-341v-683h341v-341h-682v341h-342v-341h-682z" />
<glyph unicode="y" d="M0 1024v682h341v-682h-341zM341 0v341h683v341h-683v342h683v682h682v-1365h-341v-341h-1024z" />
<glyph unicode="z" d="M0 341v341h341v342h341v341h-682v341h1706v-341h-341v-341h-341v-342h682v-341h-1706z" />
<glyph unicode="{" horiz-adv-x="2048" d="M341 1024v341h341v683h683v-342h-341v-1024h341v-341h-683v683h-341z" />
<glyph unicode="|" horiz-adv-x="2048" d="M682 341v1707h342v-1707h-342z" />
<glyph unicode="}" horiz-adv-x="2048" d="M341 341v341h341v1024h-341v342h683v-683h341v-341h-341v-683h-683z" />
<glyph unicode="~" d="M341 1024v341h341v-341h-341zM682 1365v341h342v-341h-342zM1024 1024v341h341v-341h-341zM1365 1365v341h341v-341h-341z" />
<glyph unicode="&#xad;" horiz-adv-x="2048" d="M341 1024v341h1024v-341h-1024z" />
<glyph unicode="&#x2000;" horiz-adv-x="1024" />
<glyph unicode="&#x2001;" horiz-adv-x="2048" />
<glyph unicode="&#x2002;" horiz-adv-x="1024" />
<glyph unicode="&#x2003;" horiz-adv-x="2048" />
<glyph unicode="&#x2004;" horiz-adv-x="682" />
<glyph unicode="&#x2005;" horiz-adv-x="512" />
<glyph unicode="&#x2006;" horiz-adv-x="341" />
<glyph unicode="&#x2007;" horiz-adv-x="341" />
<glyph unicode="&#x2008;" horiz-adv-x="256" />
<glyph unicode="&#x2009;" horiz-adv-x="409" />
<glyph unicode="&#x200a;" horiz-adv-x="113" />
<glyph unicode="&#x2010;" horiz-adv-x="2048" d="M341 1024v341h1024v-341h-1024z" />
<glyph unicode="&#x2011;" horiz-adv-x="2048" d="M341 1024v341h1024v-341h-1024z" />
<glyph unicode="&#x2012;" horiz-adv-x="2048" d="M341 1024v341h1024v-341h-1024z" />
<glyph unicode="&#x2013;" horiz-adv-x="2048" d="M341 1024v341h1024v-341h-1024z" />
<glyph unicode="&#x2014;" horiz-adv-x="3072" d="M341 1024v341h2048v-341h-2048z" />
<glyph unicode="&#x2018;" horiz-adv-x="2048" d="M341 1365v341h341v-341h-341zM682 1706v342h342v-342h-342z" />
<glyph unicode="&#x2019;" horiz-adv-x="2048" d="M341 1365v341h341v-341h-341zM682 1706v342h342v-342h-342z" />
<glyph unicode="&#x201c;" horiz-adv-x="2048" d="M341 1365v683h341v-683h-341zM1024 1365v683h341v-683h-341z" />
<glyph unicode="&#x201d;" horiz-adv-x="2048" d="M341 1365v683h341v-683h-341zM1024 1365v683h341v-683h-341z" />
<glyph unicode="&#x202f;" horiz-adv-x="409" />
<glyph unicode="&#x205f;" horiz-adv-x="512" />
<glyph unicode="&#x25fc;" horiz-adv-x="1707" d="M0 0v1708h1708v-1708h-1708z" />
</font>
</defs>
</svg>
